<?xml version="1.0" encoding="UTF-8"?>
<svg width="370mm" height="68.104mm" version="1.1" viewBox="0 0 369.99999 68.104146"
  xmlns="http://www.w3.org/2000/svg"
  xmlns:cc="http://creativecommons.org/ns#"
  xmlns:dc="http://purl.org/dc/elements/1.1/"
  xmlns:rdf="http://www.w3.org/1999/02/22-rdf-syntax-ns#">
  <title>Hyundai Logo</title>
  <metadata>
    <rdf:RDF>
      <cc:Work rdf:about="">
        <dc:format>image/svg+xml</dc:format>
        <dc:type rdf:resource="http://purl.org/dc/dcmitype/StillImage"/>
        <dc:title>Hyundai Logo</dc:title>
      </cc:Work>
    </rdf:RDF>
  </metadata>
  <g transform="translate(0 -228.9)">
    <path d="m46.745 287.36c-16.993-1.9182-31.124-8.8732-35.485-17.465-1.1629-2.291-1.2244-2.6032-1.2244-6.21 0-3.4519 0.09396-3.9891 1.0317-5.8989 1.9193-3.9088 7.0701-8.5137 12.644-11.304 15.609-7.8142 39.965-9.1082 58.304-3.0976 11.251 3.6877 18.749 9.474 21.021 16.222 4.2725 12.694-11.408 24.776-35.866 27.637-5.0024 0.58516-15.733 0.64667-20.424 0.11708zm13.949-4.3655c1.6988-0.94163 3.5127-3.5782 4.945-7.1878 2.5208-6.353 0.82451-9.5921-4.747-9.0646-6.1355 0.58088-20.75 6.5286-26.571 10.814-3.2204 2.3707-2.9997 2.7838 2.1667 4.0566 4.5511 1.1212 9.708 1.8903 14.756 2.2007 5.529 0.33997 7.6993 0.15198 9.4503-0.81856zm16.107-1.3349c22.546-5.7565 29.816-18.9 16.061-29.036-1.16-0.85481-2.3435-1.5542-2.6301-1.5542-0.30866 0-1.1806 1.4306-2.1387 3.509-4.665 10.12-8.9934 17.751-13.345 23.528-1.447 1.9209-2.6309 3.6685-2.6309 3.8836 0 0.58347 1.5272 0.47586 4.6835-0.33zm-48.905-13.952c4.2102-8.591 7.8814-14.763 11.633-19.558 1.3761-1.7587 1.9096-2.7088 1.6608-2.9576-0.90606-0.90606-11.335 2.2594-16.58 5.0324-7.5161 3.974-10.979 8.2843-10.945 13.622 0.01816 2.8201 0.73508 4.6002 2.9551 7.337 1.4228 1.754 5.7098 5.0698 6.5504 5.0665 0.34633-1e-3 2.0401-3.0634 4.7251-8.5422zm28.429-7.7789c7.459-1.8971 18.114-6.5686 22.755-9.9764 3.6142-2.6539 3.4019-2.9376-3.3644-4.4971-5.0326-1.1599-11.84-1.9431-16.889-1.9431-5.1507 0-6.6588 0.59864-8.4993 3.3738-2.5254 3.8079-4.1209 9.0276-3.4141 11.169 0.91103 2.7604 3.724 3.3205 9.4121 1.8738zm64.738 3.7376v-17.275h8.2777v13.316h14.756v-13.316h8.2777v34.55h-8.2777v-13.676h-14.756v13.676h-8.2777zm48.946 11.385v-5.8904l-6.8751-10.935c-3.7813-6.0142-6.9568-11.137-7.0565-11.385-0.13974-0.3465 0.9238-0.44987 4.6287-0.44987h4.8102l4.267 6.8403 4.267 6.8403 4.3095-6.8403 4.3095-6.8403h4.848c3.778 0 4.7902 0.0993 4.5863 0.44987-0.14394 0.24744-3.3116 5.3275-7.0393 11.289l-6.7776 10.839v11.972h-8.2777zm25.553-11.373v-17.287h8.2777v26.992h7.1853c6.7356 0 7.2086-0.0436 7.5579-0.69614 0.23677-0.44244 0.37256-5.3611 0.37256-13.496v-12.8h8.3074l-0.10483 15.026c-0.11702 16.77-0.0521 16.327-2.6852 18.336l-1.3215 1.0083-13.795 0.10222-13.795 0.10221zm39.229-0.0122v-17.275l13.046 8e-3c14.708 9e-3 15.021 0.0588 17.047 2.7137l0.79146 1.0395 0.10161 0.13343 0.14737 0.58832 5e-3 0.74142 0.0937 14.092 0.1012 15.234h-8.3001v-13.064c0-9.6813-0.11183-13.176-0.43187-13.496-0.30607-0.30608-2.4553-0.4319-7.3779-0.4319h-6.946v26.992h-8.2777zm38.869-0.0123v-17.288l13.613 0.10235 13.613 0.10235 1.4464 0.9576c2.7098 1.794 2.8033 2.2626 2.9336 14.698 0.0632 6.0373 0.0121 11.819-0.1136 12.848-0.28024 2.2937-1.3649 3.977-3.2512 5.0453-1.4103 0.7988-1.6035 0.80942-14.835 0.81527l-13.406 6e-3v-17.288zm23.021 9.0335c0.22649-0.42321 0.37256-4.0113 0.37256-9.1517 0-7.207-0.0836-8.5391-0.56555-9.0211-0.47534-0.47533-1.6811-0.56557-7.5579-0.56557h-6.9923v19.435h7.1853c6.7356 0 7.2086-0.0436 7.5579-0.69614zm15.856-6.4119c7e-3 -13.459 0.0623-14.784 0.66898-16.105 0.7863-1.7123 1.5889-2.4797 3.3736-3.2254 1.1091-0.4634 3.437-0.55357 14.293-0.55357h12.968v34.55h-8.2777v-10.409l-7.3783-0.10414-7.3783-0.10415 3.5e-4 5.3085 3.6e-4 5.3085h-8.2777l8e-3 -14.666zm23.026-7.8278v-4.4987h-6.946c-4.9226 0-7.0719 0.12582-7.3779 0.43189-0.28495 0.28495-0.43189 1.8155-0.43189 4.4987v4.0668h14.756zm16.195 5.2185v-17.275h8.2777v34.55h-8.2777z" fill="#002c5f" stroke-width=".3599"/>
  </g>
</svg>
