<svg xmlns="http://www.w3.org/2000/svg" data-name="Layer 1" width="990.2" height="637.7" viewBox="0 0 990.2 637.7"><style>
@keyframes a_t { 0% { transform: translate(702px,186.5px) rotate(0deg) translate(-80.7px,-76.5px); } 50% { transform: translate(702px,186.5px) rotate(-8.5deg) translate(-80.7px,-76.5px); animation-timing-function: cubic-bezier(0,0,1,1); } 100% { transform: translate(702px,186.5px) rotate(0deg) translate(-80.7px,-76.5px); } }
@keyframes b_t { 0% { transform: translate(264.6px,161.3px); } 50% { transform: translate(264.6px,141.3px); } 100% { transform: translate(264.6px,161.3px); } }
@keyframes c_t { 0% { transform: translate(17px,23.5px); } 50% { transform: translate(31px,24px); } 100% { transform: translate(17px,23.5px); } }
</style><title>problem solving</title><path d="M826.5 637c.7-0.6 1.3-1.2 2-1.8c7.4-7.2 20.7-22.2 27-29.4c.4-0.5 .8-1.1 1-1.7c.2-0.6 .2-1.3 .1-2c0-0.6-0.3-1.3-0.6-1.8c-0.3-0.6-0.8-1.1-1.4-1.5l-12.2-8.6c.5-0.2 .7-0.3 .7-0.3l-8.8-12.7c1-19.4-40.3-72.3-50.7-80.2c-10.3-7.9 24.3-70.3 24.3-70.3c5.3-2 9.5-6.4 12.8-10.9c.2 0 .4 0 .6 .1l4.4-0.5c.9 0 1.8-0.3 2.7-0.7c.8-0.4 1.6-0.9 2.2-1.6c.6-0.6 1.2-1.4 1.6-2.2c.3-0.9 .6-1.8 .6-2.7c.2-1.3 .3-2.6 .3-3.9c.1-1.3 .2-2.6 .2-3.9c.1-1.3 .1-2.7 .1-4c0-1.3 0-2.6-0.1-3.9c.9-2.7 1-7.6 6.9-11.5c7.7-5.1 57.3-132.5 34.4-155.8c0 0-9.7-14.5-15.2-16.3c0 0 .9-4.3-2.4-6.2l-1.5-5c0 0-2.2 1-5.3 2.4c-0.7-0.9-1.3-1.8-1.8-2.7c-0.6-1-1.2-1.9-1.7-2.8c-0.6-1-1.1-2-1.7-2.9c-0.5-1-1-2-1.4-3c1-4.7 17.5-25.7 2.7-40.2c-14.9-14.7-22.3-24.7-33.5-20.7c-11.1 4-37.3 9.9-36.6 19.3c.8 9.3-1.9 13 2.9 16.8c4.9 3.9 5 3.6 5 3.6v-0.1c-1.2 4.7-1.2 9.6 0 14.2c1.1 4.7 3.5 9 6.7 12.5c3.2 3.5 7.3 6.2 11.8 7.8c4.6 1.6 9.4 2 14.2 1.2c.5 1.1 1.1 2.2 1.6 3.2c.5 1.1 1 2.2 1.4 3.4c.5 1.1 .9 2.2 1.3 3.3c.4 1.2 .8 2.3 1.2 3.5c-0.4 .6-0.7 1.3-0.9 2c-0.2 .7-0.4 1.4-0.5 2.1c-0.1 .8-0.2 1.5-0.2 2.2c0 .8 .1 1.5 .2 2.2c-1.2 1.9-2.4 3.8-3.6 5.7c-1.2 1.8-2.4 3.8-3.6 5.7c-1.1 1.9-2.2 3.9-3.3 5.8c-1.1 2-2.1 4-3.1 6c-3.3 6.3-9.4 19.6-16 33.9c-11.6-3.8-22.2-7.6-22.2-7.6c0 0-0.6 .7-1.5 1.9c-0.9-0.1-1.7-0.2-2.5-0.3c-0.8-0.2-1.7-0.3-2.5-0.3c-0.8-0.1-1.7-0.2-2.5-0.2c-0.8-0.1-1.7-0.1-2.5-0.1l-28.1-28.3c-0.2-0.2-0.4-0.4-0.7-0.6c-0.2-0.1-0.5-0.2-0.8-0.2c-0.3 0-0.6 0-0.8 0c-0.3 .1-0.6 .2-0.8 .4l-24.7 11.7c-0.3 .3-0.5 .6-0.7 1c-0.2 .3-0.3 .7-0.3 1.1c0 .4 .1 .8 .3 1.2c.1 .4 .3 .7 .6 1l24.5 26c-1.9 2 1.4 4.5 6.6 7l6.5 6.8c.2 .3 .4 .5 .7 .7c.3 .1 .7 .2 1 .2c.3 0 .7-0.1 1-0.2c.3-0.1 .5-0.3 .8-0.6l2.1-2.3c4 1.3 8 2.5 11.1 3.4c-0.2 1.1 0 2 .7 2.3c1.4 .7 8.5 4.7 18.3 9.7c-3.9 7.3-7.3 12.9-9.6 15.2c-7 6.7-6.9 25.5-6.5 32.8c-2.3 3.4-5.4 8.5-5.3 10.9c-12.4 18.5-34.5 53.3-37.9 72.2c0 0-16 21.4-18.3 49.5c-2.2 28.1-30.9 93.2-32.7 94.1c-0.3 .2-0.2 .7 .1 1.6c-9.5 3.3 15.1 45.1 20.2 43.7c4.3-1.2 10.9-23.5 10.9-30.4c.1 0 .3 0 .4-0.1c0 0 6-16.2 10.6-18.6c4.5-2.3 27.9-74.4 27.8-85.8c0-1.8 1.5-4.7 4.1-8.4c.4 1.8 1 3.6 1.8 5.3c.7 1.7 1.7 3.4 2.7 4.9c1.1 1.6 2.3 3.1 3.6 4.4c1.3 1.4 2.8 2.6 4.3 3.7c33.1 22.1 55.6 90.8 59.7 92.1c.1 .1 .1 .1 .2 .1c.1 0 .1 0 .2 0c.1 0 .1 0 .2 0c0 0 .1 0 .2 0c.3 9.8 .1 28.4-6.2 30.8c-0.5 .2-0.9 .4-1.4 .6c-0.5 .3-0.9 .5-1.3 .8c-0.4 .3-0.8 .6-1.2 .9c-0.4 .3-0.8 .7-1.1 1.1" fill="#f2f2f2"/><path d="M967.2 493.8c-1.6-0.8-3.3-1.3-5-1.7c-1.8-0.3-3.5-0.4-5.3-0.3c-1.8 .2-3.5 .6-5.2 1.2c-1.6 .6-3.2 1.5-4.6 2.5c-8.6 6.5-9.9 19.3-6.7 29.7c3.3 10.3 10 19 15.3 28.4c7.1 12.7 11.7 27.1 10.5 41.6c-1.2 14.4-8.7 28.8-21.4 35.9c-11.7 6.6-26 6.3-39.4 5.9" fill="none" stroke="#f2f2f2" stroke-miterlimit="10"/><ellipse rx="7.1" ry="14.6" fill="#f2f2f2" transform="translate(-113.4,1116) rotate(-59.8) translate(1080.7,630.9)"/><ellipse rx="7.1" ry="14.6" fill="#f2f2f2" transform="translate(-159.9,1127.4) rotate(-59.8) translate(1067.3,677)"/><ellipse rx="7.1" ry="14.6" fill="#f2f2f2" transform="translate(-167.3,1100.8) rotate(-59.8) translate(1040.5,670.1)"/><ellipse rx="7.1" ry="14.6" fill="#f2f2f2" transform="translate(-206.5,1142) rotate(-59.8) translate(1056.8,724.9)"/><ellipse rx="7.1" ry="14.6" fill="#f2f2f2" transform="translate(-206.7,1171.1) rotate(-59.8) translate(1082,739.6)"/><path d="M886.6 482.3c-1.8 .1-3.5 .5-5.2 1c-1.7 .6-3.3 1.4-4.7 2.4c-1.5 1.1-2.8 2.3-3.9 3.6c-1.1 1.4-2 2.9-2.7 4.6c-4.2 9.9 1.1 21.7 9.1 28.9c8 7.3 18.3 11.5 27.6 16.9c12.5 7.4 23.7 17.6 30 30.7c6.2 13 6.9 29.2-0.5 41.7c-6.8 11.6-19.2 18.6-31 25" fill="none" stroke="#3f3d56" stroke-miterlimit="10"/><ellipse cx="897.1" cy="483.2" rx="14.6" ry="7.1" fill="#6c63ff"/><ellipse cx="908.8" cy="529.8" rx="14.6" ry="7.1" fill="#6c63ff"/><ellipse cx="882.1" cy="537.3" rx="14.6" ry="7.1" fill="#6c63ff"/><ellipse cx="923.8" cy="576.5" rx="14.6" ry="7.1" fill="#6c63ff"/><ellipse cx="952.9" cy="576.5" rx="14.6" ry="7.1" fill="#6c63ff"/><path fill="none" stroke="#3f3d56" stroke-miterlimit="10" d="M555.5 637h412"/><path d="M657.2 286.6c0 0-45.8 7.2-40.2-1.9c5.6-9.1 35.6-18.3 41.1-16.4c5.5 1.9-0.9 18.3-0.9 18.3Z" fill="#ffc1c7"/><path d="M657.2 286.6c0 0-45.8 7.2-40.2-1.9c5.6-9.1 35.6-18.3 41.1-16.4c5.5 1.9-0.9 18.3-0.9 18.3Z" opacity=".1"/><path d="M709.7 184.4c0 0-29.6 8-15.8 33.2c0 0 22.3 44.1 13 47c-9.4 2.8-52.7 1.4-52.7 1.4c0 0-10.2 24.5-5.1 25.3c5.1 .7 85.9 17.3 94.6 1.4c8.6-15.9 0-84.5 0-84.5c0 0-12.3-33.9-34-23.8Z" fill="#6c63ff"/><path d="M709.7 184.4c0 0-29.6 8-15.8 33.2c0 0 22.3 44.1 13 47c-9.4 2.8-52.7 1.4-52.7 1.4c0 0-10.2 24.5-5.1 25.3c5.1 .7 85.9 17.3 94.6 1.4c8.6-15.9 0-84.5 0-84.5c0 0-12.3-33.9-34-23.8Z" opacity=".1"/><path d="M793.5 559.9c0 0 13 31 5.8 36.8c-7.2 5.8-5.8 16.6-0.8 16.6c5.1 0 16.7-10.1 23.2-22.4c4.8-9.1 12.8-27.5 16.6-36.3c.3-0.6 .4-1.3 .4-1.9c0-0.7-0.1-1.3-0.4-2c-0.3-0.6-0.7-1.1-1.2-1.5c-0.5-0.5-1.1-0.8-1.7-1l-21-6.4Z" fill="#3f3d56"/><path d="M656.3 597.4c0 0-27.4 22.4-41.9 21.7c-14.4-0.8-16.6 14.4 0 16.6c16.6 2.1 66.5 2.9 70.8 0c4.3-2.9 2.9-33.2 0-34c-2.9-0.7-28.9-4.3-28.9-4.3Z" fill="#3f3d56"/><path d="M749.5 367.1c0 0 0 22.4-11.6 31.7c0 0-13.7 70.1-1.4 74.4c12.2 4.3 67.8 41.9 72.9 60.7l12.3 9.3c0 0-22.4 22.4-26.8 22.4c-4.3 0-46.9-58.5-85.2-69.3c0 0-23.8-5.8-23.1-36.8c.8-31 28.9-113.4 28.9-113.4h32.5Z" fill="#2f2e41"/><path d="M749.5 367.1c0 0 0 22.4-11.6 31.7c0 0-13.7 70.1-1.4 74.4c12.2 4.3 67.8 41.9 72.9 60.7l12.3 9.3c0 0-22.4 22.4-26.8 22.4c-4.3 0-46.9-58.5-85.2-69.3c0 0-23.8-5.8-23.1-36.8c.8-31 28.9-113.4 28.9-113.4h32.5Z" opacity=".1"/><path d="M674.4 351.9c0 0-21.7 67.9-18.1 94.6c0 0-8.6 25.3-2.1 52.7c6.4 27.4-0.8 98.2-2.2 99.6c-1.5 1.5 15.9 16.6 34.6 4.4c0 0 .8-17.4 4.4-21c3.6-3.6 3.6-79.4 0-90.2c-3.6-10.8 39-89.5 39-89.5c0 0 23.1-21 14.4-31.8c-8.7-10.8 .7-32.5 .7-32.5l-65.7 4.3Z" fill="#2f2e41"/><path d="M716.2 171.4l-3.6-5c0 0-24.8 22.1-25.8 28c-0.1 .8-0.2 1.7-0.2 2.5c0 .8 .1 1.6 .3 2.5c.2 .8 .4 1.6 .7 2.3c.3 .8 .7 1.5 1.2 2.2l14.4-6.5l7.3-14.4Z" fill="#3f3d56"/><path d="M672.9 350.5c0 0-5.8 17.3-1.4 16.6c4.3-0.7 4.3-10.1 9.4-10.1c5 0 7.9-8 7.9-8Z" fill="#3f3d56"/><path d="M709.7 351.9c0 0 16.7 36.1 37.6 32.5l4.1-1.7c.8-0.4 1.6-0.9 2.3-1.5c.6-0.7 1.2-1.4 1.6-2.2c.4-0.9 .7-1.8 .8-2.7c.1-0.9 0-1.8-0.2-2.7c-2-8.3-5.6-21.7-8.6-21.7Z" fill="#3f3d56"/><g transform="translate(702,186.5) translate(-80.7,-76.5)" style="animation: 6s linear infinite both a_t;"><ellipse cx="43" cy="47.7" fill="#ffc1c7" rx="28.9" ry="28.9"/><path d="M61.7 34.7c0 0 23.2 26.7 28.9 27.4c5.8 .8-18.7 31.8-18.7 31.8c0 0-13.8-23.1-23.1-25.3c-9.4-2.1 12.9-33.9 12.9-33.9Z" fill="#ffc1c7"/><path d="M14.2 49.5c0 0 2.8-9 12.2-5.4c9.4 3.6 17.3 11.5 19.5 5.8c2.1-5.8 7.7-11.1 11.4-6.7c3.7 4.5 20.7 12.8 20 8.5c-0.8-4.4 9-30-9.8-39.4c-18.7-9.4-28.9-16.6-38.2-9.4c-9.4 7.3-32.5 21-28.9 29.6c3.6 8.7 2.1 13 7.9 15.2c5.8 2.2 5.9 1.8 5.9 1.8Z" fill="#2f2e41"/></g><path d="M719.9 175.8c0 0-0.8-6.5-7.3-5.1c-6.5 1.4-23.8 30.3-23.8 30.3c-0.7 2.3-1.4 4.6-2 7c-0.6 2.3-1.2 4.6-1.7 7c-0.6 2.3-1.1 4.7-1.5 7.1c-0.5 2.3-0.9 4.7-1.3 7.1c-2.9 17.3-8.7 80.8-14.4 91.7c-5.8 10.8 5 36.1 5 36.1c0 0 6.5-7.2 27.5-2.9c20.9 4.3 48.3 8.6 50.5 6.5c2.2-2.2-2.2-8 3.6-15.2c5.8-7.2 13.7-143.7-15.2-158.8c0 0-13.7-10.8-19.4-10.8Z" fill="#6c63ff"/><path d="M712.6 197.4c0 0-29.6 8-15.9 33.2c0 0 22.4 44.1 13 47c-9.3 2.8-52.7 1.4-52.7 1.4c0 0-4.7 15.5 .4 16.2c5.1 .8 80.5 26.4 89.2 10.5c8.6-15.9 0-84.5 0-84.5c0 0-12.3-33.9-34-23.8Z" opacity=".1"/><path d="M586.3 275.6l48 26.4c.3 .2 .6 .3 .9 .3c.3 .1 .7 .1 1 0c.3-0.1 .6-0.3 .9-0.5c.2-0.2 .4-0.5 .6-0.8l11.7-24.6c.1-0.3 .2-0.7 .2-1.1c-0.1-0.3-0.1-0.7-0.3-1c-0.1-0.4-0.3-0.7-0.6-0.9c-0.2-0.3-0.5-0.5-0.9-0.7l-39.8-20.5c-0.2-0.2-0.5-0.3-0.8-0.3c-0.3-0.1-0.6-0.1-0.8 0c-0.3 .1-0.6 .2-0.8 .3c-0.3 .2-0.5 .3-0.7 .6l-19.9 18.7c-0.1 .4-0.3 .8-0.3 1.2c-0.1 .4 0 .8 .1 1.1c.1 .4 .3 .8 .6 1.1c.2 .3 .5 .5 .9 .7Z" fill="#2f2e41"/><path fill="#3f3d56" d="M589.5 272l45 25.7l12-21.6l-38.6-21l-18.4 16.9Z"/><ellipse rx=".6" ry=".7" fill="#f2f2f2" transform="translate(-188,430.1) rotate(-39.8) translate(732.6,395.2)"/><ellipse rx=".4" ry=".4" fill="#f2f2f2" transform="translate(-206,424.6) rotate(-39.8) translate(715.9,417.2)"/><path d="M657.9 297.5c0 0-46.3 3.3-39.9-5.3c6.4-8.7 37.1-15.2 42.4-12.8c5.3 2.4-2.5 18.1-2.5 18.1Z" fill="#ffc1c7"/><path d="M712.6 193.1c0 0-29.6 7.9-15.9 33.2c0 0 22.4 44 13 46.9c-9.3 2.9-52.7 1.5-52.7 1.5c0 0-10.1 24.5-5 25.2c5 .8 85.9 17.4 94.6 1.5c8.6-15.9 0-84.5 0-84.5c0 0-12.3-33.9-34-23.8Z" fill="#6c63ff"/><rect width="260" height="129.2" rx="13.5" fill="#f2f2f2" transform="translate(0,0) translate(264.6,161.3)" style="animation: 6s linear infinite both b_t;"/><ellipse fill="#6c63ff" rx="17" ry="17" transform="translate(0,0) translate(17,23.5)" style="animation: 6s linear infinite both c_t;"/><ellipse cx="22" cy="17.5" fill="none" stroke="#3f3d56" stroke-miterlimit="10" rx="17" ry="17"/><ellipse cx="224" cy="237.5" fill="#f2f2f2" rx="17" ry="17"/><ellipse cx="229" cy="231.5" fill="none" stroke="#3f3d56" stroke-miterlimit="10" rx="17" ry="17"/><ellipse cx="356" cy="108.5" fill="#6c63ff" rx="17" ry="17"/><ellipse cx="361" cy="102.5" fill="none" stroke="#3f3d56" stroke-miterlimit="10" rx="17" ry="17"/><rect x="38.7" y="63" width="260" height="129.2" rx="13.5" fill="#6c63ff"/><rect x="53.9" y="52" width="260" height="129.2" rx="13.5" fill="none" stroke="#3f3d56" stroke-miterlimit="10"/><rect x="279.8" y="150.4" width="260" height="129.2" rx="13.5" fill="none" stroke="#3f3d56" stroke-miterlimit="10"/></svg>