<?xml version="1.0" encoding="iso-8859-1"?>
<!-- Generator: Adobe Illustrator 19.1.0, SVG Export Plug-In . SVG Version: 6.00 Build 0)  -->
<svg version="1.1" id="Capa_1" xmlns="http://www.w3.org/2000/svg" xmlns:xlink="http://www.w3.org/1999/xlink" x="0px" y="0px"
	 viewBox="0 0 63.019 63.019" style="enable-background:new 0 0 63.019 63.019;" xml:space="preserve">
<g>
	<g id="group-12svg">
		<path id="path-1_2_" style="fill:#FF917B;" d="M61.509,41.012c0,4.42-3.582,8.003-8,8.003h-37c-4.418,0-8-3.583-8-8.003V12.003
			c0-4.419,3.582-8.002,8-8.002h37c4.418,0,8,3.583,8,8.002V41.012z"/>
		<path id="path-2_2_" style="fill:#81BDA4;" d="M8.618,40.012c0,5.002,3.643,9.003,8.136,9.003h37.61
			c4.494,0,7.136-4.001,7.136-9.003H8.618z"/>
		<path id="path-3_2_" style="fill:#99746A;" d="M48.509,60.985c0,1.123-0.911,2.034-2.034,2.034H22.543
			c-1.123,0-2.034-0.911-2.034-2.034v-3.934c0-1.123,0.911-2.034,2.034-2.034h23.932c1.123,0,2.034,0.911,2.034,2.034V60.985z"/>
		<path id="path-4_2_" d="M48.009,48.015h-37c-5.238,0-9.5-4.263-9.5-9.503V9.503c0-5.24,4.262-9.503,9.5-9.503h37
			c5.238,0,9.5,4.263,9.5,9.503v29.009C57.509,43.752,53.247,48.015,48.009,48.015z M11.009,3.001c-3.584,0-6.5,2.917-6.5,6.502
			v29.009c0,3.585,2.916,6.502,6.5,6.502h37c3.584,0,6.5-2.917,6.5-6.502V9.503c0-3.585-2.916-6.502-6.5-6.502H11.009z"/>
		<path id="path-5_2_" d="M48.364,48.015h-36.61c-5.313,0-9.636-4.712-9.636-10.504c0-0.828,0.672-1.5,1.5-1.5H55.5
			c0.828,0,1.5,0.672,1.5,1.5C57,43.696,53.449,48.015,48.364,48.015z M5.252,39.012c0.616,3.42,3.297,6.002,6.502,6.002h36.61
			c3.369,0,5.128-2.823,5.54-6.002H5.252z"/>
		<path id="path-6_1_" d="M36.009,54.016h-14c-0.829,0-1.5-0.672-1.5-1.5v-6.002c0-0.828,0.671-1.5,1.5-1.5h14
			c0.829,0,1.5,0.672,1.5,1.5v6.002C37.509,53.344,36.838,54.016,36.009,54.016z M23.509,51.015h11v-3h-11V51.015z"/>
		<path id="path-7_1_" d="M40.975,62.019H17.043c-1.949,0-3.534-1.586-3.534-3.535v-3.933c0-1.95,1.585-3.536,3.534-3.536h23.932
			c1.949,0,3.534,1.586,3.534,3.536v3.933C44.509,60.433,42.924,62.019,40.975,62.019z M17.043,54.016
			c-0.295,0-0.534,0.24-0.534,0.535v3.933c0,0.295,0.239,0.534,0.534,0.534h23.932c0.295,0,0.534-0.239,0.534-0.534v-3.933
			c0-0.295-0.239-0.535-0.534-0.535H17.043z"/>
		<path id="path-8_1_" d="M17.537,35.707c-0.384,0-0.768-0.146-1.061-0.44c-0.586-0.586-0.586-1.535,0-2.121L41.903,7.71
			c0.586-0.586,1.536-0.586,2.122,0c0.586,0.586,0.586,1.536,0,2.122L18.597,35.267C18.304,35.561,17.921,35.707,17.537,35.707z"/>
		<path id="path-9" d="M31.548,34.149c-0.384,0-0.768-0.147-1.061-0.44c-0.586-0.586-0.586-1.535,0-2.121l7.369-7.371
			c0.586-0.586,1.535-0.586,2.121,0c0.586,0.586,0.586,1.536,0,2.122l-7.369,7.37C32.315,34.002,31.931,34.149,31.548,34.149z"/>
	</g>
</g>
<g>
</g>
<g>
</g>
<g>
</g>
<g>
</g>
<g>
</g>
<g>
</g>
<g>
</g>
<g>
</g>
<g>
</g>
<g>
</g>
<g>
</g>
<g>
</g>
<g>
</g>
<g>
</g>
<g>
</g>
</svg>
