<?xml version="1.0" encoding="iso-8859-1"?>
<!-- Generator: Adobe Illustrator 19.1.0, SVG Export Plug-In . SVG Version: 6.00 Build 0)  -->
<svg version="1.1" id="Capa_1" xmlns="http://www.w3.org/2000/svg" xmlns:xlink="http://www.w3.org/1999/xlink" x="0px" y="0px"
	 viewBox="0 0 65.02 65.02" style="enable-background:new 0 0 65.02 65.02;" xml:space="preserve">
<g>
	<g id="group-2svg">
		<path id="path-1_10_" style="fill:#FF917B;" d="M55.51,57.017c0,4.42-3.582,8.003-8,8.003h-24c-4.419,0-8-3.583-8-8.003V13.004
			c0-4.42,3.581-8.003,8-8.003h24c4.418,0,8,3.583,8,8.003V57.017z"/>
		<path id="path-2_10_" style="fill:#E56A77;" d="M15.51,56.017h40V13.004h-40V56.017z"/>
		<path id="path-3_9_" d="M43.01,63.019h-24c-5.238,0-9.5-4.263-9.5-9.503V9.503C9.51,4.263,13.772,0,19.01,0h24
			c5.238,0,9.5,4.263,9.5,9.503v44.013C52.51,58.756,48.248,63.019,43.01,63.019z M19.01,3.001c-3.584,0-6.5,2.917-6.5,6.502v44.013
			c0,3.585,2.916,6.502,6.5,6.502h24c3.584,0,6.5-2.917,6.5-6.502V9.503c0-3.585-2.916-6.502-6.5-6.502H19.01z"/>
		<path id="path-4_9_" d="M51.01,54.016h-40c-0.829,0-1.5-0.672-1.5-1.5V9.503c0-0.829,0.671-1.501,1.5-1.501h40
			c0.829,0,1.5,0.672,1.5,1.501v43.013C52.51,53.344,51.839,54.016,51.01,54.016z M12.51,51.015h37V11.003h-37V51.015z"/>
		<path id="path-5_9_" d="M33.714,5.714c0,1.105-0.896,2.001-2,2.001c-1.105,0-2-0.896-2-2.001s0.895-2.001,2-2.001
			C32.818,3.713,33.714,4.609,33.714,5.714z"/>
		<path id="path-6_8_" d="M34.51,58.018h-5c-0.829,0-1.5-0.672-1.5-1.501c0-0.828,0.671-1.5,1.5-1.5h5c0.829,0,1.5,0.672,1.5,1.5
			C36.01,57.346,35.339,58.018,34.51,58.018z"/>
		<path id="path-7_8_" d="M19.189,43.678c-0.384,0-0.768-0.146-1.061-0.439c-0.586-0.586-0.586-1.536,0-2.122l22.9-22.907
			c0.586-0.586,1.535-0.586,2.121,0c0.586,0.587,0.586,1.536,0,2.122l-22.9,22.907C19.956,43.532,19.572,43.678,19.189,43.678z"/>
		<path id="path-8_7_" d="M31.807,42.276c-0.384,0-0.768-0.146-1.061-0.439c-0.586-0.586-0.586-1.536,0-2.122l6.637-6.639
			c0.585-0.586,1.535-0.586,2.121,0c0.586,0.587,0.586,1.536,0,2.122l-6.637,6.639C32.574,42.13,32.191,42.276,31.807,42.276z"/>
	</g>
</g>
<g>
</g>
<g>
</g>
<g>
</g>
<g>
</g>
<g>
</g>
<g>
</g>
<g>
</g>
<g>
</g>
<g>
</g>
<g>
</g>
<g>
</g>
<g>
</g>
<g>
</g>
<g>
</g>
<g>
</g>
</svg>
