<?xml version="1.0" encoding="iso-8859-1"?>
<!-- Generator: Adobe Illustrator 19.1.0, SVG Export Plug-In . SVG Version: 6.00 Build 0)  -->
<svg version="1.1" id="Capa_1" xmlns="http://www.w3.org/2000/svg" xmlns:xlink="http://www.w3.org/1999/xlink" x="0px" y="0px"
	 viewBox="0 0 64.02 64.02" style="enable-background:new 0 0 64.02 64.02;" xml:space="preserve">
<g>
	<g id="group-9svg">
		<path id="path-1_29_" style="fill:#8B71B5;" d="M61.01,56.017c0,4.42-3.582,8.003-8,8.003h-36c-4.418,0-8-3.583-8-8.003V12.004
			c0-4.42,3.582-8.003,8-8.003h36c4.418,0,8,3.583,8,8.003V56.017z"/>
		<path id="path-2_29_" style="fill:#53ECF4;" d="M9.01,54.017h52V12.004h-52V54.017z"/>
		<path id="path-3_28_" d="M48.51,63.019h-36c-5.238,0-9.5-4.263-9.5-9.502V9.503C3.01,4.263,7.272,0,12.51,0h36
			c5.238,0,9.5,4.263,9.5,9.503v44.014C58.01,58.756,53.748,63.019,48.51,63.019z M12.51,3.001c-3.584,0-6.5,2.917-6.5,6.502v44.014
			c0,3.585,2.916,6.502,6.5,6.502h36c3.584,0,6.5-2.917,6.5-6.502V9.503c0-3.585-2.916-6.502-6.5-6.502
			C48.51,3.001,12.51,3.001,12.51,3.001z"/>
		<path id="path-4_28_" d="M56.51,53.016h-52c-0.828,0-1.5-0.672-1.5-1.5V9.503c0-0.828,0.672-1.5,1.5-1.5h52
			c0.828,0,1.5,0.672,1.5,1.5v42.013C58.01,52.344,57.338,53.016,56.51,53.016z M6.01,50.015h49V11.004h-49V50.015z"/>
		<path id="path-5_28_" d="M33.341,5.366c0,1.104-0.896,2-2,2s-2-0.896-2-2c0-1.105,0.896-2.001,2-2.001
			C32.445,3.365,33.341,4.261,33.341,5.366z"/>
		<path id="path-6_23_" d="M34.01,57.018h-5c-0.828,0-1.5-0.672-1.5-1.501c0-0.828,0.672-1.5,1.5-1.5h5c0.828,0,1.5,0.672,1.5,1.5
			C35.51,56.346,34.838,57.018,34.01,57.018z"/>
		<path id="path-7_22_" d="M18.816,42.277c-0.384,0-0.768-0.147-1.061-0.44c-0.586-0.586-0.586-1.535,0-2.122l22.9-22.906
			c0.586-0.586,1.536-0.586,2.122,0c0.585,0.586,0.585,1.536,0,2.122L19.876,41.837C19.583,42.13,19.199,42.277,18.816,42.277z"/>
		<path id="path-8_21_" d="M31.434,40.875c-0.384,0-0.768-0.147-1.061-0.44c-0.586-0.586-0.586-1.535,0-2.121l6.637-6.639
			c0.586-0.586,1.535-0.586,2.121,0c0.586,0.586,0.586,1.536,0,2.122l-6.637,6.638C32.201,40.728,31.818,40.875,31.434,40.875z"/>
	</g>
</g>
<g>
</g>
<g>
</g>
<g>
</g>
<g>
</g>
<g>
</g>
<g>
</g>
<g>
</g>
<g>
</g>
<g>
</g>
<g>
</g>
<g>
</g>
<g>
</g>
<g>
</g>
<g>
</g>
<g>
</g>
</svg>
