<svg width="220" height="130" viewBox="0 0 220 130" fill="none" xmlns="http://www.w3.org/2000/svg">
<path d="M44.3198 105V107H60.7598V90.32H72.7598V76.52H70.7598V88.32H58.7598V105H44.3198Z" fill="#3C6D56"/>
<path d="M60.7598 74.52V32.24H58.7598V74.52H60.7598Z" fill="#3C6D56"/>
<path d="M9.27979 88.2V90.2H42.3198V88.2H9.27979Z" fill="#3C6D56"/>
<path d="M29.8707 74.76H26.2398L42.6798 54.6V59.0525L29.8707 74.76Z" fill="#3C6D56"/>
<path d="M99.4619 88.436C100.067 89.2455 100.724 89.9668 101.433 90.6C101.577 90.7245 101.724 90.8452 101.872 90.962C101.159 90.0873 100.513 89.0989 99.9347 87.9969L125.226 64.5119C125.163 63.2676 125.065 62.073 124.932 60.9279L97.9347 85.9969C98.4003 86.8835 98.9093 87.6965 99.4619 88.436Z" fill="#3C6D56"/>
<path d="M120.012 47.0798C119.567 46.5405 119.094 46.0472 118.593 45.6C116.433 43.52 113.553 42.48 109.953 42.48C106.593 42.48 103.753 43.52 101.433 45.6C99.1929 47.6 97.4729 50.52 96.2729 54.36C95.1529 58.12 94.5929 62.68 94.5929 68.04C94.5929 70.506 94.708 72.8077 94.9381 74.945L96.6658 73.3357C96.6172 72.2718 96.5929 71.1733 96.5929 70.04C96.5929 64.68 97.1529 60.12 98.2729 56.36C99.4729 52.52 101.193 49.6 103.433 47.6C105.753 45.52 108.593 44.48 111.953 44.48C115.239 44.48 117.925 45.3466 120.012 47.0798Z" fill="#3C6D56"/>
<path d="M93.5129 102C98.2329 104.96 103.713 106.44 109.953 106.44C116.193 106.44 121.633 104.96 126.273 102C130.993 98.96 134.633 94.6 137.193 88.92C139.833 83.16 141.153 76.2 141.153 68.04C141.153 59.96 139.833 53 137.193 47.16C135.685 43.72 133.802 40.7518 131.545 38.2556C134.71 41.1147 137.26 44.7495 139.193 49.16C141.833 55 143.153 61.96 143.153 70.04C143.153 78.2 141.833 85.16 139.193 90.92C136.633 96.6 132.993 100.96 128.273 104C123.633 106.96 118.193 108.44 111.953 108.44C105.713 108.44 100.233 106.96 95.5129 104C93.5214 102.695 91.7141 101.147 90.091 99.3561C91.1638 100.327 92.3044 101.208 93.5129 102Z" fill="#3C6D56"/>
<path d="M188.226 105V107H204.666V90.32H216.666V76.52H214.666V88.32H202.666V105H188.226Z" fill="#3C6D56"/>
<path d="M204.666 74.52V32.24H202.666V74.52H204.666Z" fill="#3C6D56"/>
<path d="M153.186 88.2V90.2H186.226V88.2H153.186Z" fill="#3C6D56"/>
<path d="M173.777 74.76H170.146L186.586 54.6V59.0525L173.777 74.76Z" fill="#3C6D56"/>
<path d="M40.32 103V86.2H5.28V75.64L44.16 28.24H56.76V72.52H68.76V86.32H56.76V103H40.32ZM24.24 72.76H40.68V52.6L24.24 72.76ZM86.9531 78.52L125.473 42.64L128.713 53.56L90.0731 89.44L86.9531 78.52ZM107.953 104.44C101.713 104.44 96.2331 102.96 91.5131 100C86.8731 96.96 83.2331 92.6 80.5931 86.92C78.0331 81.16 76.7531 74.2 76.7531 66.04C76.7531 57.96 78.0331 51 80.5931 45.16C83.2331 39.32 86.8731 34.84 91.5131 31.72C96.2331 28.6 101.713 27.04 107.953 27.04C114.193 27.04 119.633 28.6 124.273 31.72C128.993 34.84 132.633 39.32 135.193 45.16C137.833 51 139.153 57.96 139.153 66.04C139.153 74.2 137.833 81.16 135.193 86.92C132.633 92.6 128.993 96.96 124.273 100C119.633 102.96 114.193 104.44 107.953 104.44ZM107.953 91.6C111.553 91.6 114.433 90.6 116.593 88.6C118.833 86.52 120.513 83.6 121.633 79.84C122.753 76 123.313 71.4 123.313 66.04C123.313 60.68 122.753 56.12 121.633 52.36C120.513 48.52 118.833 45.6 116.593 43.6C114.433 41.52 111.553 40.48 107.953 40.48C104.593 40.48 101.753 41.52 99.4331 43.6C97.1931 45.6 95.4731 48.52 94.2731 52.36C93.1531 56.12 92.5931 60.68 92.5931 66.04C92.5931 71.48 93.1531 76.12 94.2731 79.96C95.4731 83.72 97.1931 86.6 99.4331 88.6C101.753 90.6 104.593 91.6 107.953 91.6ZM184.226 103V86.2H149.186V75.64L188.066 28.24H200.666V72.52H212.666V86.32H200.666V103H184.226ZM168.146 72.76H184.586V52.6L168.146 72.76Z" fill="#303841"/>
</svg>
