<svg width="1320" height="889" viewBox="0 0 1320 889" fill="none" xmlns="http://www.w3.org/2000/svg">
<rect width="1320" height="889" fill="#2F1E2E"/>
<rect x="514" y="320" width="274" height="96" stroke="#06B6EF" stroke-width="4"/>
<path d="M559.024 367.99L558.094 370.99H563.974L563.044 367.99C562.704 366.89 562.364 365.8 562.024 364.72C561.704 363.62 561.394 362.5 561.094 361.36H560.974C560.654 362.5 560.334 363.62 560.014 364.72C559.694 365.8 559.364 366.89 559.024 367.99ZM553.024 379L559.654 359.32H562.474L569.104 379H566.464L564.604 373H557.464L555.574 379H553.024ZM572.843 385.15V364.42H574.883L575.093 366.28H575.183C575.863 365.64 576.643 365.11 577.523 364.69C578.423 364.27 579.323 364.06 580.223 364.06C581.203 364.06 582.063 364.24 582.803 364.6C583.563 364.94 584.193 365.44 584.693 366.1C585.213 366.74 585.603 367.52 585.863 368.44C586.123 369.34 586.253 370.36 586.253 371.5C586.253 372.74 586.073 373.85 585.713 374.83C585.353 375.79 584.863 376.61 584.243 377.29C583.643 377.97 582.943 378.49 582.143 378.85C581.343 379.19 580.503 379.36 579.623 379.36C578.943 379.36 578.203 379.2 577.403 378.88C576.623 378.54 575.913 378.07 575.273 377.47H575.183L575.303 380.23V385.15H572.843ZM579.203 377.29C580.523 377.29 581.603 376.78 582.443 375.76C583.283 374.74 583.703 373.32 583.703 371.5C583.703 370.7 583.623 369.97 583.463 369.31C583.303 368.65 583.053 368.09 582.713 367.63C582.393 367.15 581.973 366.78 581.453 366.52C580.933 366.26 580.313 366.13 579.593 366.13C578.953 366.13 578.263 366.31 577.523 366.67C576.803 367.01 576.063 367.56 575.303 368.32V375.58C576.003 376.2 576.703 376.64 577.403 376.9C578.103 377.16 578.703 377.29 579.203 377.29ZM590.831 385.15V364.42H592.871L593.081 366.28H593.171C593.851 365.64 594.631 365.11 595.511 364.69C596.411 364.27 597.311 364.06 598.211 364.06C599.191 364.06 600.051 364.24 600.791 364.6C601.551 364.94 602.181 365.44 602.681 366.1C603.201 366.74 603.591 367.52 603.851 368.44C604.111 369.34 604.241 370.36 604.241 371.5C604.241 372.74 604.061 373.85 603.701 374.83C603.341 375.79 602.851 376.61 602.231 377.29C601.631 377.97 600.931 378.49 600.131 378.85C599.331 379.19 598.491 379.36 597.611 379.36C596.931 379.36 596.191 379.2 595.391 378.88C594.611 378.54 593.901 378.07 593.261 377.47H593.171L593.291 380.23V385.15H590.831ZM597.191 377.29C598.511 377.29 599.591 376.78 600.431 375.76C601.271 374.74 601.691 373.32 601.691 371.5C601.691 370.7 601.611 369.97 601.451 369.31C601.291 368.65 601.041 368.09 600.701 367.63C600.381 367.15 599.961 366.78 599.441 366.52C598.921 366.26 598.301 366.13 597.581 366.13C596.941 366.13 596.251 366.31 595.511 366.67C594.791 367.01 594.051 367.56 593.291 368.32V375.58C593.991 376.2 594.691 376.64 595.391 376.9C596.091 377.16 596.691 377.29 597.191 377.29ZM618.239 379.36C616.679 379.36 615.489 378.92 614.669 378.04C613.849 377.16 613.439 375.85 613.439 374.11V359.65H608.249V357.64H615.899V374.29C615.899 375.37 616.159 376.15 616.679 376.63C617.199 377.09 617.899 377.32 618.779 377.32C619.639 377.32 620.549 377.1 621.509 376.66L622.139 378.49C621.459 378.77 620.839 378.98 620.279 379.12C619.719 379.28 619.039 379.36 618.239 379.36ZM633.498 379V366.43H626.718V364.42H635.958V379H633.498ZM634.458 361.36C633.898 361.36 633.428 361.19 633.048 360.85C632.668 360.49 632.478 360.02 632.478 359.44C632.478 358.86 632.668 358.4 633.048 358.06C633.428 357.7 633.898 357.52 634.458 357.52C635.018 357.52 635.488 357.7 635.868 358.06C636.248 358.4 636.438 358.86 636.438 359.44C636.438 360.02 636.248 360.49 635.868 360.85C635.488 361.19 635.018 361.36 634.458 361.36ZM652.386 379.36C651.246 379.36 650.186 379.19 649.206 378.85C648.246 378.51 647.406 378.02 646.686 377.38C645.966 376.72 645.406 375.92 645.006 374.98C644.606 374.02 644.406 372.94 644.406 371.74C644.406 370.52 644.616 369.44 645.036 368.5C645.476 367.54 646.066 366.73 646.806 366.07C647.546 365.41 648.406 364.91 649.386 364.57C650.386 364.23 651.436 364.06 652.536 364.06C653.736 364.06 654.766 364.27 655.626 364.69C656.506 365.11 657.246 365.61 657.846 366.19L656.616 367.78C656.016 367.26 655.386 366.85 654.726 366.55C654.086 366.25 653.386 366.1 652.626 366.1C651.786 366.1 651.016 366.24 650.316 366.52C649.616 366.78 649.016 367.16 648.516 367.66C648.036 368.16 647.656 368.76 647.376 369.46C647.096 370.14 646.956 370.9 646.956 371.74C646.956 372.58 647.086 373.34 647.346 374.02C647.626 374.7 648.006 375.29 648.486 375.79C648.986 376.27 649.576 376.65 650.256 376.93C650.956 377.19 651.726 377.32 652.566 377.32C653.466 377.32 654.286 377.15 655.026 376.81C655.786 376.45 656.466 376.01 657.066 375.49L658.176 377.08C657.356 377.8 656.456 378.36 655.476 378.76C654.496 379.16 653.466 379.36 652.386 379.36ZM667.374 379.36C666.694 379.36 666.054 379.26 665.454 379.06C664.854 378.88 664.324 378.62 663.864 378.28C663.424 377.92 663.074 377.49 662.814 376.99C662.554 376.47 662.424 375.88 662.424 375.22C662.424 374.4 662.614 373.69 662.994 373.09C663.394 372.47 664.014 371.94 664.854 371.5C665.714 371.06 666.814 370.7 668.154 370.42C669.494 370.14 671.104 369.92 672.984 369.76C672.964 369.26 672.884 368.79 672.744 368.35C672.604 367.91 672.384 367.53 672.084 367.21C671.784 366.87 671.384 366.6 670.884 366.4C670.404 366.2 669.814 366.1 669.114 366.1C668.154 366.1 667.234 366.29 666.354 366.67C665.474 367.03 664.694 367.42 664.014 367.84L663.054 366.16C663.414 365.92 663.834 365.68 664.314 365.44C664.814 365.18 665.334 364.95 665.874 364.75C666.434 364.55 667.024 364.39 667.644 364.27C668.264 364.13 668.894 364.06 669.534 364.06C671.534 364.06 673.014 364.61 673.974 365.71C674.954 366.79 675.444 368.24 675.444 370.06V379H673.434L673.224 377.02H673.134C672.314 377.66 671.404 378.21 670.404 378.67C669.424 379.13 668.414 379.36 667.374 379.36ZM668.034 377.38C668.874 377.38 669.694 377.2 670.494 376.84C671.314 376.46 672.144 375.92 672.984 375.22V371.38C671.424 371.5 670.114 371.67 669.054 371.89C668.014 372.11 667.174 372.38 666.534 372.7C665.914 373 665.474 373.35 665.214 373.75C664.954 374.13 664.824 374.56 664.824 375.04C664.824 375.46 664.914 375.82 665.094 376.12C665.274 376.4 665.504 376.64 665.784 376.84C666.084 377.02 666.424 377.16 666.804 377.26C667.204 377.34 667.614 377.38 668.034 377.38ZM689.802 379.36C688.742 379.36 687.852 379.22 687.132 378.94C686.412 378.64 685.832 378.23 685.392 377.71C684.952 377.17 684.632 376.53 684.432 375.79C684.252 375.05 684.162 374.23 684.162 373.33V366.43H680.052V364.57L684.252 364.42L684.582 359.74H686.622V364.42H693.792V366.43H686.622V373.36C686.622 374.02 686.682 374.6 686.802 375.1C686.922 375.58 687.122 375.99 687.402 376.33C687.682 376.67 688.062 376.93 688.542 377.11C689.022 377.27 689.612 377.35 690.312 377.35C691.012 377.35 691.642 377.29 692.202 377.17C692.762 377.05 693.302 376.89 693.822 376.69L694.362 378.49C693.702 378.73 693.002 378.93 692.262 379.09C691.542 379.27 690.722 379.36 689.802 379.36ZM705.451 379V366.43H698.671V364.42H707.911V379H705.451ZM706.411 361.36C705.851 361.36 705.381 361.19 705.001 360.85C704.621 360.49 704.431 360.02 704.431 359.44C704.431 358.86 704.621 358.4 705.001 358.06C705.381 357.7 705.851 357.52 706.411 357.52C706.971 357.52 707.441 357.7 707.821 358.06C708.201 358.4 708.391 358.86 708.391 359.44C708.391 360.02 708.201 360.49 707.821 360.85C707.441 361.19 706.971 361.36 706.411 361.36ZM722.959 379.36C721.999 379.36 721.079 379.19 720.199 378.85C719.339 378.51 718.579 378.02 717.919 377.38C717.259 376.72 716.729 375.92 716.329 374.98C715.949 374.02 715.759 372.94 715.759 371.74C715.759 370.52 715.949 369.44 716.329 368.5C716.729 367.54 717.259 366.73 717.919 366.07C718.579 365.41 719.339 364.91 720.199 364.57C721.079 364.23 721.999 364.06 722.959 364.06C723.919 364.06 724.829 364.23 725.689 364.57C726.569 364.91 727.339 365.41 727.999 366.07C728.659 366.73 729.179 367.54 729.559 368.5C729.959 369.44 730.159 370.52 730.159 371.74C730.159 372.94 729.959 374.02 729.559 374.98C729.179 375.92 728.659 376.72 727.999 377.38C727.339 378.02 726.569 378.51 725.689 378.85C724.829 379.19 723.919 379.36 722.959 379.36ZM722.959 377.32C723.659 377.32 724.289 377.19 724.849 376.93C725.429 376.65 725.919 376.27 726.319 375.79C726.739 375.29 727.059 374.7 727.279 374.02C727.499 373.34 727.609 372.58 727.609 371.74C727.609 370.9 727.499 370.14 727.279 369.46C727.059 368.76 726.739 368.16 726.319 367.66C725.919 367.16 725.429 366.78 724.849 366.52C724.289 366.24 723.659 366.1 722.959 366.1C722.259 366.1 721.619 366.24 721.039 366.52C720.479 366.78 719.989 367.16 719.569 367.66C719.169 368.16 718.859 368.76 718.639 369.46C718.419 370.14 718.309 370.9 718.309 371.74C718.309 372.58 718.419 373.34 718.639 374.02C718.859 374.7 719.169 375.29 719.569 375.79C719.989 376.27 720.479 376.65 721.039 376.93C721.619 377.19 722.259 377.32 722.959 377.32ZM734.737 379V364.42H736.777L736.987 366.91H737.107C737.867 366.09 738.687 365.41 739.567 364.87C740.447 364.33 741.457 364.06 742.597 364.06C744.337 364.06 745.607 364.56 746.407 365.56C747.227 366.54 747.637 368 747.637 369.94V379H745.177V370.27C745.177 368.89 744.917 367.87 744.397 367.21C743.877 366.53 743.017 366.19 741.817 366.19C741.377 366.19 740.967 366.25 740.587 366.37C740.227 366.47 739.867 366.63 739.507 366.85C739.147 367.07 738.777 367.35 738.397 367.69C738.017 368.01 737.617 368.39 737.197 368.83V379H734.737Z" fill="white"/>
<rect x="180" y="509" width="274" height="96" stroke="#06B6EF" stroke-width="4"/>
<path d="M212.13 568V548.32H218.07C219.15 548.32 220.14 548.42 221.04 548.62C221.94 548.82 222.71 549.15 223.35 549.61C223.99 550.05 224.48 550.64 224.82 551.38C225.18 552.12 225.36 553.03 225.36 554.11C225.36 555.15 225.18 556.05 224.82 556.81C224.48 557.57 223.98 558.2 223.32 558.7C222.68 559.2 221.91 559.58 221.01 559.84C220.13 560.08 219.15 560.2 218.07 560.2H214.62V568H212.13ZM214.62 558.16H217.77C219.51 558.16 220.79 557.84 221.61 557.2C222.43 556.54 222.84 555.51 222.84 554.11C222.84 552.69 222.42 551.71 221.58 551.17C220.74 550.61 219.47 550.33 217.77 550.33H214.62V558.16ZM231.439 568V553.42H233.479L233.689 556.87H233.779C234.539 555.69 235.469 554.76 236.569 554.08C237.689 553.4 238.929 553.06 240.289 553.06C240.829 553.06 241.329 553.11 241.789 553.21C242.249 553.29 242.709 553.44 243.169 553.66L242.599 555.79C242.079 555.61 241.639 555.48 241.279 555.4C240.939 555.32 240.479 555.28 239.899 555.28C238.799 555.28 237.739 555.6 236.719 556.24C235.719 556.86 234.779 557.93 233.899 559.45V568H231.439ZM254.047 568.36C253.087 568.36 252.167 568.19 251.287 567.85C250.427 567.51 249.667 567.02 249.007 566.38C248.347 565.72 247.817 564.92 247.417 563.98C247.037 563.02 246.847 561.94 246.847 560.74C246.847 559.52 247.037 558.44 247.417 557.5C247.817 556.54 248.347 555.73 249.007 555.07C249.667 554.41 250.427 553.91 251.287 553.57C252.167 553.23 253.087 553.06 254.047 553.06C255.007 553.06 255.917 553.23 256.777 553.57C257.657 553.91 258.427 554.41 259.087 555.07C259.747 555.73 260.267 556.54 260.647 557.5C261.047 558.44 261.247 559.52 261.247 560.74C261.247 561.94 261.047 563.02 260.647 563.98C260.267 564.92 259.747 565.72 259.087 566.38C258.427 567.02 257.657 567.51 256.777 567.85C255.917 568.19 255.007 568.36 254.047 568.36ZM254.047 566.32C254.747 566.32 255.377 566.19 255.937 565.93C256.517 565.65 257.007 565.27 257.407 564.79C257.827 564.29 258.147 563.7 258.367 563.02C258.587 562.34 258.697 561.58 258.697 560.74C258.697 559.9 258.587 559.14 258.367 558.46C258.147 557.76 257.827 557.16 257.407 556.66C257.007 556.16 256.517 555.78 255.937 555.52C255.377 555.24 254.747 555.1 254.047 555.1C253.347 555.1 252.707 555.24 252.127 555.52C251.567 555.78 251.077 556.16 250.657 556.66C250.257 557.16 249.947 557.76 249.727 558.46C249.507 559.14 249.397 559.9 249.397 560.74C249.397 561.58 249.507 562.34 249.727 563.02C249.947 563.7 250.257 564.29 250.657 564.79C251.077 565.27 251.567 565.65 252.127 565.93C252.707 566.19 253.347 566.32 254.047 566.32ZM270.295 568V555.43H266.125V553.57L270.295 553.42V552.19C270.295 550.41 270.765 548.98 271.705 547.9C272.665 546.82 274.155 546.28 276.175 546.28C277.615 546.28 279.015 546.56 280.375 547.12L279.805 548.98C279.205 548.7 278.645 548.52 278.125 548.44C277.625 548.34 277.055 548.29 276.415 548.29C275.095 548.29 274.145 548.63 273.565 549.31C273.005 549.97 272.725 550.9 272.725 552.1V553.42H278.845V555.43H272.725V568H270.295ZM290.503 568V555.43H283.723V553.42H292.963V568H290.503ZM291.463 550.36C290.903 550.36 290.433 550.19 290.053 549.85C289.673 549.49 289.483 549.02 289.483 548.44C289.483 547.86 289.673 547.4 290.053 547.06C290.433 546.7 290.903 546.52 291.463 546.52C292.023 546.52 292.493 546.7 292.873 547.06C293.253 547.4 293.443 547.86 293.443 548.44C293.443 549.02 293.253 549.49 292.873 549.85C292.493 550.19 292.023 550.36 291.463 550.36ZM311.222 568.36C309.662 568.36 308.472 567.92 307.652 567.04C306.832 566.16 306.422 564.85 306.422 563.11V548.65H301.232V546.64H308.882V563.29C308.882 564.37 309.142 565.15 309.662 565.63C310.182 566.09 310.882 566.32 311.762 566.32C312.622 566.32 313.532 566.1 314.492 565.66L315.122 567.49C314.442 567.77 313.822 567.98 313.262 568.12C312.702 568.28 312.022 568.36 311.222 568.36ZM326.9 568.36C325.8 568.36 324.77 568.19 323.81 567.85C322.87 567.51 322.04 567.01 321.32 566.35C320.62 565.69 320.06 564.89 319.64 563.95C319.24 562.99 319.04 561.9 319.04 560.68C319.04 559.5 319.24 558.44 319.64 557.5C320.06 556.56 320.61 555.76 321.29 555.1C321.99 554.44 322.78 553.94 323.66 553.6C324.56 553.24 325.5 553.06 326.48 553.06C327.52 553.06 328.45 553.23 329.27 553.57C330.11 553.89 330.81 554.35 331.37 554.95C331.95 555.55 332.39 556.27 332.69 557.11C332.99 557.95 333.14 558.88 333.14 559.9C333.14 560.18 333.13 560.45 333.11 560.71C333.09 560.97 333.06 561.2 333.02 561.4H321.53C321.69 563.06 322.29 564.31 323.33 565.15C324.39 565.97 325.68 566.38 327.2 566.38C328.08 566.38 328.87 566.26 329.57 566.02C330.29 565.76 330.98 565.42 331.64 565L332.54 566.62C331.82 567.1 330.99 567.51 330.05 567.85C329.13 568.19 328.08 568.36 326.9 568.36ZM326.54 555.01C325.94 555.01 325.36 555.11 324.8 555.31C324.26 555.51 323.77 555.8 323.33 556.18C322.89 556.54 322.52 557 322.22 557.56C321.92 558.12 321.71 558.76 321.59 559.48H330.89C330.79 557.98 330.35 556.86 329.57 556.12C328.81 555.38 327.8 555.01 326.54 555.01ZM356.037 568V548.32H361.977C363.057 548.32 364.047 548.42 364.947 548.62C365.847 548.82 366.617 549.15 367.257 549.61C367.897 550.05 368.387 550.64 368.727 551.38C369.087 552.12 369.267 553.03 369.267 554.11C369.267 555.15 369.087 556.05 368.727 556.81C368.387 557.57 367.887 558.2 367.227 558.7C366.587 559.2 365.817 559.58 364.917 559.84C364.037 560.08 363.057 560.2 361.977 560.2H358.527V568H356.037ZM358.527 558.16H361.677C363.417 558.16 364.697 557.84 365.517 557.2C366.337 556.54 366.747 555.51 366.747 554.11C366.747 552.69 366.327 551.71 365.487 551.17C364.647 550.61 363.377 550.33 361.677 550.33H358.527V558.16ZM378.345 568.36C377.665 568.36 377.025 568.26 376.425 568.06C375.825 567.88 375.295 567.62 374.835 567.28C374.395 566.92 374.045 566.49 373.785 565.99C373.525 565.47 373.395 564.88 373.395 564.22C373.395 563.4 373.585 562.69 373.965 562.09C374.365 561.47 374.985 560.94 375.825 560.5C376.685 560.06 377.785 559.7 379.125 559.42C380.465 559.14 382.075 558.92 383.955 558.76C383.935 558.26 383.855 557.79 383.715 557.35C383.575 556.91 383.355 556.53 383.055 556.21C382.755 555.87 382.355 555.6 381.855 555.4C381.375 555.2 380.785 555.1 380.085 555.1C379.125 555.1 378.205 555.29 377.325 555.67C376.445 556.03 375.665 556.42 374.985 556.84L374.025 555.16C374.385 554.92 374.805 554.68 375.285 554.44C375.785 554.18 376.305 553.95 376.845 553.75C377.405 553.55 377.995 553.39 378.615 553.27C379.235 553.13 379.865 553.06 380.505 553.06C382.505 553.06 383.985 553.61 384.945 554.71C385.925 555.79 386.415 557.24 386.415 559.06V568H384.405L384.195 566.02H384.105C383.285 566.66 382.375 567.21 381.375 567.67C380.395 568.13 379.385 568.36 378.345 568.36ZM379.005 566.38C379.845 566.38 380.665 566.2 381.465 565.84C382.285 565.46 383.115 564.92 383.955 564.22V560.38C382.395 560.5 381.085 560.67 380.025 560.89C378.985 561.11 378.145 561.38 377.505 561.7C376.885 562 376.445 562.35 376.185 562.75C375.925 563.13 375.795 563.56 375.795 564.04C375.795 564.46 375.885 564.82 376.065 565.12C376.245 565.4 376.475 565.64 376.755 565.84C377.055 566.02 377.395 566.16 377.775 566.26C378.175 566.34 378.585 566.38 379.005 566.38ZM397.833 574.72C395.693 574.72 394.033 574.37 392.853 573.67C391.693 572.97 391.113 571.97 391.113 570.67C391.113 570.09 391.313 569.52 391.713 568.96C392.133 568.4 392.733 567.89 393.513 567.43V567.31C393.113 567.09 392.763 566.79 392.463 566.41C392.163 566.03 392.013 565.53 392.013 564.91C392.013 564.45 392.163 563.98 392.463 563.5C392.763 563 393.193 562.56 393.753 562.18V562.06C393.253 561.68 392.823 561.18 392.463 560.56C392.123 559.92 391.953 559.16 391.953 558.28C391.953 557.48 392.103 556.76 392.403 556.12C392.723 555.48 393.143 554.94 393.663 554.5C394.183 554.04 394.783 553.69 395.463 553.45C396.163 553.19 396.903 553.06 397.683 553.06C398.483 553.06 399.203 553.18 399.843 553.42H405.873V555.43H402.093C402.433 555.77 402.723 556.2 402.963 556.72C403.203 557.24 403.323 557.79 403.323 558.37C403.323 559.15 403.173 559.85 402.873 560.47C402.593 561.09 402.193 561.62 401.673 562.06C401.173 562.48 400.573 562.81 399.873 563.05C399.193 563.27 398.463 563.38 397.683 563.38C397.303 563.38 396.893 563.34 396.453 563.26C396.033 563.16 395.623 563.02 395.223 562.84C394.463 563.32 394.083 563.88 394.083 564.52C394.083 565.1 394.343 565.53 394.863 565.81C395.403 566.07 396.153 566.2 397.113 566.2H400.383C402.263 566.2 403.653 566.46 404.553 566.98C405.473 567.5 405.933 568.38 405.933 569.62C405.933 570.3 405.743 570.95 405.363 571.57C404.983 572.19 404.443 572.73 403.743 573.19C403.043 573.65 402.193 574.02 401.193 574.3C400.193 574.58 399.073 574.72 397.833 574.72ZM397.683 561.73C398.623 561.73 399.413 561.42 400.053 560.8C400.713 560.18 401.043 559.34 401.043 558.28C401.043 557.78 400.953 557.32 400.773 556.9C400.593 556.48 400.353 556.12 400.053 555.82C399.753 555.52 399.393 555.29 398.973 555.13C398.573 554.95 398.143 554.86 397.683 554.86C397.223 554.86 396.783 554.95 396.363 555.13C395.963 555.29 395.613 555.52 395.313 555.82C395.013 556.12 394.773 556.48 394.593 556.9C394.413 557.32 394.323 557.78 394.323 558.28C394.323 559.34 394.653 560.18 395.313 560.8C395.973 561.42 396.763 561.73 397.683 561.73ZM398.013 572.92C398.853 572.92 399.613 572.84 400.293 572.68C400.973 572.52 401.553 572.3 402.033 572.02C402.513 571.76 402.873 571.45 403.113 571.09C403.373 570.75 403.503 570.39 403.503 570.01C403.503 569.31 403.223 568.84 402.663 568.6C402.123 568.36 401.293 568.24 400.173 568.24H397.323C396.903 568.24 396.503 568.22 396.123 568.18C395.763 568.16 395.423 568.1 395.103 568C394.403 568.38 393.913 568.77 393.633 569.17C393.373 569.59 393.243 570.01 393.243 570.43C393.243 571.19 393.643 571.79 394.443 572.23C395.263 572.69 396.453 572.92 398.013 572.92ZM416.841 568.36C415.741 568.36 414.711 568.19 413.751 567.85C412.811 567.51 411.981 567.01 411.261 566.35C410.561 565.69 410.001 564.89 409.581 563.95C409.181 562.99 408.981 561.9 408.981 560.68C408.981 559.5 409.181 558.44 409.581 557.5C410.001 556.56 410.551 555.76 411.231 555.1C411.931 554.44 412.721 553.94 413.601 553.6C414.501 553.24 415.441 553.06 416.421 553.06C417.461 553.06 418.391 553.23 419.211 553.57C420.051 553.89 420.751 554.35 421.311 554.95C421.891 555.55 422.331 556.27 422.631 557.11C422.931 557.95 423.081 558.88 423.081 559.9C423.081 560.18 423.071 560.45 423.051 560.71C423.031 560.97 423.001 561.2 422.961 561.4H411.471C411.631 563.06 412.231 564.31 413.271 565.15C414.331 565.97 415.621 566.38 417.141 566.38C418.021 566.38 418.811 566.26 419.511 566.02C420.231 565.76 420.921 565.42 421.581 565L422.481 566.62C421.761 567.1 420.931 567.51 419.991 567.85C419.071 568.19 418.021 568.36 416.841 568.36ZM416.481 555.01C415.881 555.01 415.301 555.11 414.741 555.31C414.201 555.51 413.711 555.8 413.271 556.18C412.831 556.54 412.461 557 412.161 557.56C411.861 558.12 411.651 558.76 411.531 559.48H420.831C420.731 557.98 420.291 556.86 419.511 556.12C418.751 555.38 417.741 555.01 416.481 555.01Z" fill="white"/>
<rect x="514" y="509" width="274" height="96" stroke="#06B6EF" stroke-width="4"/>
<path d="M617.393 568V548.32H619.913V556.57H628.133V548.32H630.653V568H628.133V558.73H619.913V568H617.393ZM642.012 568.36C641.052 568.36 640.132 568.19 639.252 567.85C638.392 567.51 637.632 567.02 636.972 566.38C636.312 565.72 635.782 564.92 635.382 563.98C635.002 563.02 634.812 561.94 634.812 560.74C634.812 559.52 635.002 558.44 635.382 557.5C635.782 556.54 636.312 555.73 636.972 555.07C637.632 554.41 638.392 553.91 639.252 553.57C640.132 553.23 641.052 553.06 642.012 553.06C642.972 553.06 643.882 553.23 644.742 553.57C645.622 553.91 646.392 554.41 647.052 555.07C647.712 555.73 648.232 556.54 648.612 557.5C649.012 558.44 649.212 559.52 649.212 560.74C649.212 561.94 649.012 563.02 648.612 563.98C648.232 564.92 647.712 565.72 647.052 566.38C646.392 567.02 645.622 567.51 644.742 567.85C643.882 568.19 642.972 568.36 642.012 568.36ZM642.012 566.32C642.712 566.32 643.342 566.19 643.902 565.93C644.482 565.65 644.972 565.27 645.372 564.79C645.792 564.29 646.112 563.7 646.332 563.02C646.552 562.34 646.662 561.58 646.662 560.74C646.662 559.9 646.552 559.14 646.332 558.46C646.112 557.76 645.792 557.16 645.372 556.66C644.972 556.16 644.482 555.78 643.902 555.52C643.342 555.24 642.712 555.1 642.012 555.1C641.312 555.1 640.672 555.24 640.092 555.52C639.532 555.78 639.042 556.16 638.622 556.66C638.222 557.16 637.912 557.76 637.692 558.46C637.472 559.14 637.362 559.9 637.362 560.74C637.362 561.58 637.472 562.34 637.692 563.02C637.912 563.7 638.222 564.29 638.622 564.79C639.042 565.27 639.532 565.65 640.092 565.93C640.672 566.19 641.312 566.32 642.012 566.32ZM652.74 568V553.42H654.72L654.93 555.34H654.99C655.37 554.66 655.81 554.11 656.31 553.69C656.81 553.27 657.48 553.06 658.32 553.06C659.74 553.06 660.66 553.9 661.08 555.58C661.5 554.8 661.96 554.19 662.46 553.75C662.98 553.29 663.66 553.06 664.5 553.06C665.52 553.06 666.31 553.45 666.87 554.23C667.45 554.99 667.74 556.1 667.74 557.56V568H665.28V557.74C665.28 556.04 664.76 555.19 663.72 555.19C663.2 555.19 662.78 555.38 662.46 555.76C662.14 556.12 661.78 556.68 661.38 557.44V568H659.1V557.74C659.1 556.9 658.98 556.27 658.74 555.85C658.52 555.41 658.14 555.19 657.6 555.19C657.08 555.19 656.64 555.38 656.28 555.76C655.92 556.12 655.56 556.68 655.2 557.44V568H652.74ZM678.888 568.36C677.788 568.36 676.758 568.19 675.798 567.85C674.858 567.51 674.028 567.01 673.308 566.35C672.608 565.69 672.048 564.89 671.628 563.95C671.228 562.99 671.028 561.9 671.028 560.68C671.028 559.5 671.228 558.44 671.628 557.5C672.048 556.56 672.598 555.76 673.278 555.1C673.978 554.44 674.768 553.94 675.648 553.6C676.548 553.24 677.488 553.06 678.468 553.06C679.508 553.06 680.438 553.23 681.258 553.57C682.098 553.89 682.798 554.35 683.358 554.95C683.938 555.55 684.378 556.27 684.678 557.11C684.978 557.95 685.128 558.88 685.128 559.9C685.128 560.18 685.118 560.45 685.098 560.71C685.078 560.97 685.048 561.2 685.008 561.4H673.518C673.678 563.06 674.278 564.31 675.318 565.15C676.378 565.97 677.668 566.38 679.188 566.38C680.068 566.38 680.858 566.26 681.558 566.02C682.278 565.76 682.968 565.42 683.628 565L684.528 566.62C683.808 567.1 682.978 567.51 682.038 567.85C681.118 568.19 680.068 568.36 678.888 568.36ZM678.528 555.01C677.928 555.01 677.348 555.11 676.788 555.31C676.248 555.51 675.758 555.8 675.318 556.18C674.878 556.54 674.508 557 674.208 557.56C673.908 558.12 673.698 558.76 673.578 559.48H682.878C682.778 557.98 682.338 556.86 681.558 556.12C680.798 555.38 679.788 555.01 678.528 555.01Z" fill="white"/>
<rect x="848" y="509" width="274" height="96" stroke="#06B6EF" stroke-width="4"/>
<path d="M952.023 568V548.32H958.143C959.143 548.32 960.063 548.42 960.903 548.62C961.743 548.8 962.463 549.11 963.063 549.55C963.683 549.99 964.163 550.56 964.503 551.26C964.843 551.96 965.013 552.82 965.013 553.84C965.013 555.38 964.613 556.61 963.813 557.53C963.013 558.45 961.943 559.08 960.603 559.42L965.613 568H962.763L958.023 559.69H954.513V568H952.023ZM954.513 557.65H957.783C959.323 557.65 960.493 557.34 961.293 556.72C962.113 556.08 962.523 555.12 962.523 553.84C962.523 552.54 962.113 551.63 961.293 551.11C960.493 550.59 959.323 550.33 957.783 550.33H954.513V557.65ZM976.912 568.36C975.812 568.36 974.782 568.19 973.822 567.85C972.882 567.51 972.052 567.01 971.332 566.35C970.632 565.69 970.072 564.89 969.652 563.95C969.252 562.99 969.052 561.9 969.052 560.68C969.052 559.5 969.252 558.44 969.652 557.5C970.072 556.56 970.622 555.76 971.302 555.1C972.002 554.44 972.792 553.94 973.672 553.6C974.572 553.24 975.512 553.06 976.492 553.06C977.532 553.06 978.462 553.23 979.282 553.57C980.122 553.89 980.822 554.35 981.382 554.95C981.962 555.55 982.402 556.27 982.702 557.11C983.002 557.95 983.152 558.88 983.152 559.9C983.152 560.18 983.142 560.45 983.122 560.71C983.102 560.97 983.072 561.2 983.032 561.4H971.542C971.702 563.06 972.302 564.31 973.342 565.15C974.402 565.97 975.692 566.38 977.212 566.38C978.092 566.38 978.882 566.26 979.582 566.02C980.302 565.76 980.992 565.42 981.652 565L982.552 566.62C981.832 567.1 981.002 567.51 980.062 567.85C979.142 568.19 978.092 568.36 976.912 568.36ZM976.552 555.01C975.952 555.01 975.372 555.11 974.812 555.31C974.272 555.51 973.782 555.8 973.342 556.18C972.902 556.54 972.532 557 972.232 557.56C971.932 558.12 971.722 558.76 971.602 559.48H980.902C980.802 557.98 980.362 556.86 979.582 556.12C978.822 555.38 977.812 555.01 976.552 555.01ZM992.38 568.36C991.7 568.36 991.06 568.26 990.46 568.06C989.86 567.88 989.33 567.62 988.87 567.28C988.43 566.92 988.08 566.49 987.82 565.99C987.56 565.47 987.43 564.88 987.43 564.22C987.43 563.4 987.62 562.69 988 562.09C988.4 561.47 989.02 560.94 989.86 560.5C990.72 560.06 991.82 559.7 993.16 559.42C994.5 559.14 996.11 558.92 997.99 558.76C997.97 558.26 997.89 557.79 997.75 557.35C997.61 556.91 997.39 556.53 997.09 556.21C996.79 555.87 996.39 555.6 995.89 555.4C995.41 555.2 994.82 555.1 994.12 555.1C993.16 555.1 992.24 555.29 991.36 555.67C990.48 556.03 989.7 556.42 989.02 556.84L988.06 555.16C988.42 554.92 988.84 554.68 989.32 554.44C989.82 554.18 990.34 553.95 990.88 553.75C991.44 553.55 992.03 553.39 992.65 553.27C993.27 553.13 993.9 553.06 994.54 553.06C996.54 553.06 998.02 553.61 998.98 554.71C999.96 555.79 1000.45 557.24 1000.45 559.06V568H998.44L998.23 566.02H998.14C997.32 566.66 996.41 567.21 995.41 567.67C994.43 568.13 993.42 568.36 992.38 568.36ZM993.04 566.38C993.88 566.38 994.7 566.2 995.5 565.84C996.32 565.46 997.15 564.92 997.99 564.22V560.38C996.43 560.5 995.12 560.67 994.06 560.89C993.02 561.11 992.18 561.38 991.54 561.7C990.92 562 990.48 562.35 990.22 562.75C989.96 563.13 989.83 563.56 989.83 564.04C989.83 564.46 989.92 564.82 990.1 565.12C990.28 565.4 990.51 565.64 990.79 565.84C991.09 566.02 991.43 566.16 991.81 566.26C992.21 566.34 992.62 566.38 993.04 566.38ZM1011.12 568.36C1010.16 568.36 1009.29 568.19 1008.51 567.85C1007.75 567.51 1007.09 567.02 1006.53 566.38C1005.97 565.72 1005.54 564.92 1005.24 563.98C1004.94 563.04 1004.79 561.96 1004.79 560.74C1004.79 559.56 1004.97 558.5 1005.33 557.56C1005.71 556.6 1006.2 555.79 1006.8 555.13C1007.42 554.47 1008.13 553.96 1008.93 553.6C1009.73 553.24 1010.56 553.06 1011.42 553.06C1012.3 553.06 1013.08 553.23 1013.76 553.57C1014.46 553.89 1015.13 554.35 1015.77 554.95H1015.86L1015.74 552.25V546.64H1018.2V568H1016.16L1015.95 566.08H1015.86C1015.26 566.7 1014.54 567.24 1013.7 567.7C1012.88 568.14 1012.02 568.36 1011.12 568.36ZM1011.63 566.29C1013.07 566.29 1014.44 565.56 1015.74 564.1V556.84C1015.08 556.22 1014.43 555.78 1013.79 555.52C1013.17 555.26 1012.54 555.13 1011.9 555.13C1011.26 555.13 1010.66 555.27 1010.1 555.55C1009.56 555.81 1009.08 556.19 1008.66 556.69C1008.26 557.17 1007.94 557.75 1007.7 558.43C1007.46 559.11 1007.34 559.87 1007.34 560.71C1007.34 562.47 1007.71 563.84 1008.45 564.82C1009.21 565.8 1010.27 566.29 1011.63 566.29Z" fill="white"/>
<rect x="956" y="320" width="274" height="96" stroke="#B3EAB2" stroke-width="4"/>
<path d="M1037.78 379V361.42H1031.3V359.32H1046.78V361.42H1040.3V379H1037.78ZM1057.03 379.36C1056.07 379.36 1055.15 379.19 1054.27 378.85C1053.41 378.51 1052.65 378.02 1051.99 377.38C1051.33 376.72 1050.8 375.92 1050.4 374.98C1050.02 374.02 1049.83 372.94 1049.83 371.74C1049.83 370.52 1050.02 369.44 1050.4 368.5C1050.8 367.54 1051.33 366.73 1051.99 366.07C1052.65 365.41 1053.41 364.91 1054.27 364.57C1055.15 364.23 1056.07 364.06 1057.03 364.06C1057.99 364.06 1058.9 364.23 1059.76 364.57C1060.64 364.91 1061.41 365.41 1062.07 366.07C1062.73 366.73 1063.25 367.54 1063.63 368.5C1064.03 369.44 1064.23 370.52 1064.23 371.74C1064.23 372.94 1064.03 374.02 1063.63 374.98C1063.25 375.92 1062.73 376.72 1062.07 377.38C1061.41 378.02 1060.64 378.51 1059.76 378.85C1058.9 379.19 1057.99 379.36 1057.03 379.36ZM1057.03 377.32C1057.73 377.32 1058.36 377.19 1058.92 376.93C1059.5 376.65 1059.99 376.27 1060.39 375.79C1060.81 375.29 1061.13 374.7 1061.35 374.02C1061.57 373.34 1061.68 372.58 1061.68 371.74C1061.68 370.9 1061.57 370.14 1061.35 369.46C1061.13 368.76 1060.81 368.16 1060.39 367.66C1059.99 367.16 1059.5 366.78 1058.92 366.52C1058.36 366.24 1057.73 366.1 1057.03 366.1C1056.33 366.1 1055.69 366.24 1055.11 366.52C1054.55 366.78 1054.06 367.16 1053.64 367.66C1053.24 368.16 1052.93 368.76 1052.71 369.46C1052.49 370.14 1052.38 370.9 1052.38 371.74C1052.38 372.58 1052.49 373.34 1052.71 374.02C1052.93 374.7 1053.24 375.29 1053.64 375.79C1054.06 376.27 1054.55 376.65 1055.11 376.93C1055.69 377.19 1056.33 377.32 1057.03 377.32ZM1075.02 379.36C1074.06 379.36 1073.14 379.19 1072.26 378.85C1071.4 378.51 1070.64 378.02 1069.98 377.38C1069.32 376.72 1068.79 375.92 1068.39 374.98C1068.01 374.02 1067.82 372.94 1067.82 371.74C1067.82 370.52 1068.01 369.44 1068.39 368.5C1068.79 367.54 1069.32 366.73 1069.98 366.07C1070.64 365.41 1071.4 364.91 1072.26 364.57C1073.14 364.23 1074.06 364.06 1075.02 364.06C1075.98 364.06 1076.89 364.23 1077.75 364.57C1078.63 364.91 1079.4 365.41 1080.06 366.07C1080.72 366.73 1081.24 367.54 1081.62 368.5C1082.02 369.44 1082.22 370.52 1082.22 371.74C1082.22 372.94 1082.02 374.02 1081.62 374.98C1081.24 375.92 1080.72 376.72 1080.06 377.38C1079.4 378.02 1078.63 378.51 1077.75 378.85C1076.89 379.19 1075.98 379.36 1075.02 379.36ZM1075.02 377.32C1075.72 377.32 1076.35 377.19 1076.91 376.93C1077.49 376.65 1077.98 376.27 1078.38 375.79C1078.8 375.29 1079.12 374.7 1079.34 374.02C1079.56 373.34 1079.67 372.58 1079.67 371.74C1079.67 370.9 1079.56 370.14 1079.34 369.46C1079.12 368.76 1078.8 368.16 1078.38 367.66C1077.98 367.16 1077.49 366.78 1076.91 366.52C1076.35 366.24 1075.72 366.1 1075.02 366.1C1074.32 366.1 1073.68 366.24 1073.1 366.52C1072.54 366.78 1072.05 367.16 1071.63 367.66C1071.23 368.16 1070.92 368.76 1070.7 369.46C1070.48 370.14 1070.37 370.9 1070.37 371.74C1070.37 372.58 1070.48 373.34 1070.7 374.02C1070.92 374.7 1071.23 375.29 1071.63 375.79C1072.05 376.27 1072.54 376.65 1073.1 376.93C1073.68 377.19 1074.32 377.32 1075.02 377.32ZM1096.22 379.36C1094.66 379.36 1093.47 378.92 1092.65 378.04C1091.83 377.16 1091.42 375.85 1091.42 374.11V359.65H1086.23V357.64H1093.88V374.29C1093.88 375.37 1094.14 376.15 1094.66 376.63C1095.18 377.09 1095.88 377.32 1096.76 377.32C1097.62 377.32 1098.53 377.1 1099.49 376.66L1100.12 378.49C1099.44 378.77 1098.82 378.98 1098.26 379.12C1097.7 379.28 1097.02 379.36 1096.22 379.36ZM1111.59 379.36C1110.89 379.36 1110.13 379.19 1109.31 378.85C1108.51 378.49 1107.76 378 1107.06 377.38H1106.97L1106.76 379H1104.78V357.64H1107.24V363.46L1107.15 366.28H1107.24C1107.9 365.6 1108.66 365.06 1109.52 364.66C1110.4 364.26 1111.27 364.06 1112.13 364.06C1113.11 364.06 1113.98 364.24 1114.74 364.6C1115.5 364.94 1116.13 365.44 1116.63 366.1C1117.15 366.74 1117.54 367.52 1117.8 368.44C1118.06 369.34 1118.19 370.35 1118.19 371.47C1118.19 372.71 1118.01 373.82 1117.65 374.8C1117.29 375.78 1116.8 376.61 1116.18 377.29C1115.58 377.97 1114.88 378.49 1114.08 378.85C1113.28 379.19 1112.45 379.36 1111.59 379.36ZM1111.2 377.29C1111.84 377.29 1112.43 377.16 1112.97 376.9C1113.51 376.62 1113.98 376.24 1114.38 375.76C1114.78 375.26 1115.09 374.65 1115.31 373.93C1115.53 373.21 1115.64 372.4 1115.64 371.5C1115.64 370.7 1115.56 369.97 1115.4 369.31C1115.24 368.65 1114.99 368.09 1114.65 367.63C1114.33 367.15 1113.91 366.78 1113.39 366.52C1112.87 366.26 1112.25 366.13 1111.53 366.13C1110.89 366.13 1110.2 366.31 1109.46 366.67C1108.74 367.01 1108 367.56 1107.24 368.32V375.58C1107.94 376.2 1108.64 376.64 1109.34 376.9C1110.06 377.16 1110.68 377.29 1111.2 377.29ZM1127.36 379.36C1126.68 379.36 1126.04 379.26 1125.44 379.06C1124.84 378.88 1124.31 378.62 1123.85 378.28C1123.41 377.92 1123.06 377.49 1122.8 376.99C1122.54 376.47 1122.41 375.88 1122.41 375.22C1122.41 374.4 1122.6 373.69 1122.98 373.09C1123.38 372.47 1124 371.94 1124.84 371.5C1125.7 371.06 1126.8 370.7 1128.14 370.42C1129.48 370.14 1131.09 369.92 1132.97 369.76C1132.95 369.26 1132.87 368.79 1132.73 368.35C1132.59 367.91 1132.37 367.53 1132.07 367.21C1131.77 366.87 1131.37 366.6 1130.87 366.4C1130.39 366.2 1129.8 366.1 1129.1 366.1C1128.14 366.1 1127.22 366.29 1126.34 366.67C1125.46 367.03 1124.68 367.42 1124 367.84L1123.04 366.16C1123.4 365.92 1123.82 365.68 1124.3 365.44C1124.8 365.18 1125.32 364.95 1125.86 364.75C1126.42 364.55 1127.01 364.39 1127.63 364.27C1128.25 364.13 1128.88 364.06 1129.52 364.06C1131.52 364.06 1133 364.61 1133.96 365.71C1134.94 366.79 1135.43 368.24 1135.43 370.06V379H1133.42L1133.21 377.02H1133.12C1132.3 377.66 1131.39 378.21 1130.39 378.67C1129.41 379.13 1128.4 379.36 1127.36 379.36ZM1128.02 377.38C1128.86 377.38 1129.68 377.2 1130.48 376.84C1131.3 376.46 1132.13 375.92 1132.97 375.22V371.38C1131.41 371.5 1130.1 371.67 1129.04 371.89C1128 372.11 1127.16 372.38 1126.52 372.7C1125.9 373 1125.46 373.35 1125.2 373.75C1124.94 374.13 1124.81 374.56 1124.81 375.04C1124.81 375.46 1124.9 375.82 1125.08 376.12C1125.26 376.4 1125.49 376.64 1125.77 376.84C1126.07 377.02 1126.41 377.16 1126.79 377.26C1127.19 377.34 1127.6 377.38 1128.02 377.38ZM1142.35 379V364.42H1144.39L1144.6 367.87H1144.69C1145.45 366.69 1146.38 365.76 1147.48 365.08C1148.6 364.4 1149.84 364.06 1151.2 364.06C1151.74 364.06 1152.24 364.11 1152.7 364.21C1153.16 364.29 1153.62 364.44 1154.08 364.66L1153.51 366.79C1152.99 366.61 1152.55 366.48 1152.19 366.4C1151.85 366.32 1151.39 366.28 1150.81 366.28C1149.71 366.28 1148.65 366.6 1147.63 367.24C1146.63 367.86 1145.69 368.93 1144.81 370.45V379H1142.35Z" fill="white"/>
<rect x="119" y="701" width="335" height="96" stroke="#B3EAB2" stroke-width="4"/>
<path d="M163.642 760V740.32H169.582C170.662 740.32 171.652 740.42 172.552 740.62C173.452 740.82 174.222 741.15 174.862 741.61C175.502 742.05 175.992 742.64 176.332 743.38C176.692 744.12 176.872 745.03 176.872 746.11C176.872 747.15 176.692 748.05 176.332 748.81C175.992 749.57 175.492 750.2 174.832 750.7C174.192 751.2 173.422 751.58 172.522 751.84C171.642 752.08 170.662 752.2 169.582 752.2H166.132V760H163.642ZM166.132 750.16H169.282C171.022 750.16 172.302 749.84 173.122 749.2C173.942 748.54 174.352 747.51 174.352 746.11C174.352 744.69 173.932 743.71 173.092 743.17C172.252 742.61 170.982 742.33 169.282 742.33H166.132V750.16ZM182.95 760V745.42H184.99L185.2 748.87H185.29C186.05 747.69 186.98 746.76 188.08 746.08C189.2 745.4 190.44 745.06 191.8 745.06C192.34 745.06 192.84 745.11 193.3 745.21C193.76 745.29 194.22 745.44 194.68 745.66L194.11 747.79C193.59 747.61 193.15 747.48 192.79 747.4C192.45 747.32 191.99 747.28 191.41 747.28C190.31 747.28 189.25 747.6 188.23 748.24C187.23 748.86 186.29 749.93 185.41 751.45V760H182.95ZM205.559 760.36C204.599 760.36 203.679 760.19 202.799 759.85C201.939 759.51 201.179 759.02 200.519 758.38C199.859 757.72 199.329 756.92 198.929 755.98C198.549 755.02 198.359 753.94 198.359 752.74C198.359 751.52 198.549 750.44 198.929 749.5C199.329 748.54 199.859 747.73 200.519 747.07C201.179 746.41 201.939 745.91 202.799 745.57C203.679 745.23 204.599 745.06 205.559 745.06C206.519 745.06 207.429 745.23 208.289 745.57C209.169 745.91 209.939 746.41 210.599 747.07C211.259 747.73 211.779 748.54 212.159 749.5C212.559 750.44 212.759 751.52 212.759 752.74C212.759 753.94 212.559 755.02 212.159 755.98C211.779 756.92 211.259 757.72 210.599 758.38C209.939 759.02 209.169 759.51 208.289 759.85C207.429 760.19 206.519 760.36 205.559 760.36ZM205.559 758.32C206.259 758.32 206.889 758.19 207.449 757.93C208.029 757.65 208.519 757.27 208.919 756.79C209.339 756.29 209.659 755.7 209.879 755.02C210.099 754.34 210.209 753.58 210.209 752.74C210.209 751.9 210.099 751.14 209.879 750.46C209.659 749.76 209.339 749.16 208.919 748.66C208.519 748.16 208.029 747.78 207.449 747.52C206.889 747.24 206.259 747.1 205.559 747.1C204.859 747.1 204.219 747.24 203.639 747.52C203.079 747.78 202.589 748.16 202.169 748.66C201.769 749.16 201.459 749.76 201.239 750.46C201.019 751.14 200.909 751.9 200.909 752.74C200.909 753.58 201.019 754.34 201.239 755.02C201.459 755.7 201.769 756.29 202.169 756.79C202.589 757.27 203.079 757.65 203.639 757.93C204.219 758.19 204.859 758.32 205.559 758.32ZM221.807 760V747.43H217.637V745.57L221.807 745.42V744.19C221.807 742.41 222.277 740.98 223.217 739.9C224.177 738.82 225.667 738.28 227.687 738.28C229.127 738.28 230.527 738.56 231.887 739.12L231.317 740.98C230.717 740.7 230.157 740.52 229.637 740.44C229.137 740.34 228.567 740.29 227.927 740.29C226.607 740.29 225.657 740.63 225.077 741.31C224.517 741.97 224.237 742.9 224.237 744.1V745.42H230.357V747.43H224.237V760H221.807ZM242.015 760V747.43H235.235V745.42H244.475V760H242.015ZM242.975 742.36C242.415 742.36 241.945 742.19 241.565 741.85C241.185 741.49 240.995 741.02 240.995 740.44C240.995 739.86 241.185 739.4 241.565 739.06C241.945 738.7 242.415 738.52 242.975 738.52C243.535 738.52 244.005 738.7 244.385 739.06C244.765 739.4 244.955 739.86 244.955 740.44C244.955 741.02 244.765 741.49 244.385 741.85C244.005 742.19 243.535 742.36 242.975 742.36ZM262.733 760.36C261.173 760.36 259.983 759.92 259.163 759.04C258.343 758.16 257.933 756.85 257.933 755.11V740.65H252.743V738.64H260.393V755.29C260.393 756.37 260.653 757.15 261.173 757.63C261.693 758.09 262.393 758.32 263.273 758.32C264.133 758.32 265.043 758.1 266.003 757.66L266.633 759.49C265.953 759.77 265.333 759.98 264.773 760.12C264.213 760.28 263.533 760.36 262.733 760.36ZM278.412 760.36C277.312 760.36 276.282 760.19 275.322 759.85C274.382 759.51 273.552 759.01 272.832 758.35C272.132 757.69 271.572 756.89 271.152 755.95C270.752 754.99 270.552 753.9 270.552 752.68C270.552 751.5 270.752 750.44 271.152 749.5C271.572 748.56 272.122 747.76 272.802 747.1C273.502 746.44 274.292 745.94 275.172 745.6C276.072 745.24 277.012 745.06 277.992 745.06C279.032 745.06 279.962 745.23 280.782 745.57C281.622 745.89 282.322 746.35 282.882 746.95C283.462 747.55 283.902 748.27 284.202 749.11C284.502 749.95 284.652 750.88 284.652 751.9C284.652 752.18 284.642 752.45 284.622 752.71C284.602 752.97 284.572 753.2 284.532 753.4H273.042C273.202 755.06 273.802 756.31 274.842 757.15C275.902 757.97 277.192 758.38 278.712 758.38C279.592 758.38 280.382 758.26 281.082 758.02C281.802 757.76 282.492 757.42 283.152 757L284.052 758.62C283.332 759.1 282.502 759.51 281.562 759.85C280.642 760.19 279.592 760.36 278.412 760.36ZM278.052 747.01C277.452 747.01 276.872 747.11 276.312 747.31C275.772 747.51 275.282 747.8 274.842 748.18C274.402 748.54 274.032 749 273.732 749.56C273.432 750.12 273.222 750.76 273.102 751.48H282.402C282.302 749.98 281.862 748.86 281.082 748.12C280.322 747.38 279.312 747.01 278.052 747.01ZM311.448 748.99L310.518 751.99H316.398L315.468 748.99C315.128 747.89 314.788 746.8 314.448 745.72C314.128 744.62 313.818 743.5 313.518 742.36H313.398C313.078 743.5 312.758 744.62 312.438 745.72C312.118 746.8 311.788 747.89 311.448 748.99ZM305.448 760L312.078 740.32H314.898L321.528 760H318.888L317.028 754H309.888L307.998 760H305.448ZM330.157 760L324.007 745.42H326.497L329.857 753.7C330.157 754.44 330.437 755.17 330.697 755.89C330.977 756.59 331.247 757.29 331.507 757.99H331.627C331.887 757.29 332.137 756.59 332.377 755.89C332.637 755.17 332.917 754.44 333.217 753.7L336.577 745.42H338.947L332.917 760H330.157ZM347.845 760.36C347.165 760.36 346.525 760.26 345.925 760.06C345.325 759.88 344.795 759.62 344.335 759.28C343.895 758.92 343.545 758.49 343.285 757.99C343.025 757.47 342.895 756.88 342.895 756.22C342.895 755.4 343.085 754.69 343.465 754.09C343.865 753.47 344.485 752.94 345.325 752.5C346.185 752.06 347.285 751.7 348.625 751.42C349.965 751.14 351.575 750.92 353.455 750.76C353.435 750.26 353.355 749.79 353.215 749.35C353.075 748.91 352.855 748.53 352.555 748.21C352.255 747.87 351.855 747.6 351.355 747.4C350.875 747.2 350.285 747.1 349.585 747.1C348.625 747.1 347.705 747.29 346.825 747.67C345.945 748.03 345.165 748.42 344.485 748.84L343.525 747.16C343.885 746.92 344.305 746.68 344.785 746.44C345.285 746.18 345.805 745.95 346.345 745.75C346.905 745.55 347.495 745.39 348.115 745.27C348.735 745.13 349.365 745.06 350.005 745.06C352.005 745.06 353.485 745.61 354.445 746.71C355.425 747.79 355.915 749.24 355.915 751.06V760H353.905L353.695 758.02H353.605C352.785 758.66 351.875 759.21 350.875 759.67C349.895 760.13 348.885 760.36 347.845 760.36ZM348.505 758.38C349.345 758.38 350.165 758.2 350.965 757.84C351.785 757.46 352.615 756.92 353.455 756.22V752.38C351.895 752.5 350.585 752.67 349.525 752.89C348.485 753.11 347.645 753.38 347.005 753.7C346.385 754 345.945 754.35 345.685 754.75C345.425 755.13 345.295 755.56 345.295 756.04C345.295 756.46 345.385 756.82 345.565 757.12C345.745 757.4 345.975 757.64 346.255 757.84C346.555 758.02 346.895 758.16 347.275 758.26C347.675 758.34 348.085 758.38 348.505 758.38ZM370.273 760.36C369.213 760.36 368.323 760.22 367.603 759.94C366.883 759.64 366.303 759.23 365.863 758.71C365.423 758.17 365.103 757.53 364.903 756.79C364.723 756.05 364.633 755.23 364.633 754.33V747.43H360.523V745.57L364.723 745.42L365.053 740.74H367.093V745.42H374.263V747.43H367.093V754.36C367.093 755.02 367.153 755.6 367.273 756.1C367.393 756.58 367.593 756.99 367.873 757.33C368.153 757.67 368.533 757.93 369.013 758.11C369.493 758.27 370.083 758.35 370.783 758.35C371.483 758.35 372.113 758.29 372.673 758.17C373.233 758.05 373.773 757.89 374.293 757.69L374.833 759.49C374.173 759.73 373.473 759.93 372.733 760.09C372.013 760.27 371.193 760.36 370.273 760.36ZM383.821 760.36C383.141 760.36 382.501 760.26 381.901 760.06C381.301 759.88 380.771 759.62 380.311 759.28C379.871 758.92 379.521 758.49 379.261 757.99C379.001 757.47 378.871 756.88 378.871 756.22C378.871 755.4 379.061 754.69 379.441 754.09C379.841 753.47 380.461 752.94 381.301 752.5C382.161 752.06 383.261 751.7 384.601 751.42C385.941 751.14 387.551 750.92 389.431 750.76C389.411 750.26 389.331 749.79 389.191 749.35C389.051 748.91 388.831 748.53 388.531 748.21C388.231 747.87 387.831 747.6 387.331 747.4C386.851 747.2 386.261 747.1 385.561 747.1C384.601 747.1 383.681 747.29 382.801 747.67C381.921 748.03 381.141 748.42 380.461 748.84L379.501 747.16C379.861 746.92 380.281 746.68 380.761 746.44C381.261 746.18 381.781 745.95 382.321 745.75C382.881 745.55 383.471 745.39 384.091 745.27C384.711 745.13 385.341 745.06 385.981 745.06C387.981 745.06 389.461 745.61 390.421 746.71C391.401 747.79 391.891 749.24 391.891 751.06V760H389.881L389.671 758.02H389.581C388.761 758.66 387.851 759.21 386.851 759.67C385.871 760.13 384.861 760.36 383.821 760.36ZM384.481 758.38C385.321 758.38 386.141 758.2 386.941 757.84C387.761 757.46 388.591 756.92 389.431 756.22V752.38C387.871 752.5 386.561 752.67 385.501 752.89C384.461 753.11 383.621 753.38 382.981 753.7C382.361 754 381.921 754.35 381.661 754.75C381.401 755.13 381.271 755.56 381.271 756.04C381.271 756.46 381.361 756.82 381.541 757.12C381.721 757.4 381.951 757.64 382.231 757.84C382.531 758.02 382.871 758.16 383.251 758.26C383.651 758.34 384.061 758.38 384.481 758.38ZM398.81 760V745.42H400.85L401.06 748.87H401.15C401.91 747.69 402.84 746.76 403.94 746.08C405.06 745.4 406.3 745.06 407.66 745.06C408.2 745.06 408.7 745.11 409.16 745.21C409.62 745.29 410.08 745.44 410.54 745.66L409.97 747.79C409.45 747.61 409.01 747.48 408.65 747.4C408.31 747.32 407.85 747.28 407.27 747.28C406.17 747.28 405.11 747.6 404.09 748.24C403.09 748.86 402.15 749.93 401.27 751.45V760H398.81Z" fill="white"/>
<path d="M512 363.5C509.5 363.5 507.5 365.5 507.5 368C507.5 370.5 509.5 372.5 512 372.5C514.5 372.5 516.5 370.5 516.5 368C516.5 365.5 514.5 363.5 512 363.5Z" fill="white"/>
<path d="M512 362C508.672 362 506 364.672 506 368H509C509 366.328 510.328 365 512 365V362ZM506 368C506 371.328 508.672 374 512 374V371C510.328 371 509 369.672 509 368H506ZM512 374C515.328 374 518 371.328 518 368H515C515 369.672 513.672 371 512 371V374ZM518 368C518 364.672 515.328 362 512 362V365C513.672 365 515 366.328 515 368H518Z" fill="white"/>
<path d="M651 413.5C648.5 413.5 646.5 415.5 646.5 418C646.5 420.5 648.5 422.5 651 422.5C653.5 422.5 655.5 420.5 655.5 418C655.5 415.5 653.5 413.5 651 413.5Z" fill="white"/>
<path d="M649.939 508.061C650.525 508.646 651.475 508.646 652.061 508.061L661.607 498.515C662.192 497.929 662.192 496.979 661.607 496.393C661.021 495.808 660.071 495.808 659.485 496.393L651 504.879L642.515 496.393C641.929 495.808 640.979 495.808 640.393 496.393C639.808 496.979 639.808 497.929 640.393 498.515L649.939 508.061ZM648 418C648 416.328 649.328 415 651 415V412C647.672 412 645 414.672 645 418H648ZM651 415C652.672 415 654 416.328 654 418H657C657 414.672 654.328 412 651 412V415ZM654 418C654 419.672 652.672 421 651 421V424C654.328 424 657 421.328 657 418H654ZM651 421C649.328 421 648 419.672 648 418H645C645 421.328 647.672 424 651 424V421ZM649.5 422.5V507H652.5V422.5H649.5Z" fill="white"/>
<path d="M790 363.5C787.5 363.5 785.5 365.5 785.5 368C785.5 370.5 787.5 372.5 790 372.5C792.5 372.5 794.5 370.5 794.5 368C794.5 365.5 792.5 363.5 790 363.5Z" fill="white"/>
<path d="M847.061 558.061C847.646 557.475 847.646 556.525 847.061 555.939L837.515 546.393C836.929 545.808 835.979 545.808 835.393 546.393C834.808 546.979 834.808 547.929 835.393 548.515L843.879 557L835.393 565.485C834.808 566.071 834.808 567.021 835.393 567.607C835.979 568.192 836.929 568.192 837.515 567.607L847.061 558.061ZM787 368C787 366.328 788.328 365 790 365V362C786.672 362 784 364.672 784 368H787ZM790 365C791.672 365 793 366.328 793 368H796C796 364.672 793.328 362 790 362V365ZM793 368C793 369.672 791.672 371 790 371V374C793.328 374 796 371.328 796 368H793ZM790 371C788.328 371 787 369.672 787 368H784C784 371.328 786.672 374 790 374V371ZM794.5 369.5H798V366.5H794.5V369.5ZM816.5 388V537H819.5V388H816.5ZM838 558.5H846V555.5H838V558.5ZM816.5 537C816.5 548.874 826.126 558.5 838 558.5V555.5C827.783 555.5 819.5 547.217 819.5 537H816.5ZM798 369.5C808.217 369.5 816.5 377.783 816.5 388H819.5C819.5 376.126 809.874 366.5 798 366.5V369.5Z" fill="white"/>
<path d="M955.061 369.061C955.646 368.475 955.646 367.525 955.061 366.939L945.515 357.393C944.929 356.808 943.979 356.808 943.393 357.393C942.808 357.979 942.808 358.929 943.393 359.515L951.879 368L943.393 376.485C942.808 377.071 942.808 378.021 943.393 378.607C943.979 379.192 944.929 379.192 945.515 378.607L955.061 369.061ZM790 369.5H954V366.5H790V369.5Z" fill="white"/>
<path d="M285.439 700.061C286.025 700.646 286.975 700.646 287.561 700.061L297.107 690.515C297.692 689.929 297.692 688.979 297.107 688.393C296.521 687.808 295.571 687.808 294.985 688.393L286.5 696.879L278.015 688.393C277.429 687.808 276.479 687.808 275.893 688.393C275.308 688.979 275.308 689.929 275.893 690.515L285.439 700.061ZM315.5 607V637.75H318.5V607H315.5ZM285 668.25V699H288V668.25H285ZM301.75 651.5C292.499 651.5 285 658.999 285 668.25H288C288 660.656 294.156 654.5 301.75 654.5V651.5ZM315.5 637.75C315.5 645.344 309.344 651.5 301.75 651.5V654.5C311.001 654.5 318.5 647.001 318.5 637.75H315.5Z" fill="white"/>
<rect x="514" y="93" width="274" height="96" stroke="#D79BF2" stroke-width="4"/>
<path d="M553.18 152.36C551.94 152.36 550.8 152.13 549.76 151.67C548.72 151.21 547.82 150.55 547.06 149.69C546.3 148.81 545.71 147.74 545.29 146.48C544.87 145.2 544.66 143.76 544.66 142.16C544.66 140.58 544.87 139.16 545.29 137.9C545.73 136.62 546.33 135.55 547.09 134.69C547.87 133.81 548.79 133.14 549.85 132.68C550.93 132.2 552.11 131.96 553.39 131.96C554.05 131.96 554.65 132.03 555.19 132.17C555.73 132.31 556.22 132.5 556.66 132.74C557.12 132.96 557.52 133.21 557.86 133.49C558.22 133.77 558.54 134.06 558.82 134.36L557.41 135.95C556.93 135.43 556.38 135 555.76 134.66C555.14 134.32 554.35 134.15 553.39 134.15C552.47 134.15 551.63 134.34 550.87 134.72C550.13 135.08 549.49 135.61 548.95 136.31C548.41 136.99 547.99 137.82 547.69 138.8C547.41 139.78 547.27 140.88 547.27 142.1C547.27 143.34 547.4 144.46 547.66 145.46C547.94 146.44 548.33 147.28 548.83 147.98C549.35 148.68 549.99 149.22 550.75 149.6C551.51 149.98 552.37 150.17 553.33 150.17C554.03 150.17 554.68 150.07 555.28 149.87C555.88 149.65 556.37 149.36 556.75 149V143.87H552.82V141.8H559.06V150.08C558.44 150.72 557.62 151.26 556.6 151.7C555.6 152.14 554.46 152.36 553.18 152.36ZM573.269 152.36C571.709 152.36 570.519 151.92 569.699 151.04C568.879 150.16 568.469 148.85 568.469 147.11V132.65H563.279V130.64H570.929V147.29C570.929 148.37 571.189 149.15 571.709 149.63C572.229 150.09 572.929 150.32 573.809 150.32C574.669 150.32 575.579 150.1 576.539 149.66L577.169 151.49C576.489 151.77 575.869 151.98 575.309 152.12C574.749 152.28 574.069 152.36 573.269 152.36ZM588.047 152.36C587.087 152.36 586.167 152.19 585.287 151.85C584.427 151.51 583.667 151.02 583.007 150.38C582.347 149.72 581.817 148.92 581.417 147.98C581.037 147.02 580.847 145.94 580.847 144.74C580.847 143.52 581.037 142.44 581.417 141.5C581.817 140.54 582.347 139.73 583.007 139.07C583.667 138.41 584.427 137.91 585.287 137.57C586.167 137.23 587.087 137.06 588.047 137.06C589.007 137.06 589.917 137.23 590.777 137.57C591.657 137.91 592.427 138.41 593.087 139.07C593.747 139.73 594.267 140.54 594.647 141.5C595.047 142.44 595.247 143.52 595.247 144.74C595.247 145.94 595.047 147.02 594.647 147.98C594.267 148.92 593.747 149.72 593.087 150.38C592.427 151.02 591.657 151.51 590.777 151.85C589.917 152.19 589.007 152.36 588.047 152.36ZM588.047 150.32C588.747 150.32 589.377 150.19 589.937 149.93C590.517 149.65 591.007 149.27 591.407 148.79C591.827 148.29 592.147 147.7 592.367 147.02C592.587 146.34 592.697 145.58 592.697 144.74C592.697 143.9 592.587 143.14 592.367 142.46C592.147 141.76 591.827 141.16 591.407 140.66C591.007 140.16 590.517 139.78 589.937 139.52C589.377 139.24 588.747 139.1 588.047 139.1C587.347 139.1 586.707 139.24 586.127 139.52C585.567 139.78 585.077 140.16 584.657 140.66C584.257 141.16 583.947 141.76 583.727 142.46C583.507 143.14 583.397 143.9 583.397 144.74C583.397 145.58 583.507 146.34 583.727 147.02C583.947 147.7 584.257 148.29 584.657 148.79C585.077 149.27 585.567 149.65 586.127 149.93C586.707 150.19 587.347 150.32 588.047 150.32ZM606.635 152.36C605.935 152.36 605.175 152.19 604.355 151.85C603.555 151.49 602.805 151 602.105 150.38H602.015L601.805 152H599.825V130.64H602.285V136.46L602.195 139.28H602.285C602.945 138.6 603.705 138.06 604.565 137.66C605.445 137.26 606.315 137.06 607.175 137.06C608.155 137.06 609.025 137.24 609.785 137.6C610.545 137.94 611.175 138.44 611.675 139.1C612.195 139.74 612.585 140.52 612.845 141.44C613.105 142.34 613.235 143.35 613.235 144.47C613.235 145.71 613.055 146.82 612.695 147.8C612.335 148.78 611.845 149.61 611.225 150.29C610.625 150.97 609.925 151.49 609.125 151.85C608.325 152.19 607.495 152.36 606.635 152.36ZM606.245 150.29C606.885 150.29 607.475 150.16 608.015 149.9C608.555 149.62 609.025 149.24 609.425 148.76C609.825 148.26 610.135 147.65 610.355 146.93C610.575 146.21 610.685 145.4 610.685 144.5C610.685 143.7 610.605 142.97 610.445 142.31C610.285 141.65 610.035 141.09 609.695 140.63C609.375 140.15 608.955 139.78 608.435 139.52C607.915 139.26 607.295 139.13 606.575 139.13C605.935 139.13 605.245 139.31 604.505 139.67C603.785 140.01 603.045 140.56 602.285 141.32V148.58C602.985 149.2 603.685 149.64 604.385 149.9C605.105 150.16 605.725 150.29 606.245 150.29ZM622.403 152.36C621.723 152.36 621.083 152.26 620.483 152.06C619.883 151.88 619.353 151.62 618.893 151.28C618.453 150.92 618.103 150.49 617.843 149.99C617.583 149.47 617.453 148.88 617.453 148.22C617.453 147.4 617.643 146.69 618.023 146.09C618.423 145.47 619.043 144.94 619.883 144.5C620.743 144.06 621.843 143.7 623.183 143.42C624.523 143.14 626.133 142.92 628.013 142.76C627.993 142.26 627.913 141.79 627.773 141.35C627.633 140.91 627.413 140.53 627.113 140.21C626.813 139.87 626.413 139.6 625.913 139.4C625.433 139.2 624.843 139.1 624.143 139.1C623.183 139.1 622.263 139.29 621.383 139.67C620.503 140.03 619.723 140.42 619.043 140.84L618.083 139.16C618.443 138.92 618.863 138.68 619.343 138.44C619.843 138.18 620.363 137.95 620.903 137.75C621.463 137.55 622.053 137.39 622.673 137.27C623.293 137.13 623.923 137.06 624.563 137.06C626.563 137.06 628.043 137.61 629.003 138.71C629.983 139.79 630.473 141.24 630.473 143.06V152H628.463L628.253 150.02H628.163C627.343 150.66 626.433 151.21 625.433 151.67C624.453 152.13 623.443 152.36 622.403 152.36ZM623.063 150.38C623.903 150.38 624.723 150.2 625.523 149.84C626.343 149.46 627.173 148.92 628.013 148.22V144.38C626.453 144.5 625.143 144.67 624.083 144.89C623.043 145.11 622.203 145.38 621.563 145.7C620.943 146 620.503 146.35 620.243 146.75C619.983 147.13 619.853 147.56 619.853 148.04C619.853 148.46 619.943 148.82 620.123 149.12C620.303 149.4 620.533 149.64 620.813 149.84C621.113 150.02 621.453 150.16 621.833 150.26C622.233 150.34 622.643 150.38 623.063 150.38ZM645.222 152.36C643.662 152.36 642.472 151.92 641.652 151.04C640.832 150.16 640.422 148.85 640.422 147.11V132.65H635.232V130.64H642.882V147.29C642.882 148.37 643.142 149.15 643.662 149.63C644.182 150.09 644.882 150.32 645.762 150.32C646.622 150.32 647.532 150.1 648.492 149.66L649.122 151.49C648.442 151.77 647.822 151.98 647.262 152.12C646.702 152.28 646.022 152.36 645.222 152.36ZM678.138 152.36C676.698 152.36 675.368 152.1 674.148 151.58C672.948 151.06 671.898 150.35 670.998 149.45L672.498 147.71C673.238 148.45 674.098 149.05 675.078 149.51C676.058 149.95 677.118 150.17 678.258 150.17C679.618 150.17 680.668 149.88 681.408 149.3C682.168 148.72 682.548 147.97 682.548 147.05C682.548 146.53 682.458 146.09 682.278 145.73C682.098 145.37 681.848 145.06 681.528 144.8C681.208 144.54 680.828 144.31 680.388 144.11C679.968 143.91 679.508 143.7 679.008 143.48L676.188 142.25C675.688 142.05 675.188 141.81 674.688 141.53C674.188 141.25 673.728 140.91 673.308 140.51C672.908 140.11 672.578 139.64 672.318 139.1C672.058 138.54 671.928 137.9 671.928 137.18C671.928 136.44 672.088 135.75 672.408 135.11C672.728 134.47 673.168 133.92 673.728 133.46C674.308 132.98 674.988 132.61 675.768 132.35C676.568 132.09 677.438 131.96 678.378 131.96C679.618 131.96 680.758 132.19 681.798 132.65C682.838 133.09 683.718 133.67 684.438 134.39L683.118 136.01C682.478 135.43 681.768 134.98 680.988 134.66C680.208 134.32 679.308 134.15 678.288 134.15C677.148 134.15 676.228 134.41 675.528 134.93C674.828 135.43 674.478 136.13 674.478 137.03C674.478 137.51 674.578 137.92 674.778 138.26C674.998 138.58 675.268 138.87 675.588 139.13C675.928 139.37 676.308 139.58 676.728 139.76C677.148 139.94 677.568 140.12 677.988 140.3L680.748 141.5C681.348 141.74 681.908 142.02 682.428 142.34C682.968 142.64 683.428 143 683.808 143.42C684.208 143.82 684.518 144.3 684.738 144.86C684.978 145.4 685.098 146.03 685.098 146.75C685.098 147.53 684.938 148.26 684.618 148.94C684.298 149.62 683.838 150.22 683.238 150.74C682.638 151.24 681.908 151.64 681.048 151.94C680.188 152.22 679.218 152.36 678.138 152.36ZM698.797 152.36C697.737 152.36 696.847 152.22 696.127 151.94C695.407 151.64 694.827 151.23 694.387 150.71C693.947 150.17 693.627 149.53 693.427 148.79C693.247 148.05 693.157 147.23 693.157 146.33V139.43H689.047V137.57L693.247 137.42L693.577 132.74H695.617V137.42H702.787V139.43H695.617V146.36C695.617 147.02 695.677 147.6 695.797 148.1C695.917 148.58 696.117 148.99 696.397 149.33C696.677 149.67 697.057 149.93 697.537 150.11C698.017 150.27 698.607 150.35 699.307 150.35C700.007 150.35 700.637 150.29 701.197 150.17C701.757 150.05 702.297 149.89 702.817 149.69L703.357 151.49C702.697 151.73 701.997 151.93 701.257 152.09C700.537 152.27 699.717 152.36 698.797 152.36ZM712.345 152.36C711.665 152.36 711.025 152.26 710.425 152.06C709.825 151.88 709.295 151.62 708.835 151.28C708.395 150.92 708.045 150.49 707.785 149.99C707.525 149.47 707.395 148.88 707.395 148.22C707.395 147.4 707.585 146.69 707.965 146.09C708.365 145.47 708.985 144.94 709.825 144.5C710.685 144.06 711.785 143.7 713.125 143.42C714.465 143.14 716.075 142.92 717.955 142.76C717.935 142.26 717.855 141.79 717.715 141.35C717.575 140.91 717.355 140.53 717.055 140.21C716.755 139.87 716.355 139.6 715.855 139.4C715.375 139.2 714.785 139.1 714.085 139.1C713.125 139.1 712.205 139.29 711.325 139.67C710.445 140.03 709.665 140.42 708.985 140.84L708.025 139.16C708.385 138.92 708.805 138.68 709.285 138.44C709.785 138.18 710.305 137.95 710.845 137.75C711.405 137.55 711.995 137.39 712.615 137.27C713.235 137.13 713.865 137.06 714.505 137.06C716.505 137.06 717.985 137.61 718.945 138.71C719.925 139.79 720.415 141.24 720.415 143.06V152H718.405L718.195 150.02H718.105C717.285 150.66 716.375 151.21 715.375 151.67C714.395 152.13 713.385 152.36 712.345 152.36ZM713.005 150.38C713.845 150.38 714.665 150.2 715.465 149.84C716.285 149.46 717.115 148.92 717.955 148.22V144.38C716.395 144.5 715.085 144.67 714.025 144.89C712.985 145.11 712.145 145.38 711.505 145.7C710.885 146 710.445 146.35 710.185 146.75C709.925 147.13 709.795 147.56 709.795 148.04C709.795 148.46 709.885 148.82 710.065 149.12C710.245 149.4 710.475 149.64 710.755 149.84C711.055 150.02 711.395 150.16 711.775 150.26C712.175 150.34 712.585 150.38 713.005 150.38ZM734.773 152.36C733.713 152.36 732.823 152.22 732.103 151.94C731.383 151.64 730.803 151.23 730.363 150.71C729.923 150.17 729.603 149.53 729.403 148.79C729.223 148.05 729.133 147.23 729.133 146.33V139.43H725.023V137.57L729.223 137.42L729.553 132.74H731.593V137.42H738.763V139.43H731.593V146.36C731.593 147.02 731.653 147.6 731.773 148.1C731.893 148.58 732.093 148.99 732.373 149.33C732.653 149.67 733.033 149.93 733.513 150.11C733.993 150.27 734.583 150.35 735.283 150.35C735.983 150.35 736.613 150.29 737.173 150.17C737.733 150.05 738.273 149.89 738.793 149.69L739.333 151.49C738.673 151.73 737.973 151.93 737.233 152.09C736.513 152.27 735.693 152.36 734.773 152.36ZM750.841 152.36C749.741 152.36 748.711 152.19 747.751 151.85C746.811 151.51 745.981 151.01 745.261 150.35C744.561 149.69 744.001 148.89 743.581 147.95C743.181 146.99 742.981 145.9 742.981 144.68C742.981 143.5 743.181 142.44 743.581 141.5C744.001 140.56 744.551 139.76 745.231 139.1C745.931 138.44 746.721 137.94 747.601 137.6C748.501 137.24 749.441 137.06 750.421 137.06C751.461 137.06 752.391 137.23 753.211 137.57C754.051 137.89 754.751 138.35 755.311 138.95C755.891 139.55 756.331 140.27 756.631 141.11C756.931 141.95 757.081 142.88 757.081 143.9C757.081 144.18 757.071 144.45 757.051 144.71C757.031 144.97 757.001 145.2 756.961 145.4H745.471C745.631 147.06 746.231 148.31 747.271 149.15C748.331 149.97 749.621 150.38 751.141 150.38C752.021 150.38 752.811 150.26 753.511 150.02C754.231 149.76 754.921 149.42 755.581 149L756.481 150.62C755.761 151.1 754.931 151.51 753.991 151.85C753.071 152.19 752.021 152.36 750.841 152.36ZM750.481 139.01C749.881 139.01 749.301 139.11 748.741 139.31C748.201 139.51 747.711 139.8 747.271 140.18C746.831 140.54 746.461 141 746.161 141.56C745.861 142.12 745.651 142.76 745.531 143.48H754.831C754.731 141.98 754.291 140.86 753.511 140.12C752.751 139.38 751.741 139.01 750.481 139.01Z" fill="white"/>
<path d="M118.061 750.061C118.646 749.475 118.646 748.525 118.061 747.939L108.515 738.393C107.929 737.808 106.979 737.808 106.393 738.393C105.808 738.979 105.808 739.929 106.393 740.515L114.879 749L106.393 757.485C105.808 758.071 105.808 759.021 106.393 759.607C106.979 760.192 107.929 760.192 108.515 759.607L118.061 750.061ZM512 139.5H107V142.5H512V139.5ZM85.5 161V729H88.5V161H85.5ZM107 750.5H117V747.5H107V750.5ZM85.5 729C85.5 740.874 95.1259 750.5 107 750.5V747.5C96.7827 747.5 88.5 739.217 88.5 729H85.5ZM107 139.5C95.1259 139.5 85.5 149.126 85.5 161H88.5C88.5 150.783 96.7827 142.5 107 142.5V139.5Z" fill="white"/>
<path d="M1091.94 319.061C1092.53 319.646 1093.47 319.646 1094.06 319.061L1103.61 309.515C1104.19 308.929 1104.19 307.979 1103.61 307.393C1103.02 306.808 1102.07 306.808 1101.49 307.393L1093 315.879L1084.51 307.393C1083.93 306.808 1082.98 306.808 1082.39 307.393C1081.81 307.979 1081.81 308.929 1082.39 309.515L1091.94 319.061ZM790 142.5H1073V139.5H790V142.5ZM1091.5 161V318H1094.5V161H1091.5ZM1073 142.5C1083.22 142.5 1091.5 150.783 1091.5 161H1094.5C1094.5 149.126 1084.87 139.5 1073 139.5V142.5Z" fill="white"/>
<path d="M315.939 508.061C316.525 508.646 317.475 508.646 318.061 508.061L327.607 498.515C328.192 497.929 328.192 496.979 327.607 496.393C327.021 495.808 326.071 495.808 325.485 496.393L317 504.879L308.515 496.393C307.929 495.808 306.979 495.808 306.393 496.393C305.808 496.979 305.808 497.929 306.393 498.515L315.939 508.061ZM512 366.5H337V369.5H512V366.5ZM315.5 388V507H318.5V388H315.5ZM337 366.5C325.126 366.5 315.5 376.126 315.5 388H318.5C318.5 377.783 326.783 369.5 337 369.5V366.5Z" fill="white"/>
</svg>
