<svg width="1320" height="637" viewBox="0 0 1320 637" fill="none" xmlns="http://www.w3.org/2000/svg">
<rect width="1320" height="637" fill="#2F1E2E"/>
<rect x="499" y="80" width="274" height="96" stroke="#06B6EF" stroke-width="4"/>
<path d="M544.024 127.99L543.094 130.99H548.974L548.044 127.99C547.704 126.89 547.364 125.8 547.024 124.72C546.704 123.62 546.394 122.5 546.094 121.36H545.974C545.654 122.5 545.334 123.62 545.014 124.72C544.694 125.8 544.364 126.89 544.024 127.99ZM538.024 139L544.654 119.32H547.474L554.104 139H551.464L549.604 133H542.464L540.574 139H538.024ZM557.843 145.15V124.42H559.883L560.093 126.28H560.183C560.863 125.64 561.643 125.11 562.523 124.69C563.423 124.27 564.323 124.06 565.223 124.06C566.203 124.06 567.063 124.24 567.803 124.6C568.563 124.94 569.193 125.44 569.693 126.1C570.213 126.74 570.603 127.52 570.863 128.44C571.123 129.34 571.253 130.36 571.253 131.5C571.253 132.74 571.073 133.85 570.713 134.83C570.353 135.79 569.863 136.61 569.243 137.29C568.643 137.97 567.943 138.49 567.143 138.85C566.343 139.19 565.503 139.36 564.623 139.36C563.943 139.36 563.203 139.2 562.403 138.88C561.623 138.54 560.913 138.07 560.273 137.47H560.183L560.303 140.23V145.15H557.843ZM564.203 137.29C565.523 137.29 566.603 136.78 567.443 135.76C568.283 134.74 568.703 133.32 568.703 131.5C568.703 130.7 568.623 129.97 568.463 129.31C568.303 128.65 568.053 128.09 567.713 127.63C567.393 127.15 566.973 126.78 566.453 126.52C565.933 126.26 565.313 126.13 564.593 126.13C563.953 126.13 563.263 126.31 562.523 126.67C561.803 127.01 561.063 127.56 560.303 128.32V135.58C561.003 136.2 561.703 136.64 562.403 136.9C563.103 137.16 563.703 137.29 564.203 137.29ZM575.831 145.15V124.42H577.871L578.081 126.28H578.171C578.851 125.64 579.631 125.11 580.511 124.69C581.411 124.27 582.311 124.06 583.211 124.06C584.191 124.06 585.051 124.24 585.791 124.6C586.551 124.94 587.181 125.44 587.681 126.1C588.201 126.74 588.591 127.52 588.851 128.44C589.111 129.34 589.241 130.36 589.241 131.5C589.241 132.74 589.061 133.85 588.701 134.83C588.341 135.79 587.851 136.61 587.231 137.29C586.631 137.97 585.931 138.49 585.131 138.85C584.331 139.19 583.491 139.36 582.611 139.36C581.931 139.36 581.191 139.2 580.391 138.88C579.611 138.54 578.901 138.07 578.261 137.47H578.171L578.291 140.23V145.15H575.831ZM582.191 137.29C583.511 137.29 584.591 136.78 585.431 135.76C586.271 134.74 586.691 133.32 586.691 131.5C586.691 130.7 586.611 129.97 586.451 129.31C586.291 128.65 586.041 128.09 585.701 127.63C585.381 127.15 584.961 126.78 584.441 126.52C583.921 126.26 583.301 126.13 582.581 126.13C581.941 126.13 581.251 126.31 580.511 126.67C579.791 127.01 579.051 127.56 578.291 128.32V135.58C578.991 136.2 579.691 136.64 580.391 136.9C581.091 137.16 581.691 137.29 582.191 137.29ZM603.239 139.36C601.679 139.36 600.489 138.92 599.669 138.04C598.849 137.16 598.439 135.85 598.439 134.11V119.65H593.249V117.64H600.899V134.29C600.899 135.37 601.159 136.15 601.679 136.63C602.199 137.09 602.899 137.32 603.779 137.32C604.639 137.32 605.549 137.1 606.509 136.66L607.139 138.49C606.459 138.77 605.839 138.98 605.279 139.12C604.719 139.28 604.039 139.36 603.239 139.36ZM618.498 139V126.43H611.718V124.42H620.958V139H618.498ZM619.458 121.36C618.898 121.36 618.428 121.19 618.048 120.85C617.668 120.49 617.478 120.02 617.478 119.44C617.478 118.86 617.668 118.4 618.048 118.06C618.428 117.7 618.898 117.52 619.458 117.52C620.018 117.52 620.488 117.7 620.868 118.06C621.248 118.4 621.438 118.86 621.438 119.44C621.438 120.02 621.248 120.49 620.868 120.85C620.488 121.19 620.018 121.36 619.458 121.36ZM637.386 139.36C636.246 139.36 635.186 139.19 634.206 138.85C633.246 138.51 632.406 138.02 631.686 137.38C630.966 136.72 630.406 135.92 630.006 134.98C629.606 134.02 629.406 132.94 629.406 131.74C629.406 130.52 629.616 129.44 630.036 128.5C630.476 127.54 631.066 126.73 631.806 126.07C632.546 125.41 633.406 124.91 634.386 124.57C635.386 124.23 636.436 124.06 637.536 124.06C638.736 124.06 639.766 124.27 640.626 124.69C641.506 125.11 642.246 125.61 642.846 126.19L641.616 127.78C641.016 127.26 640.386 126.85 639.726 126.55C639.086 126.25 638.386 126.1 637.626 126.1C636.786 126.1 636.016 126.24 635.316 126.52C634.616 126.78 634.016 127.16 633.516 127.66C633.036 128.16 632.656 128.76 632.376 129.46C632.096 130.14 631.956 130.9 631.956 131.74C631.956 132.58 632.086 133.34 632.346 134.02C632.626 134.7 633.006 135.29 633.486 135.79C633.986 136.27 634.576 136.65 635.256 136.93C635.956 137.19 636.726 137.32 637.566 137.32C638.466 137.32 639.286 137.15 640.026 136.81C640.786 136.45 641.466 136.01 642.066 135.49L643.176 137.08C642.356 137.8 641.456 138.36 640.476 138.76C639.496 139.16 638.466 139.36 637.386 139.36ZM652.374 139.36C651.694 139.36 651.054 139.26 650.454 139.06C649.854 138.88 649.324 138.62 648.864 138.28C648.424 137.92 648.074 137.49 647.814 136.99C647.554 136.47 647.424 135.88 647.424 135.22C647.424 134.4 647.614 133.69 647.994 133.09C648.394 132.47 649.014 131.94 649.854 131.5C650.714 131.06 651.814 130.7 653.154 130.42C654.494 130.14 656.104 129.92 657.984 129.76C657.964 129.26 657.884 128.79 657.744 128.35C657.604 127.91 657.384 127.53 657.084 127.21C656.784 126.87 656.384 126.6 655.884 126.4C655.404 126.2 654.814 126.1 654.114 126.1C653.154 126.1 652.234 126.29 651.354 126.67C650.474 127.03 649.694 127.42 649.014 127.84L648.054 126.16C648.414 125.92 648.834 125.68 649.314 125.44C649.814 125.18 650.334 124.95 650.874 124.75C651.434 124.55 652.024 124.39 652.644 124.27C653.264 124.13 653.894 124.06 654.534 124.06C656.534 124.06 658.014 124.61 658.974 125.71C659.954 126.79 660.444 128.24 660.444 130.06V139H658.434L658.224 137.02H658.134C657.314 137.66 656.404 138.21 655.404 138.67C654.424 139.13 653.414 139.36 652.374 139.36ZM653.034 137.38C653.874 137.38 654.694 137.2 655.494 136.84C656.314 136.46 657.144 135.92 657.984 135.22V131.38C656.424 131.5 655.114 131.67 654.054 131.89C653.014 132.11 652.174 132.38 651.534 132.7C650.914 133 650.474 133.35 650.214 133.75C649.954 134.13 649.824 134.56 649.824 135.04C649.824 135.46 649.914 135.82 650.094 136.12C650.274 136.4 650.504 136.64 650.784 136.84C651.084 137.02 651.424 137.16 651.804 137.26C652.204 137.34 652.614 137.38 653.034 137.38ZM674.802 139.36C673.742 139.36 672.852 139.22 672.132 138.94C671.412 138.64 670.832 138.23 670.392 137.71C669.952 137.17 669.632 136.53 669.432 135.79C669.252 135.05 669.162 134.23 669.162 133.33V126.43H665.052V124.57L669.252 124.42L669.582 119.74H671.622V124.42H678.792V126.43H671.622V133.36C671.622 134.02 671.682 134.6 671.802 135.1C671.922 135.58 672.122 135.99 672.402 136.33C672.682 136.67 673.062 136.93 673.542 137.11C674.022 137.27 674.612 137.35 675.312 137.35C676.012 137.35 676.642 137.29 677.202 137.17C677.762 137.05 678.302 136.89 678.822 136.69L679.362 138.49C678.702 138.73 678.002 138.93 677.262 139.09C676.542 139.27 675.722 139.36 674.802 139.36ZM690.451 139V126.43H683.671V124.42H692.911V139H690.451ZM691.411 121.36C690.851 121.36 690.381 121.19 690.001 120.85C689.621 120.49 689.431 120.02 689.431 119.44C689.431 118.86 689.621 118.4 690.001 118.06C690.381 117.7 690.851 117.52 691.411 117.52C691.971 117.52 692.441 117.7 692.821 118.06C693.201 118.4 693.391 118.86 693.391 119.44C693.391 120.02 693.201 120.49 692.821 120.85C692.441 121.19 691.971 121.36 691.411 121.36ZM707.959 139.36C706.999 139.36 706.079 139.19 705.199 138.85C704.339 138.51 703.579 138.02 702.919 137.38C702.259 136.72 701.729 135.92 701.329 134.98C700.949 134.02 700.759 132.94 700.759 131.74C700.759 130.52 700.949 129.44 701.329 128.5C701.729 127.54 702.259 126.73 702.919 126.07C703.579 125.41 704.339 124.91 705.199 124.57C706.079 124.23 706.999 124.06 707.959 124.06C708.919 124.06 709.829 124.23 710.689 124.57C711.569 124.91 712.339 125.41 712.999 126.07C713.659 126.73 714.179 127.54 714.559 128.5C714.959 129.44 715.159 130.52 715.159 131.74C715.159 132.94 714.959 134.02 714.559 134.98C714.179 135.92 713.659 136.72 712.999 137.38C712.339 138.02 711.569 138.51 710.689 138.85C709.829 139.19 708.919 139.36 707.959 139.36ZM707.959 137.32C708.659 137.32 709.289 137.19 709.849 136.93C710.429 136.65 710.919 136.27 711.319 135.79C711.739 135.29 712.059 134.7 712.279 134.02C712.499 133.34 712.609 132.58 712.609 131.74C712.609 130.9 712.499 130.14 712.279 129.46C712.059 128.76 711.739 128.16 711.319 127.66C710.919 127.16 710.429 126.78 709.849 126.52C709.289 126.24 708.659 126.1 707.959 126.1C707.259 126.1 706.619 126.24 706.039 126.52C705.479 126.78 704.989 127.16 704.569 127.66C704.169 128.16 703.859 128.76 703.639 129.46C703.419 130.14 703.309 130.9 703.309 131.74C703.309 132.58 703.419 133.34 703.639 134.02C703.859 134.7 704.169 135.29 704.569 135.79C704.989 136.27 705.479 136.65 706.039 136.93C706.619 137.19 707.259 137.32 707.959 137.32ZM719.737 139V124.42H721.777L721.987 126.91H722.107C722.867 126.09 723.687 125.41 724.567 124.87C725.447 124.33 726.457 124.06 727.597 124.06C729.337 124.06 730.607 124.56 731.407 125.56C732.227 126.54 732.637 128 732.637 129.94V139H730.177V130.27C730.177 128.89 729.917 127.87 729.397 127.21C728.877 126.53 728.017 126.19 726.817 126.19C726.377 126.19 725.967 126.25 725.587 126.37C725.227 126.47 724.867 126.63 724.507 126.85C724.147 127.07 723.777 127.35 723.397 127.69C723.017 128.01 722.617 128.39 722.197 128.83V139H719.737Z" fill="white"/>
<rect x="165" y="269" width="274" height="96" stroke="#06B6EF" stroke-width="4"/>
<path d="M197.13 328V308.32H203.07C204.15 308.32 205.14 308.42 206.04 308.62C206.94 308.82 207.71 309.15 208.35 309.61C208.99 310.05 209.48 310.64 209.82 311.38C210.18 312.12 210.36 313.03 210.36 314.11C210.36 315.15 210.18 316.05 209.82 316.81C209.48 317.57 208.98 318.2 208.32 318.7C207.68 319.2 206.91 319.58 206.01 319.84C205.13 320.08 204.15 320.2 203.07 320.2H199.62V328H197.13ZM199.62 318.16H202.77C204.51 318.16 205.79 317.84 206.61 317.2C207.43 316.54 207.84 315.51 207.84 314.11C207.84 312.69 207.42 311.71 206.58 311.17C205.74 310.61 204.47 310.33 202.77 310.33H199.62V318.16ZM216.439 328V313.42H218.479L218.689 316.87H218.779C219.539 315.69 220.469 314.76 221.569 314.08C222.689 313.4 223.929 313.06 225.289 313.06C225.829 313.06 226.329 313.11 226.789 313.21C227.249 313.29 227.709 313.44 228.169 313.66L227.599 315.79C227.079 315.61 226.639 315.48 226.279 315.4C225.939 315.32 225.479 315.28 224.899 315.28C223.799 315.28 222.739 315.6 221.719 316.24C220.719 316.86 219.779 317.93 218.899 319.45V328H216.439ZM239.047 328.36C238.087 328.36 237.167 328.19 236.287 327.85C235.427 327.51 234.667 327.02 234.007 326.38C233.347 325.72 232.817 324.92 232.417 323.98C232.037 323.02 231.847 321.94 231.847 320.74C231.847 319.52 232.037 318.44 232.417 317.5C232.817 316.54 233.347 315.73 234.007 315.07C234.667 314.41 235.427 313.91 236.287 313.57C237.167 313.23 238.087 313.06 239.047 313.06C240.007 313.06 240.917 313.23 241.777 313.57C242.657 313.91 243.427 314.41 244.087 315.07C244.747 315.73 245.267 316.54 245.647 317.5C246.047 318.44 246.247 319.52 246.247 320.74C246.247 321.94 246.047 323.02 245.647 323.98C245.267 324.92 244.747 325.72 244.087 326.38C243.427 327.02 242.657 327.51 241.777 327.85C240.917 328.19 240.007 328.36 239.047 328.36ZM239.047 326.32C239.747 326.32 240.377 326.19 240.937 325.93C241.517 325.65 242.007 325.27 242.407 324.79C242.827 324.29 243.147 323.7 243.367 323.02C243.587 322.34 243.697 321.58 243.697 320.74C243.697 319.9 243.587 319.14 243.367 318.46C243.147 317.76 242.827 317.16 242.407 316.66C242.007 316.16 241.517 315.78 240.937 315.52C240.377 315.24 239.747 315.1 239.047 315.1C238.347 315.1 237.707 315.24 237.127 315.52C236.567 315.78 236.077 316.16 235.657 316.66C235.257 317.16 234.947 317.76 234.727 318.46C234.507 319.14 234.397 319.9 234.397 320.74C234.397 321.58 234.507 322.34 234.727 323.02C234.947 323.7 235.257 324.29 235.657 324.79C236.077 325.27 236.567 325.65 237.127 325.93C237.707 326.19 238.347 326.32 239.047 326.32ZM255.295 328V315.43H251.125V313.57L255.295 313.42V312.19C255.295 310.41 255.765 308.98 256.705 307.9C257.665 306.82 259.155 306.28 261.175 306.28C262.615 306.28 264.015 306.56 265.375 307.12L264.805 308.98C264.205 308.7 263.645 308.52 263.125 308.44C262.625 308.34 262.055 308.29 261.415 308.29C260.095 308.29 259.145 308.63 258.565 309.31C258.005 309.97 257.725 310.9 257.725 312.1V313.42H263.845V315.43H257.725V328H255.295ZM275.503 328V315.43H268.723V313.42H277.963V328H275.503ZM276.463 310.36C275.903 310.36 275.433 310.19 275.053 309.85C274.673 309.49 274.483 309.02 274.483 308.44C274.483 307.86 274.673 307.4 275.053 307.06C275.433 306.7 275.903 306.52 276.463 306.52C277.023 306.52 277.493 306.7 277.873 307.06C278.253 307.4 278.443 307.86 278.443 308.44C278.443 309.02 278.253 309.49 277.873 309.85C277.493 310.19 277.023 310.36 276.463 310.36ZM296.222 328.36C294.662 328.36 293.472 327.92 292.652 327.04C291.832 326.16 291.422 324.85 291.422 323.11V308.65H286.232V306.64H293.882V323.29C293.882 324.37 294.142 325.15 294.662 325.63C295.182 326.09 295.882 326.32 296.762 326.32C297.622 326.32 298.532 326.1 299.492 325.66L300.122 327.49C299.442 327.77 298.822 327.98 298.262 328.12C297.702 328.28 297.022 328.36 296.222 328.36ZM311.9 328.36C310.8 328.36 309.77 328.19 308.81 327.85C307.87 327.51 307.04 327.01 306.32 326.35C305.62 325.69 305.06 324.89 304.64 323.95C304.24 322.99 304.04 321.9 304.04 320.68C304.04 319.5 304.24 318.44 304.64 317.5C305.06 316.56 305.61 315.76 306.29 315.1C306.99 314.44 307.78 313.94 308.66 313.6C309.56 313.24 310.5 313.06 311.48 313.06C312.52 313.06 313.45 313.23 314.27 313.57C315.11 313.89 315.81 314.35 316.37 314.95C316.95 315.55 317.39 316.27 317.69 317.11C317.99 317.95 318.14 318.88 318.14 319.9C318.14 320.18 318.13 320.45 318.11 320.71C318.09 320.97 318.06 321.2 318.02 321.4H306.53C306.69 323.06 307.29 324.31 308.33 325.15C309.39 325.97 310.68 326.38 312.2 326.38C313.08 326.38 313.87 326.26 314.57 326.02C315.29 325.76 315.98 325.42 316.64 325L317.54 326.62C316.82 327.1 315.99 327.51 315.05 327.85C314.13 328.19 313.08 328.36 311.9 328.36ZM311.54 315.01C310.94 315.01 310.36 315.11 309.8 315.31C309.26 315.51 308.77 315.8 308.33 316.18C307.89 316.54 307.52 317 307.22 317.56C306.92 318.12 306.71 318.76 306.59 319.48H315.89C315.79 317.98 315.35 316.86 314.57 316.12C313.81 315.38 312.8 315.01 311.54 315.01ZM341.037 328V308.32H346.977C348.057 308.32 349.047 308.42 349.947 308.62C350.847 308.82 351.617 309.15 352.257 309.61C352.897 310.05 353.387 310.64 353.727 311.38C354.087 312.12 354.267 313.03 354.267 314.11C354.267 315.15 354.087 316.05 353.727 316.81C353.387 317.57 352.887 318.2 352.227 318.7C351.587 319.2 350.817 319.58 349.917 319.84C349.037 320.08 348.057 320.2 346.977 320.2H343.527V328H341.037ZM343.527 318.16H346.677C348.417 318.16 349.697 317.84 350.517 317.2C351.337 316.54 351.747 315.51 351.747 314.11C351.747 312.69 351.327 311.71 350.487 311.17C349.647 310.61 348.377 310.33 346.677 310.33H343.527V318.16ZM363.345 328.36C362.665 328.36 362.025 328.26 361.425 328.06C360.825 327.88 360.295 327.62 359.835 327.28C359.395 326.92 359.045 326.49 358.785 325.99C358.525 325.47 358.395 324.88 358.395 324.22C358.395 323.4 358.585 322.69 358.965 322.09C359.365 321.47 359.985 320.94 360.825 320.5C361.685 320.06 362.785 319.7 364.125 319.42C365.465 319.14 367.075 318.92 368.955 318.76C368.935 318.26 368.855 317.79 368.715 317.35C368.575 316.91 368.355 316.53 368.055 316.21C367.755 315.87 367.355 315.6 366.855 315.4C366.375 315.2 365.785 315.1 365.085 315.1C364.125 315.1 363.205 315.29 362.325 315.67C361.445 316.03 360.665 316.42 359.985 316.84L359.025 315.16C359.385 314.92 359.805 314.68 360.285 314.44C360.785 314.18 361.305 313.95 361.845 313.75C362.405 313.55 362.995 313.39 363.615 313.27C364.235 313.13 364.865 313.06 365.505 313.06C367.505 313.06 368.985 313.61 369.945 314.71C370.925 315.79 371.415 317.24 371.415 319.06V328H369.405L369.195 326.02H369.105C368.285 326.66 367.375 327.21 366.375 327.67C365.395 328.13 364.385 328.36 363.345 328.36ZM364.005 326.38C364.845 326.38 365.665 326.2 366.465 325.84C367.285 325.46 368.115 324.92 368.955 324.22V320.38C367.395 320.5 366.085 320.67 365.025 320.89C363.985 321.11 363.145 321.38 362.505 321.7C361.885 322 361.445 322.35 361.185 322.75C360.925 323.13 360.795 323.56 360.795 324.04C360.795 324.46 360.885 324.82 361.065 325.12C361.245 325.4 361.475 325.64 361.755 325.84C362.055 326.02 362.395 326.16 362.775 326.26C363.175 326.34 363.585 326.38 364.005 326.38ZM382.833 334.72C380.693 334.72 379.033 334.37 377.853 333.67C376.693 332.97 376.113 331.97 376.113 330.67C376.113 330.09 376.313 329.52 376.713 328.96C377.133 328.4 377.733 327.89 378.513 327.43V327.31C378.113 327.09 377.763 326.79 377.463 326.41C377.163 326.03 377.013 325.53 377.013 324.91C377.013 324.45 377.163 323.98 377.463 323.5C377.763 323 378.193 322.56 378.753 322.18V322.06C378.253 321.68 377.823 321.18 377.463 320.56C377.123 319.92 376.953 319.16 376.953 318.28C376.953 317.48 377.103 316.76 377.403 316.12C377.723 315.48 378.143 314.94 378.663 314.5C379.183 314.04 379.783 313.69 380.463 313.45C381.163 313.19 381.903 313.06 382.683 313.06C383.483 313.06 384.203 313.18 384.843 313.42H390.873V315.43H387.093C387.433 315.77 387.723 316.2 387.963 316.72C388.203 317.24 388.323 317.79 388.323 318.37C388.323 319.15 388.173 319.85 387.873 320.47C387.593 321.09 387.193 321.62 386.673 322.06C386.173 322.48 385.573 322.81 384.873 323.05C384.193 323.27 383.463 323.38 382.683 323.38C382.303 323.38 381.893 323.34 381.453 323.26C381.033 323.16 380.623 323.02 380.223 322.84C379.463 323.32 379.083 323.88 379.083 324.52C379.083 325.1 379.343 325.53 379.863 325.81C380.403 326.07 381.153 326.2 382.113 326.2H385.383C387.263 326.2 388.653 326.46 389.553 326.98C390.473 327.5 390.933 328.38 390.933 329.62C390.933 330.3 390.743 330.95 390.363 331.57C389.983 332.19 389.443 332.73 388.743 333.19C388.043 333.65 387.193 334.02 386.193 334.3C385.193 334.58 384.073 334.72 382.833 334.72ZM382.683 321.73C383.623 321.73 384.413 321.42 385.053 320.8C385.713 320.18 386.043 319.34 386.043 318.28C386.043 317.78 385.953 317.32 385.773 316.9C385.593 316.48 385.353 316.12 385.053 315.82C384.753 315.52 384.393 315.29 383.973 315.13C383.573 314.95 383.143 314.86 382.683 314.86C382.223 314.86 381.783 314.95 381.363 315.13C380.963 315.29 380.613 315.52 380.313 315.82C380.013 316.12 379.773 316.48 379.593 316.9C379.413 317.32 379.323 317.78 379.323 318.28C379.323 319.34 379.653 320.18 380.313 320.8C380.973 321.42 381.763 321.73 382.683 321.73ZM383.013 332.92C383.853 332.92 384.613 332.84 385.293 332.68C385.973 332.52 386.553 332.3 387.033 332.02C387.513 331.76 387.873 331.45 388.113 331.09C388.373 330.75 388.503 330.39 388.503 330.01C388.503 329.31 388.223 328.84 387.663 328.6C387.123 328.36 386.293 328.24 385.173 328.24H382.323C381.903 328.24 381.503 328.22 381.123 328.18C380.763 328.16 380.423 328.1 380.103 328C379.403 328.38 378.913 328.77 378.633 329.17C378.373 329.59 378.243 330.01 378.243 330.43C378.243 331.19 378.643 331.79 379.443 332.23C380.263 332.69 381.453 332.92 383.013 332.92ZM401.841 328.36C400.741 328.36 399.711 328.19 398.751 327.85C397.811 327.51 396.981 327.01 396.261 326.35C395.561 325.69 395.001 324.89 394.581 323.95C394.181 322.99 393.981 321.9 393.981 320.68C393.981 319.5 394.181 318.44 394.581 317.5C395.001 316.56 395.551 315.76 396.231 315.1C396.931 314.44 397.721 313.94 398.601 313.6C399.501 313.24 400.441 313.06 401.421 313.06C402.461 313.06 403.391 313.23 404.211 313.57C405.051 313.89 405.751 314.35 406.311 314.95C406.891 315.55 407.331 316.27 407.631 317.11C407.931 317.95 408.081 318.88 408.081 319.9C408.081 320.18 408.071 320.45 408.051 320.71C408.031 320.97 408.001 321.2 407.961 321.4H396.471C396.631 323.06 397.231 324.31 398.271 325.15C399.331 325.97 400.621 326.38 402.141 326.38C403.021 326.38 403.811 326.26 404.511 326.02C405.231 325.76 405.921 325.42 406.581 325L407.481 326.62C406.761 327.1 405.931 327.51 404.991 327.85C404.071 328.19 403.021 328.36 401.841 328.36ZM401.481 315.01C400.881 315.01 400.301 315.11 399.741 315.31C399.201 315.51 398.711 315.8 398.271 316.18C397.831 316.54 397.461 317 397.161 317.56C396.861 318.12 396.651 318.76 396.531 319.48H405.831C405.731 317.98 405.291 316.86 404.511 316.12C403.751 315.38 402.741 315.01 401.481 315.01Z" fill="white"/>
<rect x="499" y="269" width="274" height="96" stroke="#06B6EF" stroke-width="4"/>
<path d="M602.393 328V308.32H604.913V316.57H613.133V308.32H615.653V328H613.133V318.73H604.913V328H602.393ZM627.012 328.36C626.052 328.36 625.132 328.19 624.252 327.85C623.392 327.51 622.632 327.02 621.972 326.38C621.312 325.72 620.782 324.92 620.382 323.98C620.002 323.02 619.812 321.94 619.812 320.74C619.812 319.52 620.002 318.44 620.382 317.5C620.782 316.54 621.312 315.73 621.972 315.07C622.632 314.41 623.392 313.91 624.252 313.57C625.132 313.23 626.052 313.06 627.012 313.06C627.972 313.06 628.882 313.23 629.742 313.57C630.622 313.91 631.392 314.41 632.052 315.07C632.712 315.73 633.232 316.54 633.612 317.5C634.012 318.44 634.212 319.52 634.212 320.74C634.212 321.94 634.012 323.02 633.612 323.98C633.232 324.92 632.712 325.72 632.052 326.38C631.392 327.02 630.622 327.51 629.742 327.85C628.882 328.19 627.972 328.36 627.012 328.36ZM627.012 326.32C627.712 326.32 628.342 326.19 628.902 325.93C629.482 325.65 629.972 325.27 630.372 324.79C630.792 324.29 631.112 323.7 631.332 323.02C631.552 322.34 631.662 321.58 631.662 320.74C631.662 319.9 631.552 319.14 631.332 318.46C631.112 317.76 630.792 317.16 630.372 316.66C629.972 316.16 629.482 315.78 628.902 315.52C628.342 315.24 627.712 315.1 627.012 315.1C626.312 315.1 625.672 315.24 625.092 315.52C624.532 315.78 624.042 316.16 623.622 316.66C623.222 317.16 622.912 317.76 622.692 318.46C622.472 319.14 622.362 319.9 622.362 320.74C622.362 321.58 622.472 322.34 622.692 323.02C622.912 323.7 623.222 324.29 623.622 324.79C624.042 325.27 624.532 325.65 625.092 325.93C625.672 326.19 626.312 326.32 627.012 326.32ZM637.74 328V313.42H639.72L639.93 315.34H639.99C640.37 314.66 640.81 314.11 641.31 313.69C641.81 313.27 642.48 313.06 643.32 313.06C644.74 313.06 645.66 313.9 646.08 315.58C646.5 314.8 646.96 314.19 647.46 313.75C647.98 313.29 648.66 313.06 649.5 313.06C650.52 313.06 651.31 313.45 651.87 314.23C652.45 314.99 652.74 316.1 652.74 317.56V328H650.28V317.74C650.28 316.04 649.76 315.19 648.72 315.19C648.2 315.19 647.78 315.38 647.46 315.76C647.14 316.12 646.78 316.68 646.38 317.44V328H644.1V317.74C644.1 316.9 643.98 316.27 643.74 315.85C643.52 315.41 643.14 315.19 642.6 315.19C642.08 315.19 641.64 315.38 641.28 315.76C640.92 316.12 640.56 316.68 640.2 317.44V328H637.74ZM663.888 328.36C662.788 328.36 661.758 328.19 660.798 327.85C659.858 327.51 659.028 327.01 658.308 326.35C657.608 325.69 657.048 324.89 656.628 323.95C656.228 322.99 656.028 321.9 656.028 320.68C656.028 319.5 656.228 318.44 656.628 317.5C657.048 316.56 657.598 315.76 658.278 315.1C658.978 314.44 659.768 313.94 660.648 313.6C661.548 313.24 662.488 313.06 663.468 313.06C664.508 313.06 665.438 313.23 666.258 313.57C667.098 313.89 667.798 314.35 668.358 314.95C668.938 315.55 669.378 316.27 669.678 317.11C669.978 317.95 670.128 318.88 670.128 319.9C670.128 320.18 670.118 320.45 670.098 320.71C670.078 320.97 670.048 321.2 670.008 321.4H658.518C658.678 323.06 659.278 324.31 660.318 325.15C661.378 325.97 662.668 326.38 664.188 326.38C665.068 326.38 665.858 326.26 666.558 326.02C667.278 325.76 667.968 325.42 668.628 325L669.528 326.62C668.808 327.1 667.978 327.51 667.038 327.85C666.118 328.19 665.068 328.36 663.888 328.36ZM663.528 315.01C662.928 315.01 662.348 315.11 661.788 315.31C661.248 315.51 660.758 315.8 660.318 316.18C659.878 316.54 659.508 317 659.208 317.56C658.908 318.12 658.698 318.76 658.578 319.48H667.878C667.778 317.98 667.338 316.86 666.558 316.12C665.798 315.38 664.788 315.01 663.528 315.01Z" fill="white"/>
<rect x="833" y="269" width="274" height="96" stroke="#06B6EF" stroke-width="4"/>
<path d="M937.023 328V308.32H943.143C944.143 308.32 945.063 308.42 945.903 308.62C946.743 308.8 947.463 309.11 948.063 309.55C948.683 309.99 949.163 310.56 949.503 311.26C949.843 311.96 950.013 312.82 950.013 313.84C950.013 315.38 949.613 316.61 948.813 317.53C948.013 318.45 946.943 319.08 945.603 319.42L950.613 328H947.763L943.023 319.69H939.513V328H937.023ZM939.513 317.65H942.783C944.323 317.65 945.493 317.34 946.293 316.72C947.113 316.08 947.523 315.12 947.523 313.84C947.523 312.54 947.113 311.63 946.293 311.11C945.493 310.59 944.323 310.33 942.783 310.33H939.513V317.65ZM961.912 328.36C960.812 328.36 959.782 328.19 958.822 327.85C957.882 327.51 957.052 327.01 956.332 326.35C955.632 325.69 955.072 324.89 954.652 323.95C954.252 322.99 954.052 321.9 954.052 320.68C954.052 319.5 954.252 318.44 954.652 317.5C955.072 316.56 955.622 315.76 956.302 315.1C957.002 314.44 957.792 313.94 958.672 313.6C959.572 313.24 960.512 313.06 961.492 313.06C962.532 313.06 963.462 313.23 964.282 313.57C965.122 313.89 965.822 314.35 966.382 314.95C966.962 315.55 967.402 316.27 967.702 317.11C968.002 317.95 968.152 318.88 968.152 319.9C968.152 320.18 968.142 320.45 968.122 320.71C968.102 320.97 968.072 321.2 968.032 321.4H956.542C956.702 323.06 957.302 324.31 958.342 325.15C959.402 325.97 960.692 326.38 962.212 326.38C963.092 326.38 963.882 326.26 964.582 326.02C965.302 325.76 965.992 325.42 966.652 325L967.552 326.62C966.832 327.1 966.002 327.51 965.062 327.85C964.142 328.19 963.092 328.36 961.912 328.36ZM961.552 315.01C960.952 315.01 960.372 315.11 959.812 315.31C959.272 315.51 958.782 315.8 958.342 316.18C957.902 316.54 957.532 317 957.232 317.56C956.932 318.12 956.722 318.76 956.602 319.48H965.902C965.802 317.98 965.362 316.86 964.582 316.12C963.822 315.38 962.812 315.01 961.552 315.01ZM977.38 328.36C976.7 328.36 976.06 328.26 975.46 328.06C974.86 327.88 974.33 327.62 973.87 327.28C973.43 326.92 973.08 326.49 972.82 325.99C972.56 325.47 972.43 324.88 972.43 324.22C972.43 323.4 972.62 322.69 973 322.09C973.4 321.47 974.02 320.94 974.86 320.5C975.72 320.06 976.82 319.7 978.16 319.42C979.5 319.14 981.11 318.92 982.99 318.76C982.97 318.26 982.89 317.79 982.75 317.35C982.61 316.91 982.39 316.53 982.09 316.21C981.79 315.87 981.39 315.6 980.89 315.4C980.41 315.2 979.82 315.1 979.12 315.1C978.16 315.1 977.24 315.29 976.36 315.67C975.48 316.03 974.7 316.42 974.02 316.84L973.06 315.16C973.42 314.92 973.84 314.68 974.32 314.44C974.82 314.18 975.34 313.95 975.88 313.75C976.44 313.55 977.03 313.39 977.65 313.27C978.27 313.13 978.9 313.06 979.54 313.06C981.54 313.06 983.02 313.61 983.98 314.71C984.96 315.79 985.45 317.24 985.45 319.06V328H983.44L983.23 326.02H983.14C982.32 326.66 981.41 327.21 980.41 327.67C979.43 328.13 978.42 328.36 977.38 328.36ZM978.04 326.38C978.88 326.38 979.7 326.2 980.5 325.84C981.32 325.46 982.15 324.92 982.99 324.22V320.38C981.43 320.5 980.12 320.67 979.06 320.89C978.02 321.11 977.18 321.38 976.54 321.7C975.92 322 975.48 322.35 975.22 322.75C974.96 323.13 974.83 323.56 974.83 324.04C974.83 324.46 974.92 324.82 975.1 325.12C975.28 325.4 975.51 325.64 975.79 325.84C976.09 326.02 976.43 326.16 976.81 326.26C977.21 326.34 977.62 326.38 978.04 326.38ZM996.118 328.36C995.158 328.36 994.288 328.19 993.508 327.85C992.748 327.51 992.088 327.02 991.528 326.38C990.968 325.72 990.538 324.92 990.238 323.98C989.938 323.04 989.788 321.96 989.788 320.74C989.788 319.56 989.968 318.5 990.328 317.56C990.708 316.6 991.198 315.79 991.798 315.13C992.418 314.47 993.128 313.96 993.928 313.6C994.728 313.24 995.558 313.06 996.418 313.06C997.298 313.06 998.078 313.23 998.758 313.57C999.458 313.89 1000.13 314.35 1000.77 314.95H1000.86L1000.74 312.25V306.64H1003.2V328H1001.16L1000.95 326.08H1000.86C1000.26 326.7 999.538 327.24 998.698 327.7C997.878 328.14 997.018 328.36 996.118 328.36ZM996.628 326.29C998.068 326.29 999.438 325.56 1000.74 324.1V316.84C1000.08 316.22 999.428 315.78 998.788 315.52C998.168 315.26 997.538 315.13 996.898 315.13C996.258 315.13 995.658 315.27 995.098 315.55C994.558 315.81 994.078 316.19 993.658 316.69C993.258 317.17 992.938 317.75 992.698 318.43C992.458 319.11 992.338 319.87 992.338 320.71C992.338 322.47 992.708 323.84 993.448 324.82C994.208 325.8 995.268 326.29 996.628 326.29Z" fill="white"/>
<rect x="941" y="80" width="274" height="96" stroke="#B3EAB2" stroke-width="4"/>
<path d="M1022.78 139V121.42H1016.3V119.32H1031.78V121.42H1025.3V139H1022.78ZM1042.03 139.36C1041.07 139.36 1040.15 139.19 1039.27 138.85C1038.41 138.51 1037.65 138.02 1036.99 137.38C1036.33 136.72 1035.8 135.92 1035.4 134.98C1035.02 134.02 1034.83 132.94 1034.83 131.74C1034.83 130.52 1035.02 129.44 1035.4 128.5C1035.8 127.54 1036.33 126.73 1036.99 126.07C1037.65 125.41 1038.41 124.91 1039.27 124.57C1040.15 124.23 1041.07 124.06 1042.03 124.06C1042.99 124.06 1043.9 124.23 1044.76 124.57C1045.64 124.91 1046.41 125.41 1047.07 126.07C1047.73 126.73 1048.25 127.54 1048.63 128.5C1049.03 129.44 1049.23 130.52 1049.23 131.74C1049.23 132.94 1049.03 134.02 1048.63 134.98C1048.25 135.92 1047.73 136.72 1047.07 137.38C1046.41 138.02 1045.64 138.51 1044.76 138.85C1043.9 139.19 1042.99 139.36 1042.03 139.36ZM1042.03 137.32C1042.73 137.32 1043.36 137.19 1043.92 136.93C1044.5 136.65 1044.99 136.27 1045.39 135.79C1045.81 135.29 1046.13 134.7 1046.35 134.02C1046.57 133.34 1046.68 132.58 1046.68 131.74C1046.68 130.9 1046.57 130.14 1046.35 129.46C1046.13 128.76 1045.81 128.16 1045.39 127.66C1044.99 127.16 1044.5 126.78 1043.92 126.52C1043.36 126.24 1042.73 126.1 1042.03 126.1C1041.33 126.1 1040.69 126.24 1040.11 126.52C1039.55 126.78 1039.06 127.16 1038.64 127.66C1038.24 128.16 1037.93 128.76 1037.71 129.46C1037.49 130.14 1037.38 130.9 1037.38 131.74C1037.38 132.58 1037.49 133.34 1037.71 134.02C1037.93 134.7 1038.24 135.29 1038.64 135.79C1039.06 136.27 1039.55 136.65 1040.11 136.93C1040.69 137.19 1041.33 137.32 1042.03 137.32ZM1060.02 139.36C1059.06 139.36 1058.14 139.19 1057.26 138.85C1056.4 138.51 1055.64 138.02 1054.98 137.38C1054.32 136.72 1053.79 135.92 1053.39 134.98C1053.01 134.02 1052.82 132.94 1052.82 131.74C1052.82 130.52 1053.01 129.44 1053.39 128.5C1053.79 127.54 1054.32 126.73 1054.98 126.07C1055.64 125.41 1056.4 124.91 1057.26 124.57C1058.14 124.23 1059.06 124.06 1060.02 124.06C1060.98 124.06 1061.89 124.23 1062.75 124.57C1063.63 124.91 1064.4 125.41 1065.06 126.07C1065.72 126.73 1066.24 127.54 1066.62 128.5C1067.02 129.44 1067.22 130.52 1067.22 131.74C1067.22 132.94 1067.02 134.02 1066.62 134.98C1066.24 135.92 1065.72 136.72 1065.06 137.38C1064.4 138.02 1063.63 138.51 1062.75 138.85C1061.89 139.19 1060.98 139.36 1060.02 139.36ZM1060.02 137.32C1060.72 137.32 1061.35 137.19 1061.91 136.93C1062.49 136.65 1062.98 136.27 1063.38 135.79C1063.8 135.29 1064.12 134.7 1064.34 134.02C1064.56 133.34 1064.67 132.58 1064.67 131.74C1064.67 130.9 1064.56 130.14 1064.34 129.46C1064.12 128.76 1063.8 128.16 1063.38 127.66C1062.98 127.16 1062.49 126.78 1061.91 126.52C1061.35 126.24 1060.72 126.1 1060.02 126.1C1059.32 126.1 1058.68 126.24 1058.1 126.52C1057.54 126.78 1057.05 127.16 1056.63 127.66C1056.23 128.16 1055.92 128.76 1055.7 129.46C1055.48 130.14 1055.37 130.9 1055.37 131.74C1055.37 132.58 1055.48 133.34 1055.7 134.02C1055.92 134.7 1056.23 135.29 1056.63 135.79C1057.05 136.27 1057.54 136.65 1058.1 136.93C1058.68 137.19 1059.32 137.32 1060.02 137.32ZM1081.22 139.36C1079.66 139.36 1078.47 138.92 1077.65 138.04C1076.83 137.16 1076.42 135.85 1076.42 134.11V119.65H1071.23V117.64H1078.88V134.29C1078.88 135.37 1079.14 136.15 1079.66 136.63C1080.18 137.09 1080.88 137.32 1081.76 137.32C1082.62 137.32 1083.53 137.1 1084.49 136.66L1085.12 138.49C1084.44 138.77 1083.82 138.98 1083.26 139.12C1082.7 139.28 1082.02 139.36 1081.22 139.36ZM1096.59 139.36C1095.89 139.36 1095.13 139.19 1094.31 138.85C1093.51 138.49 1092.76 138 1092.06 137.38H1091.97L1091.76 139H1089.78V117.64H1092.24V123.46L1092.15 126.28H1092.24C1092.9 125.6 1093.66 125.06 1094.52 124.66C1095.4 124.26 1096.27 124.06 1097.13 124.06C1098.11 124.06 1098.98 124.24 1099.74 124.6C1100.5 124.94 1101.13 125.44 1101.63 126.1C1102.15 126.74 1102.54 127.52 1102.8 128.44C1103.06 129.34 1103.19 130.35 1103.19 131.47C1103.19 132.71 1103.01 133.82 1102.65 134.8C1102.29 135.78 1101.8 136.61 1101.18 137.29C1100.58 137.97 1099.88 138.49 1099.08 138.85C1098.28 139.19 1097.45 139.36 1096.59 139.36ZM1096.2 137.29C1096.84 137.29 1097.43 137.16 1097.97 136.9C1098.51 136.62 1098.98 136.24 1099.38 135.76C1099.78 135.26 1100.09 134.65 1100.31 133.93C1100.53 133.21 1100.64 132.4 1100.64 131.5C1100.64 130.7 1100.56 129.97 1100.4 129.31C1100.24 128.65 1099.99 128.09 1099.65 127.63C1099.33 127.15 1098.91 126.78 1098.39 126.52C1097.87 126.26 1097.25 126.13 1096.53 126.13C1095.89 126.13 1095.2 126.31 1094.46 126.67C1093.74 127.01 1093 127.56 1092.24 128.32V135.58C1092.94 136.2 1093.64 136.64 1094.34 136.9C1095.06 137.16 1095.68 137.29 1096.2 137.29ZM1112.36 139.36C1111.68 139.36 1111.04 139.26 1110.44 139.06C1109.84 138.88 1109.31 138.62 1108.85 138.28C1108.41 137.92 1108.06 137.49 1107.8 136.99C1107.54 136.47 1107.41 135.88 1107.41 135.22C1107.41 134.4 1107.6 133.69 1107.98 133.09C1108.38 132.47 1109 131.94 1109.84 131.5C1110.7 131.06 1111.8 130.7 1113.14 130.42C1114.48 130.14 1116.09 129.92 1117.97 129.76C1117.95 129.26 1117.87 128.79 1117.73 128.35C1117.59 127.91 1117.37 127.53 1117.07 127.21C1116.77 126.87 1116.37 126.6 1115.87 126.4C1115.39 126.2 1114.8 126.1 1114.1 126.1C1113.14 126.1 1112.22 126.29 1111.34 126.67C1110.46 127.03 1109.68 127.42 1109 127.84L1108.04 126.16C1108.4 125.92 1108.82 125.68 1109.3 125.44C1109.8 125.18 1110.32 124.95 1110.86 124.75C1111.42 124.55 1112.01 124.39 1112.63 124.27C1113.25 124.13 1113.88 124.06 1114.52 124.06C1116.52 124.06 1118 124.61 1118.96 125.71C1119.94 126.79 1120.43 128.24 1120.43 130.06V139H1118.42L1118.21 137.02H1118.12C1117.3 137.66 1116.39 138.21 1115.39 138.67C1114.41 139.13 1113.4 139.36 1112.36 139.36ZM1113.02 137.38C1113.86 137.38 1114.68 137.2 1115.48 136.84C1116.3 136.46 1117.13 135.92 1117.97 135.22V131.38C1116.41 131.5 1115.1 131.67 1114.04 131.89C1113 132.11 1112.16 132.38 1111.52 132.7C1110.9 133 1110.46 133.35 1110.2 133.75C1109.94 134.13 1109.81 134.56 1109.81 135.04C1109.81 135.46 1109.9 135.82 1110.08 136.12C1110.26 136.4 1110.49 136.64 1110.77 136.84C1111.07 137.02 1111.41 137.16 1111.79 137.26C1112.19 137.34 1112.6 137.38 1113.02 137.38ZM1127.35 139V124.42H1129.39L1129.6 127.87H1129.69C1130.45 126.69 1131.38 125.76 1132.48 125.08C1133.6 124.4 1134.84 124.06 1136.2 124.06C1136.74 124.06 1137.24 124.11 1137.7 124.21C1138.16 124.29 1138.62 124.44 1139.08 124.66L1138.51 126.79C1137.99 126.61 1137.55 126.48 1137.19 126.4C1136.85 126.32 1136.39 126.28 1135.81 126.28C1134.71 126.28 1133.65 126.6 1132.63 127.24C1131.63 127.86 1130.69 128.93 1129.81 130.45V139H1127.35Z" fill="white"/>
<rect x="104" y="461" width="335" height="96" stroke="#B3EAB2" stroke-width="4"/>
<path d="M148.642 520V500.32H154.582C155.662 500.32 156.652 500.42 157.552 500.62C158.452 500.82 159.222 501.15 159.862 501.61C160.502 502.05 160.992 502.64 161.332 503.38C161.692 504.12 161.872 505.03 161.872 506.11C161.872 507.15 161.692 508.05 161.332 508.81C160.992 509.57 160.492 510.2 159.832 510.7C159.192 511.2 158.422 511.58 157.522 511.84C156.642 512.08 155.662 512.2 154.582 512.2H151.132V520H148.642ZM151.132 510.16H154.282C156.022 510.16 157.302 509.84 158.122 509.2C158.942 508.54 159.352 507.51 159.352 506.11C159.352 504.69 158.932 503.71 158.092 503.17C157.252 502.61 155.982 502.33 154.282 502.33H151.132V510.16ZM167.95 520V505.42H169.99L170.2 508.87H170.29C171.05 507.69 171.98 506.76 173.08 506.08C174.2 505.4 175.44 505.06 176.8 505.06C177.34 505.06 177.84 505.11 178.3 505.21C178.76 505.29 179.22 505.44 179.68 505.66L179.11 507.79C178.59 507.61 178.15 507.48 177.79 507.4C177.45 507.32 176.99 507.28 176.41 507.28C175.31 507.28 174.25 507.6 173.23 508.24C172.23 508.86 171.29 509.93 170.41 511.45V520H167.95ZM190.559 520.36C189.599 520.36 188.679 520.19 187.799 519.85C186.939 519.51 186.179 519.02 185.519 518.38C184.859 517.72 184.329 516.92 183.929 515.98C183.549 515.02 183.359 513.94 183.359 512.74C183.359 511.52 183.549 510.44 183.929 509.5C184.329 508.54 184.859 507.73 185.519 507.07C186.179 506.41 186.939 505.91 187.799 505.57C188.679 505.23 189.599 505.06 190.559 505.06C191.519 505.06 192.429 505.23 193.289 505.57C194.169 505.91 194.939 506.41 195.599 507.07C196.259 507.73 196.779 508.54 197.159 509.5C197.559 510.44 197.759 511.52 197.759 512.74C197.759 513.94 197.559 515.02 197.159 515.98C196.779 516.92 196.259 517.72 195.599 518.38C194.939 519.02 194.169 519.51 193.289 519.85C192.429 520.19 191.519 520.36 190.559 520.36ZM190.559 518.32C191.259 518.32 191.889 518.19 192.449 517.93C193.029 517.65 193.519 517.27 193.919 516.79C194.339 516.29 194.659 515.7 194.879 515.02C195.099 514.34 195.209 513.58 195.209 512.74C195.209 511.9 195.099 511.14 194.879 510.46C194.659 509.76 194.339 509.16 193.919 508.66C193.519 508.16 193.029 507.78 192.449 507.52C191.889 507.24 191.259 507.1 190.559 507.1C189.859 507.1 189.219 507.24 188.639 507.52C188.079 507.78 187.589 508.16 187.169 508.66C186.769 509.16 186.459 509.76 186.239 510.46C186.019 511.14 185.909 511.9 185.909 512.74C185.909 513.58 186.019 514.34 186.239 515.02C186.459 515.7 186.769 516.29 187.169 516.79C187.589 517.27 188.079 517.65 188.639 517.93C189.219 518.19 189.859 518.32 190.559 518.32ZM206.807 520V507.43H202.637V505.57L206.807 505.42V504.19C206.807 502.41 207.277 500.98 208.217 499.9C209.177 498.82 210.667 498.28 212.687 498.28C214.127 498.28 215.527 498.56 216.887 499.12L216.317 500.98C215.717 500.7 215.157 500.52 214.637 500.44C214.137 500.34 213.567 500.29 212.927 500.29C211.607 500.29 210.657 500.63 210.077 501.31C209.517 501.97 209.237 502.9 209.237 504.1V505.42H215.357V507.43H209.237V520H206.807ZM227.015 520V507.43H220.235V505.42H229.475V520H227.015ZM227.975 502.36C227.415 502.36 226.945 502.19 226.565 501.85C226.185 501.49 225.995 501.02 225.995 500.44C225.995 499.86 226.185 499.4 226.565 499.06C226.945 498.7 227.415 498.52 227.975 498.52C228.535 498.52 229.005 498.7 229.385 499.06C229.765 499.4 229.955 499.86 229.955 500.44C229.955 501.02 229.765 501.49 229.385 501.85C229.005 502.19 228.535 502.36 227.975 502.36ZM247.733 520.36C246.173 520.36 244.983 519.92 244.163 519.04C243.343 518.16 242.933 516.85 242.933 515.11V500.65H237.743V498.64H245.393V515.29C245.393 516.37 245.653 517.15 246.173 517.63C246.693 518.09 247.393 518.32 248.273 518.32C249.133 518.32 250.043 518.1 251.003 517.66L251.633 519.49C250.953 519.77 250.333 519.98 249.773 520.12C249.213 520.28 248.533 520.36 247.733 520.36ZM263.412 520.36C262.312 520.36 261.282 520.19 260.322 519.85C259.382 519.51 258.552 519.01 257.832 518.35C257.132 517.69 256.572 516.89 256.152 515.95C255.752 514.99 255.552 513.9 255.552 512.68C255.552 511.5 255.752 510.44 256.152 509.5C256.572 508.56 257.122 507.76 257.802 507.1C258.502 506.44 259.292 505.94 260.172 505.6C261.072 505.24 262.012 505.06 262.992 505.06C264.032 505.06 264.962 505.23 265.782 505.57C266.622 505.89 267.322 506.35 267.882 506.95C268.462 507.55 268.902 508.27 269.202 509.11C269.502 509.95 269.652 510.88 269.652 511.9C269.652 512.18 269.642 512.45 269.622 512.71C269.602 512.97 269.572 513.2 269.532 513.4H258.042C258.202 515.06 258.802 516.31 259.842 517.15C260.902 517.97 262.192 518.38 263.712 518.38C264.592 518.38 265.382 518.26 266.082 518.02C266.802 517.76 267.492 517.42 268.152 517L269.052 518.62C268.332 519.1 267.502 519.51 266.562 519.85C265.642 520.19 264.592 520.36 263.412 520.36ZM263.052 507.01C262.452 507.01 261.872 507.11 261.312 507.31C260.772 507.51 260.282 507.8 259.842 508.18C259.402 508.54 259.032 509 258.732 509.56C258.432 510.12 258.222 510.76 258.102 511.48H267.402C267.302 509.98 266.862 508.86 266.082 508.12C265.322 507.38 264.312 507.01 263.052 507.01ZM296.448 508.99L295.518 511.99H301.398L300.468 508.99C300.128 507.89 299.788 506.8 299.448 505.72C299.128 504.62 298.818 503.5 298.518 502.36H298.398C298.078 503.5 297.758 504.62 297.438 505.72C297.118 506.8 296.788 507.89 296.448 508.99ZM290.448 520L297.078 500.32H299.898L306.528 520H303.888L302.028 514H294.888L292.998 520H290.448ZM315.157 520L309.007 505.42H311.497L314.857 513.7C315.157 514.44 315.437 515.17 315.697 515.89C315.977 516.59 316.247 517.29 316.507 517.99H316.627C316.887 517.29 317.137 516.59 317.377 515.89C317.637 515.17 317.917 514.44 318.217 513.7L321.577 505.42H323.947L317.917 520H315.157ZM332.845 520.36C332.165 520.36 331.525 520.26 330.925 520.06C330.325 519.88 329.795 519.62 329.335 519.28C328.895 518.92 328.545 518.49 328.285 517.99C328.025 517.47 327.895 516.88 327.895 516.22C327.895 515.4 328.085 514.69 328.465 514.09C328.865 513.47 329.485 512.94 330.325 512.5C331.185 512.06 332.285 511.7 333.625 511.42C334.965 511.14 336.575 510.92 338.455 510.76C338.435 510.26 338.355 509.79 338.215 509.35C338.075 508.91 337.855 508.53 337.555 508.21C337.255 507.87 336.855 507.6 336.355 507.4C335.875 507.2 335.285 507.1 334.585 507.1C333.625 507.1 332.705 507.29 331.825 507.67C330.945 508.03 330.165 508.42 329.485 508.84L328.525 507.16C328.885 506.92 329.305 506.68 329.785 506.44C330.285 506.18 330.805 505.95 331.345 505.75C331.905 505.55 332.495 505.39 333.115 505.27C333.735 505.13 334.365 505.06 335.005 505.06C337.005 505.06 338.485 505.61 339.445 506.71C340.425 507.79 340.915 509.24 340.915 511.06V520H338.905L338.695 518.02H338.605C337.785 518.66 336.875 519.21 335.875 519.67C334.895 520.13 333.885 520.36 332.845 520.36ZM333.505 518.38C334.345 518.38 335.165 518.2 335.965 517.84C336.785 517.46 337.615 516.92 338.455 516.22V512.38C336.895 512.5 335.585 512.67 334.525 512.89C333.485 513.11 332.645 513.38 332.005 513.7C331.385 514 330.945 514.35 330.685 514.75C330.425 515.13 330.295 515.56 330.295 516.04C330.295 516.46 330.385 516.82 330.565 517.12C330.745 517.4 330.975 517.64 331.255 517.84C331.555 518.02 331.895 518.16 332.275 518.26C332.675 518.34 333.085 518.38 333.505 518.38ZM355.273 520.36C354.213 520.36 353.323 520.22 352.603 519.94C351.883 519.64 351.303 519.23 350.863 518.71C350.423 518.17 350.103 517.53 349.903 516.79C349.723 516.05 349.633 515.23 349.633 514.33V507.43H345.523V505.57L349.723 505.42L350.053 500.74H352.093V505.42H359.263V507.43H352.093V514.36C352.093 515.02 352.153 515.6 352.273 516.1C352.393 516.58 352.593 516.99 352.873 517.33C353.153 517.67 353.533 517.93 354.013 518.11C354.493 518.27 355.083 518.35 355.783 518.35C356.483 518.35 357.113 518.29 357.673 518.17C358.233 518.05 358.773 517.89 359.293 517.69L359.833 519.49C359.173 519.73 358.473 519.93 357.733 520.09C357.013 520.27 356.193 520.36 355.273 520.36ZM368.821 520.36C368.141 520.36 367.501 520.26 366.901 520.06C366.301 519.88 365.771 519.62 365.311 519.28C364.871 518.92 364.521 518.49 364.261 517.99C364.001 517.47 363.871 516.88 363.871 516.22C363.871 515.4 364.061 514.69 364.441 514.09C364.841 513.47 365.461 512.94 366.301 512.5C367.161 512.06 368.261 511.7 369.601 511.42C370.941 511.14 372.551 510.92 374.431 510.76C374.411 510.26 374.331 509.79 374.191 509.35C374.051 508.91 373.831 508.53 373.531 508.21C373.231 507.87 372.831 507.6 372.331 507.4C371.851 507.2 371.261 507.1 370.561 507.1C369.601 507.1 368.681 507.29 367.801 507.67C366.921 508.03 366.141 508.42 365.461 508.84L364.501 507.16C364.861 506.92 365.281 506.68 365.761 506.44C366.261 506.18 366.781 505.95 367.321 505.75C367.881 505.55 368.471 505.39 369.091 505.27C369.711 505.13 370.341 505.06 370.981 505.06C372.981 505.06 374.461 505.61 375.421 506.71C376.401 507.79 376.891 509.24 376.891 511.06V520H374.881L374.671 518.02H374.581C373.761 518.66 372.851 519.21 371.851 519.67C370.871 520.13 369.861 520.36 368.821 520.36ZM369.481 518.38C370.321 518.38 371.141 518.2 371.941 517.84C372.761 517.46 373.591 516.92 374.431 516.22V512.38C372.871 512.5 371.561 512.67 370.501 512.89C369.461 513.11 368.621 513.38 367.981 513.7C367.361 514 366.921 514.35 366.661 514.75C366.401 515.13 366.271 515.56 366.271 516.04C366.271 516.46 366.361 516.82 366.541 517.12C366.721 517.4 366.951 517.64 367.231 517.84C367.531 518.02 367.871 518.16 368.251 518.26C368.651 518.34 369.061 518.38 369.481 518.38ZM383.81 520V505.42H385.85L386.06 508.87H386.15C386.91 507.69 387.84 506.76 388.94 506.08C390.06 505.4 391.3 505.06 392.66 505.06C393.2 505.06 393.7 505.11 394.16 505.21C394.62 505.29 395.08 505.44 395.54 505.66L394.97 507.79C394.45 507.61 394.01 507.48 393.65 507.4C393.31 507.32 392.85 507.28 392.27 507.28C391.17 507.28 390.11 507.6 389.09 508.24C388.09 508.86 387.15 509.93 386.27 511.45V520H383.81Z" fill="white"/>
<path d="M497 123.5C494.5 123.5 492.5 125.5 492.5 128C492.5 130.5 494.5 132.5 497 132.5C499.5 132.5 501.5 130.5 501.5 128C501.5 125.5 499.5 123.5 497 123.5Z" fill="white"/>
<path d="M439.939 315.939C439.354 316.525 439.354 317.475 439.939 318.061L449.485 327.607C450.071 328.192 451.021 328.192 451.607 327.607C452.192 327.021 452.192 326.071 451.607 325.485L443.121 317L451.607 308.515C452.192 307.929 452.192 306.979 451.607 306.393C451.021 305.808 450.071 305.808 449.485 306.393L439.939 315.939ZM494 128C494 126.328 495.328 125 497 125V122C493.672 122 491 124.672 491 128H494ZM497 125C498.672 125 500 126.328 500 128H503C503 124.672 500.328 122 497 122V125ZM500 128C500 129.672 498.672 131 497 131V134C500.328 134 503 131.328 503 128H500ZM497 131C495.328 131 494 129.672 494 128H491C491 131.328 493.672 134 497 134V131ZM492.5 126.5H489V129.5H492.5V126.5ZM467.5 148V297H470.5V148H467.5ZM449 315.5H441V318.5H449V315.5ZM467.5 297C467.5 307.217 459.217 315.5 449 315.5V318.5C460.874 318.5 470.5 308.874 470.5 297H467.5ZM489 126.5C477.126 126.5 467.5 136.126 467.5 148H470.5C470.5 137.783 478.783 129.5 489 129.5V126.5Z" fill="white"/>
<path d="M636 173.5C633.5 173.5 631.5 175.5 631.5 178C631.5 180.5 633.5 182.5 636 182.5C638.5 182.5 640.5 180.5 640.5 178C640.5 175.5 638.5 173.5 636 173.5Z" fill="white"/>
<path d="M634.939 268.061C635.525 268.646 636.475 268.646 637.061 268.061L646.607 258.515C647.192 257.929 647.192 256.979 646.607 256.393C646.021 255.808 645.071 255.808 644.485 256.393L636 264.879L627.515 256.393C626.929 255.808 625.979 255.808 625.393 256.393C624.808 256.979 624.808 257.929 625.393 258.515L634.939 268.061ZM633 178C633 176.328 634.328 175 636 175V172C632.672 172 630 174.672 630 178H633ZM636 175C637.672 175 639 176.328 639 178H642C642 174.672 639.328 172 636 172V175ZM639 178C639 179.672 637.672 181 636 181V184C639.328 184 642 181.328 642 178H639ZM636 181C634.328 181 633 179.672 633 178H630C630 181.328 632.672 184 636 184V181ZM634.5 182.5V267H637.5V182.5H634.5Z" fill="white"/>
<path d="M775 123.5C772.5 123.5 770.5 125.5 770.5 128C770.5 130.5 772.5 132.5 775 132.5C777.5 132.5 779.5 130.5 779.5 128C779.5 125.5 777.5 123.5 775 123.5Z" fill="white"/>
<path d="M832.061 318.061C832.646 317.475 832.646 316.525 832.061 315.939L822.515 306.393C821.929 305.808 820.979 305.808 820.393 306.393C819.808 306.979 819.808 307.929 820.393 308.515L828.879 317L820.393 325.485C819.808 326.071 819.808 327.021 820.393 327.607C820.979 328.192 821.929 328.192 822.515 327.607L832.061 318.061ZM772 128C772 126.328 773.328 125 775 125V122C771.672 122 769 124.672 769 128H772ZM775 125C776.672 125 778 126.328 778 128H781C781 124.672 778.328 122 775 122V125ZM778 128C778 129.672 776.672 131 775 131V134C778.328 134 781 131.328 781 128H778ZM775 131C773.328 131 772 129.672 772 128H769C769 131.328 771.672 134 775 134V131ZM779.5 129.5H783V126.5H779.5V129.5ZM801.5 148V297H804.5V148H801.5ZM823 318.5H831V315.5H823V318.5ZM801.5 297C801.5 308.874 811.126 318.5 823 318.5V315.5C812.783 315.5 804.5 307.217 804.5 297H801.5ZM783 129.5C793.217 129.5 801.5 137.783 801.5 148H804.5C804.5 136.126 794.874 126.5 783 126.5V129.5Z" fill="white"/>
<path d="M940.061 129.061C940.646 128.475 940.646 127.525 940.061 126.939L930.515 117.393C929.929 116.808 928.979 116.808 928.393 117.393C927.808 117.979 927.808 118.929 928.393 119.515L936.879 128L928.393 136.485C927.808 137.071 927.808 138.021 928.393 138.607C928.979 139.192 929.929 139.192 930.515 138.607L940.061 129.061ZM775 129.5H939V126.5H775V129.5Z" fill="white"/>
<path d="M270.439 460.061C271.025 460.646 271.975 460.646 272.561 460.061L282.107 450.515C282.692 449.929 282.692 448.979 282.107 448.393C281.521 447.808 280.571 447.808 279.985 448.393L271.5 456.879L263.015 448.393C262.429 447.808 261.479 447.808 260.893 448.393C260.308 448.979 260.308 449.929 260.893 450.515L270.439 460.061ZM300.5 367V397.75H303.5V367H300.5ZM270 428.25V459H273V428.25H270ZM286.75 411.5C277.499 411.5 270 418.999 270 428.25H273C273 420.656 279.156 414.5 286.75 414.5V411.5ZM300.5 397.75C300.5 405.344 294.344 411.5 286.75 411.5V414.5C296.001 414.5 303.5 407.001 303.5 397.75H300.5Z" fill="white"/>
</svg>
