<svg xmlns="http://www.w3.org/2000/svg" width="818" height="1194" fill="none" viewBox="0 0 818 1194">
    <path fill="#FFDBB4" fill-rule="evenodd" d="M96.8 1170c61.2 1.7 119 3.5 180.2 0 97.8-6.1 384.8 4.8 447.8 0 4.8-.4 21.2 4.8 21.5 0 2.8-33.9 4.6-376-3.7-399.4C734.4 747 693.7 633.9 642 581c-14.4-14.2-36.4-19.7-48.6-36.2-10.4-18-9.6-28.5-20-38-4.4-4-15-5.7-22.9-11.4-8-7.9-.4-25.2-3.7-36.1-6.7-27.3-31.3-44.9-58.2-49-37.5-9-77-.5-95 29-6.6 10.9-3 24.2-11.3 41.7.6 13.3-14.9 16.5-24.1 21.7l-18.4 18.6c-56.6 31.8-123.2 49-172.8 91.8-42.1 42.8-84 92.2-102.8 150.1-3.9 15.8-5.1 32-6.7 48.2C52.8 858.5 40 904.3 29 950c-12.6 57.8-24.2 119.2-7.4 177.5 5 12.4 64 41.8 75 42.3z" clip-rule="evenodd"/>
    <path fill="#E78276" fill-rule="evenodd" d="M382 481l4.7.5v36.8l62.6 65 11.4 13.1c-6.8 24.3 0 36.5 20.6 36.5 30.8 0 7-9 12.8-21l.2-.6c4.2-8.3 18.6-25.9 43.1-52.8l28.2-47v-8.6l1 .4c2.6 1.1 4.9 2.2 6.4 3.7 10.4 9.4 9.5 20 20 38 12.2 16.4 34.2 21.9 48.6 36.2 51.8 52.7 92.5 165.8 100.7 189.4 8.3 23.5 6.5 365.6 3.7 399.4-.3 4.8-16.7-.4-21.5 0-63 4.8-350-6-447.9 0-61 3.6-119 1.7-180.1 0-11.1-.6-70.2-30-75-42.4-17-58.3-5.3-119.6 7.2-177.4l1.1-4.5c10.6-43.6 22.4-87.1 27-131.9l.3-2.3c1.6-16.1 2.8-32.4 6.7-48.2 18.7-57.8 60.6-107.3 102.8-150 49.1-42.4 114.9-59.7 171-91l1.8-.9 18.4-18.5.5-.4c9.3-5 24.2-8.4 23.6-21.4v-.1z" clip-rule="evenodd"/>
    <path fill="#000" fill-rule="evenodd" d="M390.3 444c.5-1.6 2.6-1.1 2.8.4 1.6 15-.4 30.8-2.4 45.8-.9 7.2-1.4 14.8-2.8 21.9a94 94 0 00-.5 2.3c.4.8 1.8 1.7 2.5 2.4l2.8 2.7 5.6 5.5 33.2 32.1 16.3 15.8c5.6 5.4 11.9 10.6 16.8 16.6 2.6 3.3 3.2 7.3.6 10.8a8.9 8.9 0 01-6 3.2c1 1.3 1.7 2.7 2.1 4.4 1 3.2-2.4 7.3-5.9 5.9-4-1.5-7.3-4.3-11.4-5.6a27.3 27.3 0 00-12.9-.9c-2 .3-3.8.8-5.7 1.4a166.2 166.2 0 0077.2 15 125.3 125.3 0 0047.4-12.5l.2-.1c.6-.4 11.4-6.5 11.6-7.5.2-.9.2-1.2-.1-2-.4-.8-1.4-1.4-1.4-1.4a27.5 27.5 0 00-10.5-2.8c-8.4 0-17.6 6.2-24.6 10.5-7.7 4.6-14.7 10.1-22.1 15.2a1 1 0 01-.6.1c-.7 0-1.4-1-1-1.7a87.4 87.4 0 0120-20l3-2.2a55.8 55.8 0 0123.1-12c10.2-1.5 20.8 4.9 30 8.6l16 6.6c2.9 1.2 6 2.2 9 3.5l-6.8-21.1-10.1-31.7-.6-2c-3.4-10.8-6.4-22-12-31.7-1.3-2.4-2.8-4.6-4.3-6.8-1.5-2.3-2-4.9-4-7-3.9-4-9.4-6.4-14.7-8-1.3-.4-1-2 .3-2.2a29 29 0 0115.5 3l2 1c4.6 2.1 9.2 4.2 12.6 8.1 7.8 9 12 20.3 15.7 31.4l1 3a45 45 0 0112 3.2c35.7 15 63.2 43.1 83.2 76 22 36 34 77.2 44 118 3 12.5 5.9 25.1 8.7 37.7-12.5 4.9-25.8 7.4-37.5 14.1-4.4 2.6-.4 9.5 4 7 11-6.4 23.5-8.7 35.2-13.2 6.4 29.3 12 58.7 16.8 88.2a1672.2 1672.2 0 0123.1 274.8c0 2-.6 4.3-1.7 6.3.7-.4 1.2-.8 1.5-1.2 3.6-5.8 12.9-.4 9.2 5.4l-.6.8a25 25 0 01-10.2 10c-5 2.5-10.3 2.9-15.7 3-18.5.5-37 .8-55.6 1-2.5-19.8-3.5-39.7-7-59.4-1-5-8.6-3-7.7 2.1 3.3 19 4.4 38.3 6.8 57.5-39.6.4-79.2.4-118.7.5-53.6.2-107.2 0-160.8 0h-23c-61.8 0-123.7-.2-185.6-.6l-14.8-.1a632.3 632.3 0 01-9.9-104.4c0-5.2-8-5.2-8 0 .1 35 4 69.8 9.9 104.3-14.7 0-29.4 0-44 .5l-7.5.3c-14.9.5-29.9.8-44.8-.3a124 124 0 01-48-12.2 68 68 0 01-17.6-13.3c5-3 10.3-5.8 15.2-9 4.3-2.9.3-9.8-4-7-5.4 3.5-11 6.6-16.5 9.8-4-5.3-7.2-11.2-9.7-17.6-3.9-10-5.4-20.8-6.7-31.4a307 307 0 01-2.2-37.7c0-26.5 2.8-53 6.7-79.1 3.7-25.1 8.6-50 13.8-74.8l.7-3.4c5.2-24.3 10-48.8 16-73a754.4 754.4 0 0119.1-66.5c6.7 4.1 13.7 7.7 20.2 12 4.4 2.8 8.4-4.1 4-7-7-4.5-14.4-8.3-21.5-12.8a496 496 0 0130-68.1c23.6-43.8 55.4-83 96.2-112a283.3 283.3 0 0166.2-35 276 276 0 0174.2-15.5c.7-.1 1 .6 1 1.2v.1l1 .2c.4-2.5 1.2-5 2.6-7.2 3.3-5 9.6-8.3 14.6-11.5l1.2-.7c6-3.7 12.2-7.3 19.1-8.6.3 0 .4.2.3.4-4.6 5.2-10.4 9.2-15.8 13.6l-1.2 1c-4.5 3.7-10.6 7.9-10.8 14-.2 7.1 1.3 14.6 1.8 21.8a665.6 665.6 0 01-1.3 98.3l10-6.8c15.7-10.4 31.3-20.9 47.3-30.7 9.7-5.9 20.6-11 32.2-10.7 3.2 0 7 .5 10.4 1.5-3.8-3.6-7.4-7.4-11.1-11l-18.3-17.9-17.6-17.1-17.7-17.2c-5.4-5.3-11.8-10.2-11.3-18.6.5-6.7 4-13.4 6.3-19.8l.9-2.8c4.7-15.6 7.3-31.8 12.1-47.4zM618 1114.2c-3.6-3.6-9.3 2-5.7 5.7l2 1.9c3.2 3.2 6.4 6.5 8.6 10.5l.3.6c2.4 4.5 9.3.5 7-4-3-5.7-7.7-10.2-12.2-14.7zm-156.1-1a90 90 0 00-34.4 0c-5 1-3 8.7 2.1 7.7 10.2-2 20-2 30.1 0 5 1 7.2-6.7 2.2-7.7zm-156.7-80.7c-5-1.2-7.1 6.5-2.1 7.8l2.4.6a53 53 0 0025 1.7c5-1.1 3-8.6-1.9-7.8h-.2c-8 1.8-15.4-.3-23.2-2.3zm278.2-52c-3.7-3.5-9.3 2.1-5.6 5.7a25 25 0 0016.6 8.1c5.1.2 5.2-7.6.3-8h-.3c-4.4 0-7.9-2.7-11-5.7zm-470.8-21.3c4.6-2.3.6-9.2-4-6.9l-27.7 13.8c-4.6 2.3-.5 9.2 4 7l27.7-13.9zM659 961c-5.1-.2-5.1 7.8 0 8 4.9.1 9.8 2 14.2 4 4.6 2.3 8.6-4.6 4-6.9-5.6-2.7-11.8-5-18.2-5.1zm-258.3-38.6c4.3-3 .3-9.9-4-7-5.9 4-11.1 8.7-16.9 12.8l-1.6 1c-4.2 3-.2 9.9 4 7 6.4-4.3 12.2-9.5 18.5-13.8zm297.5-58.2c-5.1 0-5.1 8 0 8h1c4.2 0 8.7-.1 12.7 1.6l.4.2c4.7 2.2 8.7-4.7 4-7a41.1 41.1 0 00-18-2.8zm-444.3-5.7l.7-.2c4.8-1.8 2.7-9.5-2.1-7.8-7.3 2.7-13 7.6-19.4 12-4.2 2.8-.2 9.8 4 6.9 5.5-3.8 10.6-8.5 16.8-10.9zM554 837.7l1-.6c4.7-2.3.6-9.2-4-6.9-3.6 1.9-6.8 4.4-10.4 6.3l-1 .6c-4.7 2.4-.6 9.3 4 7 3.6-2 6.8-4.4 10.4-6.4zm-121.7-77.5l-.8-.8c-3.7-3.6-9.4 2-5.7 5.7 9.2 9 20.1 15.8 31 22.4l2 1.2c4.5 2.7 8.5-4.2 4.1-6.9l-3-1.7c-9.7-6-19.3-12-27.6-19.9zm-221.4-7.5c3.1-4-3.6-8-6.8-4.1v.1c-3.3 4.2-7.1 8-11.2 11.4l-.7.7c-2.4 2-6.7 6.4-10 6.7-5.2.4-5.2 8.4 0 8 5.1-.5 9.6-4.1 13.5-7.3a90.3 90.3 0 0015.2-15.5zm425.6-29.1c3.8-3.5-1.7-9-5.5-5.8l-.1.1c-7 6.6-17 8.3-26 10.5-4.9 1.3-2.8 9 2.2 7.7l4.1-1c9.1-2.2 18.3-4.9 25.3-11.5zM478 673c-5-1.2-7.1 6.5-2.1 7.7 8.5 2.2 16.5 5 24.4 8.9 4.6 2.2 8.6-4.7 4-7-8.5-4.1-17.2-7.2-26.3-9.6zm81.7-168.6c-.1-.4.3-.8.6-.7 9 3.4 4.3 15.2 1.5 22.2l-.5 1.3a174 174 0 01-17.2 32.3 272.4 272.4 0 01-34.4 42.2l-1.4 1.5c-4 3.9-9 10.7-15.2 10-6.6-.9-10.2-7.9-5.4-13.2 3.4-3.8 8-6.8 11.9-10.3a258.3 258.3 0 0031.3-34c6.1-8 12-16.2 17.2-24.7l1-1.7c4.1-6.6 13.4-16.4 10.6-25zm-318 83.8c-4.3-3-8.3 4-4.1 6.9 7.8 5.3 14.6 11.7 23 16.1 4.6 2.4 8.6-4.3 4.2-6.8h-.1c-8.4-4.5-15.3-10.9-23-16.2z" clip-rule="evenodd"/>
    <path fill="#FFDBB4" fill-rule="evenodd" d="M662.4 143.8c-.3-12-17.7-16.9-22.7-5l-1 .9c1.6-1.4-1.7.8-2.3 1.1l-1.4.7c-3.2-30.3-14.2-63-42.5-78.2-39.6-19.1-85.3-22.9-128.6-21-22 1.3-47.4 4.8-67-6.3-6-3.4-10.9-8.9-17.8-11-21.7-6-31.5 16.4-28.5 34.7-9.3 0-18.5 5.2-22.5 13.6-2.3 5-2.3 10.4-4.3 15.4-6.2 12.7-15.1 21.9-10 37.3-9 10-3.9 25.2 3.3 34.9 3.5 5 7.7 9.8 10.2 15.4 2.5 5.3-1.2 11.7-3.3 16.8-15.6 36.8-14.7 77.4-6.3 115.9-16.8 7.2-21.8 30-10.9 44.3 3.8 5 8.4 7 13.6 10 6.6 3.7 1.2 18.2 3.3 25.3 2.9 17.1 18.5 27.6 33.9 16.5 9.8-1.5 17.7 27 24.8 34.2 4.4 5.7 9.2 10.9 14.5 15.7 15.7 40.5 96.5 61 136.4 58.7 41.7-4.4 70-39.9 93.4-71.4 12-16.7 19.9-35.5 22.7-56 3-20.6 1.7-41.2-.3-61.8-4-43.8-10.5-107-14.6-151.2 15-1.2 28.4-14 27.9-29.5z" clip-rule="evenodd"/>
    <path fill="#ECDCBF" fill-rule="evenodd" d="M364 30.8c2.8-2.9 7.6 0 10.7 2.4l.7.5 2 1.5c4.6 3.5 8.8 7.3 13.7 10.3 5.3 3.3 11.1 6 17 8a122 122 0 0035.8 6.7c49.6 2.4 107.2-23.6 152.2 7.5A56.9 56.9 0 01617.9 98c4.3 14 2.8 28.3 6.3 42.3 1.5 6 12 6.9 13.2.2v-.5l1-.6.3-.2c.4-.2.6-.3.2 0h.1l.3-.3.3-.3c2.3-5.3 7-7.3 11.5-6.7l-.1.3-1.4 3.4-.4 1.1c-1.6 4-3.4 7.8-6.4 11.2a42 42 0 01-15.5 11.2c-1.3.5-1.1 2.2.3 2.3a37 37 0 0034.7-19.1l.1 1.3c0 1.5 0 3-.2 4.4-.8.3-1.5.7-2.2 1.3-4.3 3.6-6.5 9.5-10.5 13.5a42.2 42.2 0 01-15.5 10.2l-1.4-4.8c-.2-.6-1-.5-1.1.1-.1 1.1-15.8-10-27.9-8.2-22.7 3.4-28 16.6-60.6 14.7-16-1-49.6-15.9-79-17-26.7-1-74.4 14.2-87 23-6.5 4.5 12 19.6 8.6 26.5-9.5 19.4-5.7 45.1-15.6 60.5l-.4.6c-6.3 9.3-2.4 34.2-4.8 41.8-4.5 13.9-12 7.8-10.8 9.7.4.6 1.3.2 1.1-.5a32 32 0 00-22-22.5c.5-2.7-.4-6-2-8.1l-.7-3.1-.6-3c-1.4-6.8-2.7-13.6-3.4-20.6A196.2 196.2 0 01333 190l.3-1.5 2.5-10.3c6.2 1.7 12.5 2.8 18.6 3.4 7.2.6 14.3.6 21.3 0 6.2 17 6 36.2-1.7 52.7-9 19.3-31.1 37.8-25 61.2 2.6 10.2 18 8.2 18.4-2.2v-.3c0-10.2 3.5-18.6 8.1-27.3l.7-1.2 1-2a93.3 93.3 0 0011.7-32c2.2-17-1.3-34.4-9.7-49.2 29.9-3.1 58.8-15 88-21.3l1.3-.3 1.3-.3c21.6-4.3 45.3-4.8 64.9 6.5.4.2.7-.3.3-.6-28.3-20.4-65-17.5-97.6-10.3l-1.9.4-1.8.4c-30 7-61.6 17.2-92.3 8.2-8-2.3-15.8-6.2-22-11.7l-.5-.5c-2.7-2.4-5.7-5.5-6.2-9.1-.2-1.3-.1-2.1.6-3.2.8-1 2.2-1 1.4-1.4 9.2 4.5 17-8.3 8.4-13.8l-.6-.4c-11-7-5.5-23 7.2-22.9h.6c7.2 0 9.4-8.4 5.6-13.4l-.4-.5c-7.2-9.2 4.9-20.3 14.2-15.1l.6.3c4.4 2.4 9-.3 10.8-4.6 3.6-9.4 1.7-19 1.5-28.6V36c0-2 .3-4.2 1.4-5.3zm270.3 143.7H634.6l.2 1.9-.2-1-.3-1zm-307.2 1.2l-.2-.4.7.3-.3.4-.2-.3zm196.2-53.6c-.8-.2-1.3 1-.6 1.3A101.6 101.6 0 01566 162c1 1.6 2.6 2 4.4 1.8.8-.1 1.3-.6 1.8-1.1l.1-.2.4-.5c.8-1 .7-2.8 0-3.9a86.6 86.6 0 00-49.4-36zm43.8-5.5c-.8 0-1.3 1.2-.6 1.7a71 71 0 0114.1 15.4c1.9 2.8 3.4 5.9 4.5 9.1 1.2 3.5 1.6 7.1 3.3 10.4 2.9 5.6 10.6 2.5 11-3 .5-8.1-6.3-17.3-11.7-22.9a34.8 34.8 0 00-20-10.7h-.6zm-202.8-6.4c-2.2-.6-4 2.3-2.3 4a64.5 64.5 0 0036 15.4l.7.1c12.2 1.7 30 2.7 39.3-7.3 2-2.1 1.4-6.2-1.8-6.8-4.3-1-8.7-.6-13 0h-1.3l-3.1.5a116 116 0 01-18.5 1.1c-12.3-.4-24-4-36-7zm214.3-29.5c-1.3-.5-2.7 1.2-1.8 2.4 3.7 5.1 8.2 9.7 12 14.8 3.8 5 7 10.4 11.5 15 2.5 2.4 6.6 0 5.8-3.3a47.7 47.7 0 00-27.5-29zm-194.1 5.6c-1.4-.5-2.3 1.4-1.4 2.3 12.6 12.6 35.1 19.1 51.8 11.9 3.7-1.7 1.4-6.9-2-7.1-8.3-.5-16.6.5-24.9-.8a129 129 0 01-23.5-6.3zm21-16.8c-1.7-.8-2.5 1.9-1.2 2.9A30.2 30.2 0 00429 78c2.8-.6 2.2-5.2-.7-5-7.9.3-15.3-.5-22.6-3.5zM464 42.2c10.7-.5 21.6-.6 32.6-.2l-4.9.6-3.2.4a282 282 0 01-37.3 3 130 130 0 01-25.2-2.4c12.7.7 25.8-.7 38-1.4z" clip-rule="evenodd"/>
    <path fill="#4F66AF" fill-rule="evenodd" d="M336 117.5v0zM336 118.2l-.2-.2.2.2z" clip-rule="evenodd"/>
    <path fill="#000" fill-rule="evenodd" d="M660 149.5c5-4 12.7-.3 11 6.4-1.8 7.3-9.6 12.3-16.1 15.3a41.7 41.7 0 01-20.5 3.4c2 8 3.1 16.5 4.6 24.7 2 10.3 4 20.7 5.8 31 1.9 10 4.2 20 5.6 30l4.2 30.5c2.3 17 4.2 34 6.2 51l1 8.1c2 17 3.6 34.1-.2 51a126.7 126.7 0 01-20.8 44c-9 13-19.1 25.5-30.2 36.8-21.4 21.8-47.8 39.3-78.8 42.5a87.7 87.7 0 01-40-5l-1-.3c-12.6-5-28.1-13.6-31.4-27.7-2-8.6 6.8-15.4 14.6-11.3 3.6 2 6.4 4.1 9.3 6.8l.6.5a51.2 51.2 0 0022.7 11.7c12 3 25 2.5 37.1-1 26-7.6 46-27.4 63.2-47.3 9.4-10.8 18.2-22 25-34.6a83.6 83.6 0 0010.4-42c-.2-17-2.6-34-4.1-50.8-1.6-17.2-3-34.4-4.3-51.6-1.2-16.1-1.3-32.3-1.7-48.5l-.1-3-.6-25.8c-.2-8.5-.9-17.2 0-25.7 0-.7.9-.8 1-.2.6 1.6 1 3.2 1.5 4.9l.2-.2c5.7-2 11-5.8 15.3-10 4-4 6.2-10 10.5-13.6zm-312-120c3.5-14.7 19.7-18 31.6-11 5.7 3.5 10.3 8.4 15.7 12.3 5.3 3.9 11.2 7 17.4 9.2 12.3 4.4 25.3 6 38.4 6 31.7.2 62.8-8.7 94.6-7.7 24.6.7 50.7 8 68.5 25.8a75 75 0 0119.2 35c1.5 6 2.7 12.3 3.6 18.6l.2 1.5c.5 3.7 1.3 7.5 1.4 11.2 0 3.3-.7 6.8-1.2 10-1 7-11.7 6.2-13.2 0-3.5-13.9-2-28.3-6.3-42.1A56.9 56.9 0 00596 67.8c-45-31-102.6-5-152.2-7.5a122 122 0 01-35.8-6.6 93.2 93.2 0 01-17-8c-4.9-3.1-9.1-6.9-13.7-10.4l-2-1.5c-3-2.3-8.4-6-11.5-2.9-1.4 1.3-1.4 4.4-1.4 6.7v1c.1 10 2.2 19.8-1.5 29.3-1.7 4.3-6.4 7-10.8 4.6l-.3-.1c-9.4-5.6-21.7 5.6-14.5 15l.2.2c4 5 2 13.7-5.4 13.6h-.2c-13-.4-18.8 15.8-7.6 23l.4.1c9 5.5 1 18.5-8.2 14 .8.4-.6.4-1.4 1.5-.7 1-.8 1.8-.6 3.1.5 3.9 4 7.1 6.7 9.6 6.2 5.5 14 9.4 22 11.7 32 9.4 64.8-2 96-9 32.5-7.2 69.3-10 97.6 10.4.4.2 0 .7-.3.5-20.4-11.8-45.3-10.7-67.5-5.9-29.2 6.4-58.1 18.2-88 21.3a79.4 79.4 0 019.7 49.2 93.3 93.3 0 01-11.7 32l-1 2a59.9 59.9 0 00-8.8 28.5c0 10.6-15.8 12.9-18.4 2.5-6-23.4 16-41.9 25-61.2 7.7-16.5 8-35.8 1.7-52.7-7 .6-14.1.6-21.3 0-6.1-.5-12.4-1.6-18.6-3.4l-2.5 10.4a251.3 251.3 0 00-7.2 41.9c-.6 10.5-.6 21.1.4 31.6.9 9 2.8 17.8 4.7 26.7 1.6 2.1 2.5 5.4 2 8a32 32 0 0122 22.6c.2.7-.7 1-1 .5-7.3-12-26-16.4-37.8-8.5a27.4 27.4 0 00-9.3 35 31.4 31.4 0 0014.7 13.9l1.3.6c3.4 1.6 6.5 3.3 8.6 6.5 2.8 4.2 3 8.5 2.7 13.3l-.2 1.9a27 27 0 00.8 9.5l.2.7c.2.7.5 1.4 1 2.1 0 .2 1.4 1.5 1.8 2l.5.1h.6c.6 0 1.5-.2 1.2 0l.8-.6.3-.2c.9-1.3 2-2.3 3.2-3l1.3-.6c3.2-3.4 8.8-1.6 11 1.8a14 14 0 012.7 7.4c.3-.4.9-.7 1.2-.2l2.3 2.8c8.4 10.8 16.7 21.6 26.2 31.4 5.3 5.4 11 10.5 16.9 15.2 5 4 14.7 7.8 14.8 15 0 2.5-1.6 4.1-3.7 5-6.7 2.5-14.9-6.3-19.7-10.7l-.4-.3a142 142 0 01-16.3-17 102.2 102.2 0 01-21.3-40.2c-.1 2.6-1.3 5.1-3.4 7.6a21.2 21.2 0 01-11.1 6.3c-9.6 2.1-19-1.3-24.7-9.3a36.6 36.6 0 01-5.6-23.9v-1c.1-1.3.2-3.7.6-4.7l-3-1.6c-3.7-2-7.2-4.6-10.3-7.4a44.6 44.6 0 01-12.9-46.2c3.5-10.2 11-19 20.5-23.6-1.6-3.7-2.1-8-2.7-12l-.1-.6a173.5 173.5 0 01-.2-55.1 132 132 0 0121-55.8c-8.8-3.5-17-8.6-23.3-15.7-6.6-7.4-10.8-18-5.7-27.4 1.3-2.4 3-4.4 5-6a28.2 28.2 0 01-2.4-21 28.6 28.6 0 0117.3-18.4c-2-8.2-.3-16.9 5.7-23.7 6-6.7 15.3-9.1 24-7.6.4-8.7-2.3-17.9-.3-26.4zm-24.2 303.7a29.4 29.4 0 0125.1.4l.6.3c8.6 4.1 20 13.9 17.2 24.3-1.6 6-8.3 8.1-13.5 5.5-4.4-2.2-5.4-6.1-7.6-10-1.5-2.8-3.4-5-5.7-7.2-4.7-4.7-10-8.2-16.1-11-.9-.4-.9-1.9 0-2.3zm199-209.7c-.8-.4-.3-1.5.5-1.3a86.6 86.6 0 0149.4 36c.7 1.1.8 2.9 0 4l-.4.4c-.5.7-1 1.2-2 1.3-1.7.3-3.3-.2-4.3-1.8a101.6 101.6 0 00-43.3-38.6zm132.8 3.3c1.7-2.8 6.1-2.3 7 1l.1.2c.5 1 .3 1.3-.6.7a7.3 7.3 0 012.5 7.5c-3.6 15.7-21.5 27-37 25.4-1.4-.1-1.6-1.8-.3-2.3a42 42 0 0015.5-11.2c4.2-4.7 6-10 8.2-15.7a7.8 7.8 0 014-4.5l.6-1zM567 116.7c8 1 15 5 20.6 10.7 5.4 5.6 12.2 14.8 11.7 23-.4 5.4-8.1 8.5-11 3-1.7-3.4-2.1-7-3.3-10.5a42.9 42.9 0 00-4.5-9 71 71 0 00-14.1-15.5c-.7-.5-.2-1.7.6-1.7zM362 114.3c-1.8-1.7 0-4.6 2.3-4 12 3 23.7 6.7 36 7 6.2.2 12.4-.3 18.5-1l3-.5c4.9-.6 9.7-1.1 14.4-.1 3.2.6 3.8 4.7 1.8 6.8-9.2 10-27 9-39.3 7.3a65 65 0 01-36.7-15.5zm214.8-31.1c-.9-1.2.5-3 1.8-2.4a47.7 47.7 0 0127.5 28.9c.8 3.3-3.3 5.7-5.8 3.3-4.5-4.5-7.7-10-11.5-15-3.8-5.1-8.3-9.6-12-14.8zM383 88.7c-1-1 0-2.8 1.4-2.3a129 129 0 0023.5 6.3c8.3 1.3 16.6.3 25 .8 3.3.2 5.6 5.5 1.9 7-16.7 7.3-39.2.8-51.8-11.8zm21.2-16.2c-1.3-1-.5-3.7 1.3-3 7.3 3.1 14.7 3.9 22.6 3.6 2.9-.2 3.5 4.4.7 5a30.2 30.2 0 01-24.6-5.6z" clip-rule="evenodd"/>
    <path fill="#000" fill-rule="evenodd" d="M549.9 439c7.5-1.1 15.7-5.4 22.9-2 3.4 1.7 5 7.3 2.7 10.4-3.5 4.7-7.1 5.5-12.8 6-4.2.3-8.5.3-12.7-.2l-1-.1c-7.6-1-15.5-3.1-21.3-8.2-1.2-1-.6-3.3 1-3.6 6.9-1.5 14.2-1.4 21.2-2.4zm-9-17.5h.2a24.8 24.8 0 00-.1 0zm24-89.1c7.5 4.6 19 15.3 10.8 26.6-9.5 10-23.3-1.4-30-6.6-6.4-4-13.4 6.3-7.6 11 49 36.3 69-29.8 30.5-36.4-4.2-.8-5.8 4-3.8 5.4zm38.6-51.4c1.7 0 3.4.6 5 1.7 1.5 1.1 2.9 2.7 4 4.7 2.2 3.8 3.5 9 3.5 14.8 0 5.7-1.3 11-3.5 14.7-1.1 2-2.5 3.6-4 4.7a8.5 8.5 0 01-5 1.7c-1.8 0-3.5-.6-5-1.7a14.8 14.8 0 01-4-4.7c-2.3-3.8-3.6-9-3.6-14.7 0-5.8 1.3-11 3.5-14.8 1.2-2 2.5-3.6 4-4.7a8.5 8.5 0 015-1.7zm-82.2 5.9l.7-.1c4-.8 5.9-.5 9.3 2.1 2.5 2 1.8 6 0 8-3.2 3.7-6.3 3-10.6 3.2h-.3l-10.9.3h-3c.1 9.2-5.1 16.2-12.1 21.5-4.5 3.4-10.2-.5-11.8-4.8a23.1 23.1 0 01-1-11.8c.3-1.4.9-3 1.7-4.2l.2-.4v-.5-.4c-6.5-.4-12.9-1-19.3-1.8l-2.2-.3c-5.4-.7-13.5-1-18-4.5l.1-.5c2.5-1.3 5-1.2 7.7-1.3h.4l8.9-.4 3-.1c7.5-.2 15-.6 22.7-1l4-.2c1.3-.6 2.8-1 4.2-1 1.2 0 2.4 0 3.4.4l8.3-.7 2.8-.2c3.9-.4 8-.6 11.8-1.3zm48-68.7a34 34 0 0127-.8l.5.2c8.7 3.6 19.1 12 16.9 22.3-2 9.5-17 7.9-17.7-1-4.8-6.7-15.6-8.2-22.3-4-4.1 2.6-7 7-8.9 11.3-1.6 3.7-1.9 8.3-4.4 11.5-.1 0-.3.1-.4 0-7.5-1.7-7.7-13.6-6.4-19.4a30.2 30.2 0 0115.6-20z" clip-rule="evenodd"/>
    <path fill="#000" fill-rule="evenodd" d="M680 317.3c-9.4 64.5-76 71.6-87.8 7.6 1.9-.8 3.2-2.5 3-5.7-.1-14 4.2-28.7 16.8-36.4 13-8 28.2-8.8 43.3-8.6 28.7-.7 28.1 23.3 24.8 43zm-98.2-28c-9-.4-20.5-.1-28.5 5.4-2.3-6-8-12.4-13.9-15.8 21.7.6 44-1.5 65.8-3.2-5.2 3.6-10 9-13.2 15.1-3-1.5-7.1-1.4-10.2-1.6zM542 324c-25 86-87.4 48.6-94.2 37.5-12.2-18.2-14.5-62.6-3.9-74.4 15.3-10.8 37-8 55-8.3 33.3.5 56.9 10.4 43.1 45.2zm167.6-39.6c-6.8-.8-14-1-20.4 2-1.9-8.3-8-15.2-14.9-18.2-.8-1-.7-1.6-3.6-1.5-17.5-5.2-37-2.5-53.8 3-26.6 2.2-54.4 4-81.2 7-25.1-11.3-100.8-13-105.5 14.9-6-1-16-5.6-21 .7-36.4-6.2-74.1 2.4-110.8 6.3-9.2 1.7-14 20-3.5 19.7 6-1.6-.1-11.4 7.8-12.1 35.3-3.9 69.9-9.4 105.6-10-1.2 6.2 23.6 6.6 24 3h.1c-6.1 23-.6 55.9 10.5 70 15.6 18.6 54.6 24 72 12 22.3-11 45.5-66.4 39-84.8a76.6 76.6 0 0135.8-.7c-2.8 8-7.6 27.5-.6 29.2-1.3 38.8 34 63 66.6 47.1 28.2-13.2 38.1-55.1 34.6-80.6 3.6 6.8 33-.6 19.3-7z" clip-rule="evenodd"/>
</svg>
