<svg xmlns="http://www.w3.org/2000/svg" fill-rule="evenodd" stroke-linejoin="round" stroke-miterlimit="1.41421" clip-rule="evenodd" viewBox="0 0 880 582"><path fill="#3f3d56" fill-rule="nonzero" d="M643 581.351c-24.317-3.807-47.698-7.045-70.143-9.715l8.643-17.285c-3-1-16 9-16 9l11-50c-15 2-22 53-22 53l-17-17 8.368 19.247c-68.681-7.217-127.946-9.469-177.765-8.953l7.397-14.794c-3-1-16 9-16 9l11-50c-15 2-22 53-22 53l-17-17 8.863 20.385c-34.125.992-68.178 3.734-102.022 8.216 7.381-22.995 33.159-45.101 33.159-45.101-19.821 6.166-30.132 16.212-35.469 25.524-1.08-47.243 6.188-94.308 21.469-139.024 15.281-44.717-40 90-34 150l.761 10.658C189.462 575.937 172 581.351 172 581.351h471zM734.672 457.486c-6.583 0-12-5.417-12-12s5.417-12 12-12 12 5.417 12 12c-.007 6.58-5.419 11.993-12 12zm0-22c-5.485 0-10 4.514-10 10s4.515 10 10 10c5.486 0 10-4.514 10-10-.006-5.483-4.516-9.994-10-10zM830.5 579.776h-19.741v-19.741H830.5v19.741zm-18.223-1.518h16.704v-16.704h-16.704v16.704zM162.144 580.856l-13.465-14.436 14.436-13.465 13.465 14.436-14.436 13.465zm-11.319-14.361l11.394 12.215 12.215-11.394-11.394-12.215-12.215 11.394z"/><path fill="#3f3d56" d="M21.672 578.662H879.5v2H21.672z"/><path fill="#3f3d56" fill-rule="nonzero" d="M553.475 133.76v65.68c-.003 1.255-1.035 2.287-2.29 2.29h-1.63v342.15c-.001 19.584-16.116 35.699-35.7 35.7h-213.79c-19.579-.002-35.69-16.114-35.69-35.693V213.73h-1.18c-.885.001-1.616-.725-1.62-1.61v-37.38c0-.889.731-1.62 1.62-1.62h1.18v-14.08h-1.19c-.93-.004-1.692-.77-1.69-1.7v-36.87c.002-.926.764-1.688 1.69-1.69h1.19V99.56h-1.212c-.822 0-1.498-.676-1.498-1.498V77.94c-.002-.825.675-1.506 1.5-1.51h1.21V35.69C264.376 16.111 280.486.001 300.065 0h213.79c19.581 0 35.695 16.109 35.7 35.69v95.78h1.63c1.255.003 2.287 1.035 2.29 2.29z"/><path fill="#e6e8ec" d="M419.802 20.849c0-1.403-1.139-2.542-2.542-2.542h-34.739c-1.403 0-2.542 1.139-2.542 2.542v3.002c0 1.403 1.139 2.542 2.542 2.542h34.739c1.403 0 2.542-1.139 2.542-2.542v-3.002z"/><circle cx="430.41" cy="22.35" r="4.587" fill="#e6e8ec"/><path fill="#6c63ff" fill-rule="nonzero" d="M532.46 42.751v504.09c.006 6.629-2.907 12.937-7.96 17.23-4.097 3.491-9.307 5.41-14.69 5.41H305.16c-3.641.005-7.23-.87-10.46-2.55-.759-.389-1.494-.823-2.2-1.3-6.24-4.21-9.99-11.263-9.99-18.79V42.751v-.001c0-12.425 10.224-22.649 22.649-22.649h30.631v3.93c0 10.231 8.419 18.649 18.65 18.65h104.08c10.231-.001 18.65-8.419 18.65-18.65v-3.93h32.647c12.422 0 22.643 10.221 22.643 22.642v.008z"/><path fill="#fff" fill-opacity=".3" fill-rule="nonzero" d="M532.46 474.681v72.16c.006 6.629-2.907 12.937-7.96 17.23-4.097 3.491-9.307 5.41-14.69 5.41H305.16c-3.641.005-7.23-.87-10.46-2.55-.759-.389-1.494-.823-2.2-1.3-6.24-4.21-9.99-11.263-9.99-18.79v-72.13c70.713-63.564 179.222-63.577 249.95-.03z"/><path fill="#fff" fill-opacity=".3" fill-rule="nonzero" d="M520.29 566.911c-3.232 1.697-6.83 2.579-10.48 2.57H305.16c-3.641.005-7.23-.87-10.46-2.55 18.909-45.477 63.549-75.26 112.799-75.26 49.243 0 93.877 29.774 112.791 75.24z"/><path fill="#ffb8b8" fill-rule="nonzero" d="M550.269 261.4v29.153s2.332 32.651 15.16 48.976c0 0 20.99 29.736 23.905 23.323l-3.591-21.116-12.152-11.535-6.413-36.15-1.749-32.651h-15.16zM679.124 524.941v21.573l-17.491 6.414v-25.072l17.491-2.915zM643.558 522.609l11.661 26.237-16.325 6.997-3.499-25.654 8.163-7.58z"/><path fill="#2f2e41" fill-rule="nonzero" d="M672.711 321.455s23.322 210.483 14.576 211.066c-8.746.583-25.654 11.661-25.654 4.081 0-7.579-13.411-106.116-13.411-106.116l-12.827-50.726v69.967l13.411 79.296s-12.828 16.908-22.157 6.996l-19.823-77.546s-26.238-117.777-25.072-127.106c0 0 60.055-51.309 90.957-9.912zM668.046 547.68s4.665-9.912 15.16-3.498l8.746 10.495s22.548 18.674 6.548 22.674c-16.491 4.122-26.372-.264-26.372-.264s-2.915-1.749-5.248-1.749c-2.332 0-7.579-4.081-7.579-5.247 0-1.166 1.749-21.828 1.749-21.828 1.349-.657 2.97-.425 4.081.583 1.749 1.75 2.915-1.166 2.915-1.166z"/><path fill="#2f2e41" fill-rule="nonzero" d="M633.646 544.182s11.078-8.746 16.326 1.166c0 0 3.304 1.166 3.692 0 .389-1.166 3.304-1.749 3.304 4.665 0 6.413 3.166 22.41.251 22.993-2.915.583-5.83 2.332-5.247 4.664.583 2.333-3.166 2.661-16.577 2.078-13.41-.583-13.993-5.83-13.993-5.83s0-7.58 3.498-11.661c3.499-4.082 8.746-18.075 8.746-18.075z"/><path fill="#ffb8b8" fill-rule="nonzero" d="M612.073 162.28s-2.915 21.574 15.743 29.153c18.657 7.58-41.397 32.651-47.228 18.075-5.83-14.576 1.166-19.241 1.166-19.241s5.831-5.83.583-21.573l29.736-6.414z"/><circle cx="593.415" cy="151.785" r="25.654" fill="#ffb8b8"/><path fill="#f2f2f2" fill-rule="nonzero" d="M623.151 198.43s-17.492 9.329-34.4 2.332c-16.909-6.996-16.326 23.322-16.326 23.322l8.746 22.74 60.638-5.831-4.082-34.983-14.576-7.58z"/><path fill="#3f3d56" fill-rule="nonzero" d="M614.461 178.48c6.287 1.334 11.636 5.461 14.521 11.204l27.986 8.746 6.997 9.912-8.163 71.716s15.16 14.576 15.16 22.739 18.657 36.149 9.329 32.651c-9.329-3.498-26.238-15.742-26.238-15.742s-42.563 1.749-55.973 13.41c-13.411 11.661-18.658 8.163-18.658 8.163s-13.993-60.638-14.576-69.967c-.583-9.329-16.909-65.302-16.909-65.302l29.153-16.326 7.425-8.425 20.561 32.913 18.658-22.739s-9.218-7.249-9.273-12.953z"/><path fill="#ffb8b8" fill-rule="nonzero" d="M672.711 253.237l3.498 18.658s15.743 58.306 13.41 78.129c0 0 1.75 44.313-8.162 39.065-9.912-5.247-4.665-37.315-4.665-37.315l-13.993-57.723-7.58-33.817 17.492-6.997z"/><path fill="#3f3d56" fill-rule="nonzero" d="M658.134 204.844l5.831 3.498s22.156 46.061 16.909 49.56c-5.248 3.498-27.987 11.078-27.987 11.078l5.247-64.136zM561.93 206.01l-13.702-.292-3.206 5.539 4.081 56.557 20.99 4.664-8.163-66.468z"/><path fill="#2f2e41" fill-rule="nonzero" d="M614.306 130.088l4.624-1.681s-9.668-9.669-23.12-8.828l3.783-3.783s-9.248-3.363-17.655 5.465c-4.42 4.64-9.534 10.095-12.721 16.24h-4.952l2.066 4.133-7.233 4.134 7.424-.743c-.703 3.569-.461 7.26.703 10.706l1.681 4.624s6.726-13.452 6.726-15.133v4.203s4.624-3.783 4.624-6.305l2.522 2.942 1.261-4.624 15.554 4.624-2.522-3.783 9.668 1.261-3.783-4.624s10.93 5.465 11.35 10.089c.421 4.624 3.306 10.652 3.306 10.652l3.498-4.082s5.387-19.181-6.804-25.487z"/><ellipse cx="614.988" cy="152.077" fill="#ffb8b8" rx="2.041" ry="5.248"/><path fill="#3f3d56" fill-rule="nonzero" d="M41.634 547.016C54.062 570.065 80.44 579.96 80.44 579.96s6.227-27.476-6.201-50.525c-12.429-23.049-38.806-32.943-38.806-32.943s-6.227 27.475 6.201 50.524z"/><path fill="#6c63ff" fill-rule="nonzero" d="M50.177 539.433c22.438 13.5 31.08 40.314 31.08 40.314s-27.738 4.927-50.177-8.573C8.642 557.675 0 530.861 0 530.861s27.738-4.927 50.177 8.572z"/></svg>