<svg xmlns="http://www.w3.org/2000/svg" fill-rule="evenodd" stroke-linejoin="round" stroke-miterlimit="1.41421" clip-rule="evenodd" viewBox="0 0 942 781"><circle cx="568" cy="373" r="373" fill="#f2f2f2"/><path fill="#bfbfbf" fill-rule="nonzero" d="M912 732c0 15.464-204.158 48-456 48S0 747.464 0 732c0-15.464 204.158-8 456-8s456-7.464 456 8z"/><path fill="#bfbfbf" fill-opacity=".1" fill-rule="nonzero" d="M912 732c0 15.464-204.158 48-456 48S0 747.464 0 732c0-15.464 204.158-8 456-8s456-7.464 456 8z"/><ellipse cx="456" cy="732" fill="#bfbfbf" rx="456" ry="28"/><path fill="#ffb9b9" fill-rule="nonzero" d="M572.635 235.316s12.793 26.864 7.676 39.656c-5.117 12.792 19.188 26.864 19.188 26.864l31.981-17.909v-23.026l-5.117-10.234s-20.468-11.513-17.909-29.423c2.558-17.909-35.819 14.072-35.819 14.072z"/><path fill-opacity=".1" fill-rule="nonzero" d="M572.635 235.316s12.793 26.864 7.676 39.656c-5.117 12.792 19.188 26.864 19.188 26.864l31.981-17.909v-23.026l-5.117-10.234s-20.468-11.513-17.909-29.423c2.558-17.909-35.819 14.072-35.819 14.072z"/><path fill="#ffb9b9" fill-rule="nonzero" d="M548.33 347.888s-2.559 28.143-2.559 31.981c0 3.838-3.837 16.63-3.837 16.63s-14.072 65.241-23.026 71.637c-8.955 6.396-14.072 46.052 0 43.494 14.071-2.558 17.909-37.098 17.909-37.098l29.125-54.997 4.135-66.53-21.747-5.117z"/><path fill="#dc3a00" fill-rule="nonzero" d="M558.564 291.602H548.33s-10.234 61.403 0 63.962c10.234 2.558 29.422 2.558 29.422 2.558l-19.188-66.52z"/><path fill="#ffb9b9" fill-rule="nonzero" d="M616.129 686.885l5.117 24.305 10.234-7.675-5.117-21.747-10.234 3.837v1.28z"/><path fill="#2f2e41" fill-rule="nonzero" d="M570.077 427.201l-7.676 5.117s-3.837 44.773 5.117 79.312c8.955 34.539 15.351 75.475 15.351 75.475s15.351 102.338 19.189 104.897c3.837 2.558 28.143 3.837 29.422-1.28s-8.955-101.059-8.955-101.059-7.675-80.592-1.279-90.825c0 0 20.468 88.267 26.864 97.221 0 0 8.955 97.222 14.071 99.78 5.117 2.559 29.423 3.838 30.702-1.279 1.279-5.117-7.675-115.131-11.513-124.085-3.838-8.955-5.117-141.995-14.072-140.716-8.954 1.279-97.221-2.558-97.221-2.558z"/><circle cx="585.428" cy="217.407" r="29.422" fill="#ffb9b9"/><path fill="#dc3a00" fill-rule="nonzero" d="M596.941 282.647l-6.396-11.513s-7.676-10.233-11.514-7.675c-3.837 2.558-3.837 11.513-3.837 11.513s-29.423 10.234-26.864 24.305c2.558 14.072 19.188 38.377 19.188 38.377s2.559 20.468 0 25.585c-2.558 5.117-7.675 8.955-3.837 14.072 3.837 5.117 5.117 6.396 3.837 12.792-1.279 6.396-3.837 8.955-1.279 11.513 2.559 2.559-1.279 29.422-3.838 30.702-2.558 1.279 81.871 14.071 88.267 10.233 6.397-3.837 24.306-3.837 23.027-7.675-1.28-3.838-6.397-26.864-6.397-30.701 0-3.838 0-20.468-1.279-21.747-1.279-1.28 1.279-20.468 1.279-20.468l-6.396-53.728 20.468-31.981s-5.117-17.909-29.422-20.467c-24.306-2.559-31.029-8.955-31.029-8.955s-2.231 11.513-7.348 14.072c-5.117 2.558-16.63 21.746-16.63 21.746z"/><path fill="#ffb9b9" fill-rule="nonzero" d="M690.325 317.187L698 374.752l-16.63 83.15s-6.396 47.332-19.188 46.053c-12.793-1.28 0-51.17 0-51.17l10.233-78.033s-16.63-39.656-12.792-44.773c3.838-5.117 30.702-12.792 30.702-12.792z"/><path fill="#2f2e41" fill-rule="nonzero" d="M627.642 699.677s-16.63-8.955-20.467-7.675c-3.838 1.279-7.676 19.188-7.676 19.188s-29.422 21.747-10.234 26.864c19.189 5.117 26.864-6.396 26.864-6.396s19.189-10.234 19.189-12.792c0-2.559-2.559-19.189-2.559-19.189h-5.117zM666.019 693.281s-7.675 42.215-2.558 44.773 26.864 6.396 29.422 0c2.559-6.396 2.559-21.747 1.279-26.864-1.279-5.117-5.117-17.909-5.117-17.909h-23.026z"/><path fill="#9d8a00" fill-rule="nonzero" d="M580.296 170.869c-1.146-.344-2.361-.381-3.525-.107-1.468.48-2.432 1.836-3.552 2.9-2.934 2.785-7.126 3.657-10.95 4.976-3.824 1.32-7.847 3.655-8.804 7.585-.232 1.582-.371 3.176-.417 4.774-.57 4.636-4.107 8.812-3.475 13.44.413 3.024 2.57 5.59 3.012 8.609.494 3.367-1.207 6.871-.259 10.139.93 3.203 4.075 5.154 6.974 6.804 1.242-7.89 2.735-15.734 4.478-23.534.198-1.409.746-2.746 1.595-3.888 2.572-2.914 7.617-1.255 10.955-3.245 1.268-.756 2.209-2.004 3.541-2.641 3.856-1.843 8.027 2.241 12.301 2.279 1.886.016 3.955-.733 5.548.277.704.514 1.262 1.202 1.623 1.995 1.523 2.859 2.36 6.071 4.136 8.779 1.777 2.709 4.958 4.918 8.106 4.16-.481-2.442 1.432-4.639 2.197-7.008 1.318-4.075-.836-8.498-.317-12.748.488-3.992 3.088-8.677.235-11.51-.975-.823-2.132-1.404-3.375-1.694-10.096-3.204-19.422-8.574-30.027-10.342z"/><path fill="#dc3a00" fill-rule="nonzero" d="M668.578 271.134l12.792 5.117s16.63 53.728 12.792 53.728c-3.837 0-38.377 8.955-38.377 5.117s2.559-63.962 12.793-63.962z"/></svg>