<svg xmlns="http://www.w3.org/2000/svg" viewBox="0 0 152 36"><defs><style>.a{fill:#15a3b3;}.b{fill:#f39200;}</style></defs><title>logo_WesBank</title><path class="a" d="M53.41,32.28v1.95a.69.69,0,0,1-.46.64A15.52,15.52,0,0,1,46.88,36c-7.34,0-10.7-4.31-10.7-10.81,0-5.91,3.85-10.11,9.69-10.11,6.64,0,9,4.51,9.11,10.58a.7.7,0,0,1-.71.7H41a.68.68,0,0,0-.7.71A6.67,6.67,0,0,0,47,33a13,13,0,0,0,5.33-1.37.72.72,0,0,1,1,.63ZM41.06,23.62h9.13a.68.68,0,0,0,.7-.77,5,5,0,0,0-5.11-4.79c-3.33,0-4.92,2.38-5.42,4.73a.7.7,0,0,0,.69.84Z"/><path class="a" d="M57.4,34.48V32.62a.7.7,0,0,1,1-.63,11.57,11.57,0,0,0,4,1c1.74,0,3.89-.71,3.89-2.86,0-3.64-9-3.33-9-8.93,0-4.15,3.2-6.15,7.3-6.15a15.58,15.58,0,0,1,4.25.64.68.68,0,0,1,.51.65v1.78a.69.69,0,0,1-.92.64A14.36,14.36,0,0,0,65,18.06c-1.95,0-3.65.78-3.65,2.43,0,4.07,9,2.9,9,9.28C70.32,34,66.79,36,63.1,36a13,13,0,0,1-5.31-.91.67.67,0,0,1-.39-.61"/><path class="a" d="M96.1,19.33V17.21a.42.42,0,0,1,.22-.37,13.5,13.5,0,0,1,6.61-1.76c5.92,0,8.17,2.82,8.17,8.27V35.1a.43.43,0,0,1-.44.43h-2.39a.43.43,0,0,1-.44-.43v-1.6a.18.18,0,0,0-.32-.11,7.66,7.66,0,0,1-6.17,2.6c-4.46,0-7.58-1.88-7.58-6.23,0-5,5.68-6.58,9.61-6.58,1.33,0,2.31,0,3.56.06a.46.46,0,0,0,.49-.46c-.13-3.5-1.8-5.08-6.47-4.66a11.38,11.38,0,0,0-4.2,1.57.44.44,0,0,1-.65-.37Zm11.33,8.45V26.43A.43.43,0,0,0,107,26c-.67,0-1.33-.07-2-.07-2.07,0-7.18.31-7.18,3.84,0,2.11,2.11,3.25,3.85,3.25,3.77,0,5.76-2.27,5.76-5.25Z"/><path class="a" d="M113.67,34.85V16.23a.69.69,0,0,1,.7-.68h2.21a.69.69,0,0,1,.7.68v2a.15.15,0,0,0,.27.08A7.44,7.44,0,0,1,124,15.08c5.35,0,7.74,3.21,7.74,8.58V34.85a.69.69,0,0,1-.7.68h-2.27a.69.69,0,0,1-.7-.68V25.19c0-4.65-1.05-6.92-4.36-7.13h0c-4.32,0-6.26,3.38-6.26,8.23v8.56a.69.69,0,0,1-.7.68h-2.34a.69.69,0,0,1-.7-.68"/><path class="a" d="M134.32,34.85V5.56a.69.69,0,0,1,.7-.68h2.2a.69.69,0,0,1,.7.68V22.44a.52.52,0,0,0,.89.35l7.22-7a.71.71,0,0,1,.5-.2h3.14a.68.68,0,0,1,.48,1.17L142.27,24a.6.6,0,0,0,0,.86l9.28,9.53a.68.68,0,0,1-.51,1.15h-3.53a.71.71,0,0,1-.53-.23l-8.13-9a.52.52,0,0,0-.91.33v8.25a.69.69,0,0,1-.7.68H135a.69.69,0,0,1-.7-.68"/><path class="a" d="M88,27.41c0-4.08-3.06-5.23-7-5.46a.7.7,0,0,1-.67-.68V19.9a.7.7,0,0,1,.68-.68c3.87-.2,6.5-1.23,6.5-5S84.1,9.57,81.58,9.57H77.43a.69.69,0,0,0-.7.68V31.76a.69.69,0,0,0,.7.68h2.85c3.84,0,7.68-.78,7.68-5M72.9,34.85V7.16a.69.69,0,0,1,.7-.68h7.06c6.23,0,10.52,2,10.52,7.33a6.91,6.91,0,0,1-4.11,6.26c-.53.27-.47.81.08,1a7.16,7.16,0,0,1,4.8,6.7c0,6.24-5.33,7.74-11.43,7.74H73.6a.69.69,0,0,1-.7-.68"/><path class="b" d="M26.09,3.67H39a.41.41,0,0,1,.39.55L35.13,14.78a.4.4,0,0,0,0,.29l1.31,3.32a.42.42,0,0,0,.78,0l7-17.27a.41.41,0,0,0-.39-.55H24.08a.41.41,0,0,0-.32.67l2,2.29a.43.43,0,0,0,.32.14"/><path class="a" d="M25.34,24.79,31.16,10a1,1,0,0,0-1-1.39H6.49a1,1,0,0,0-1,1.4l5.91,14.79a1.07,1.07,0,0,0,2,0l4-10.19a1.07,1.07,0,0,1,2,0l4,10.19a1.07,1.07,0,0,0,2,0Zm-1.93,10L19.33,24.29a1.07,1.07,0,0,0-2,0l-4,10.51a1.07,1.07,0,0,1-2,0L.07,6.5a1,1,0,0,1,1-1.39H35.6a1,1,0,0,1,1,1.39L25.39,34.81a1.07,1.07,0,0,1-2,0Z"/></svg>