<svg width="48" height="48" viewBox="0 0 24 24" fill="none" xmlns="http://www.w3.org/2000/svg">
    <path
        d="M22.0316 6.16483C22.1549 5.97977 22.1411 5.73552 21.9979 5.56545C21.8546 5.39539 21.6162 5.34038 21.4129 5.43047C21.2727 5.49261 21.1303 5.55057 20.9858 5.60425C21.2258 5.2509 21.4171 4.86165 21.5501 4.44605C21.6133 4.24824 21.5477 4.03193 21.3853 3.90257C21.2228 3.77321 20.9973 3.75775 20.8187 3.86372C20.1623 4.25316 19.4427 4.5466 18.6791 4.72422C17.8699 3.96602 16.7788 3.5 15.5812 3.5C13.083 3.5 11.0572 5.52607 11.0572 8.02573C11.0572 8.14976 11.0622 8.27255 11.072 8.394C8.1255 8.08021 5.53027 6.59911 3.7533 4.42004C3.64952 4.29278 3.48987 4.22459 3.32617 4.23761C3.16247 4.25063 3.0156 4.3432 2.93324 4.48527C2.54508 5.15484 2.32156 5.93209 2.32156 6.75926C2.32156 7.63881 2.57273 8.46065 3.00688 9.15587C2.85696 9.08316 2.67986 9.08972 2.5352 9.17483C2.38249 9.26467 2.28873 9.42861 2.28873 9.60578V9.65761C2.28873 11.0981 2.96168 12.3813 4.01059 13.21C3.94054 13.2386 3.87676 13.2831 3.82497 13.3417C3.70812 13.4738 3.66949 13.6577 3.72333 13.8256C4.16572 15.2057 5.25383 16.2987 6.63297 16.7469C5.54396 17.3482 4.29238 17.6903 2.96065 17.6903C2.65535 17.6903 2.35438 17.6724 2.0585 17.6375C1.82723 17.6103 1.60778 17.7463 1.52927 17.9655C1.45076 18.1848 1.534 18.4292 1.72999 18.5549C3.58898 19.7477 5.79701 20.4422 8.16817 20.4422C15.9053 20.4422 20.119 14.0253 20.119 8.49223C20.119 8.40031 20.1179 8.30813 20.1157 8.21616C20.8592 7.64243 21.508 6.9489 22.0296 6.16785L22.0299 6.16742L22.0316 6.16483Z"
        stroke="white" stroke-width="1.5" stroke-linejoin="round" />
</svg>